Rubik-LightItalic.ufo
<glyph name="exclam" format="1">
  <advance width="227"/>
  <unicode hex="0021"/>
  <outline>
    <contour>
      <point x="191" y="700" type="line" name="hr00" smooth="yes"/>
      <point x="178" y="700"/>
      <point x="167" y="691"/>
      <point x="165" y="678" type="curve" smooth="yes"/>
      <point x="56" y="165" type="line" smooth="yes"/>
      <point x="53" y="152"/>
      <point x="60" y="143"/>
      <point x="73" y="143" type="curve" smooth="yes"/>
      <point x="90" y="143" type="line" smooth="yes"/>
      <point x="103" y="143"/>
      <point x="114" y="152"/>
      <point x="117" y="165" type="curve" smooth="yes"/>
      <point x="226" y="678" type="line" smooth="yes"/>
      <point x="228" y="691"/>
      <point x="221" y="700"/>
      <point x="208" y="700" type="curve" smooth="yes"/>
    </contour>
    <contour>
      <point x="105" y="60" type="line" smooth="yes"/>
      <point x="108" y="73"/>
      <point x="100" y="83"/>
      <point x="87" y="83" type="curve" smooth="yes"/>
      <point x="49" y="83" type="line" smooth="yes"/>
      <point x="36" y="83"/>
      <point x="25" y="73"/>
      <point x="22" y="60" type="curve" smooth="yes"/>
      <point x="14" y="22" type="line" smooth="yes"/>
      <point x="11" y="9"/>
      <point x="19" y="0"/>
      <point x="32" y="0" type="curve" smooth="yes"/>
      <point x="70" y="0" type="line" smooth="yes"/>
      <point x="83" y="0"/>
      <point x="94" y="9"/>
      <point x="97" y="22" type="curve" smooth="yes"/>
    </contour>
  </outline>
</glyph>
<glyph name="quotedbl" format="1">
  <advance width="340"/>
  <unicode hex="0022"/>
  <outline>
    <contour>
      <point x="225" y="690" type="line" name="hr00"/>
      <point x="229" y="702"/>
      <point x="222" y="710"/>
      <point x="210" y="710" type="curve" smooth="yes"/>
      <point x="165" y="710" type="line" smooth="yes"/>
      <point x="153" y="710"/>
      <point x="143" y="702"/>
      <point x="142" y="690" type="curve" smooth="yes"/>
      <point x="123" y="527" type="line" smooth="yes"/>
      <point x="121" y="516"/>
      <point x="124" y="508"/>
      <point x="135" y="508" type="curve" smooth="yes"/>
      <point x="154" y="508" type="line" smooth="yes"/>
      <point x="165" y="508"/>
      <point x="173" y="516"/>
      <point x="176" y="527" type="curve" smooth="yes"/>
    </contour>
    <contour>
      <point x="358" y="690" type="line"/>
      <point x="362" y="702"/>
      <point x="355" y="710"/>
      <point x="343" y="710" type="curve" smooth="yes"/>
      <point x="298" y="710" type="line" smooth="yes"/>
      <point x="286" y="710"/>
      <point x="276" y="702"/>
      <point x="275" y="690" type="curve" smooth="yes"/>
      <point x="256" y="527" type="line"/>
      <point x="254" y="516"/>
      <point x="257" y="508"/>
      <point x="268" y="508" type="curve" smooth="yes"/>
      <point x="287" y="508" type="line" smooth="yes"/>
      <point x="298" y="508"/>
      <point x="306" y="516"/>
      <point x="309" y="527" type="curve" smooth="yes"/>
    </contour>
  </outline>
</glyph>
<glyph name="dollar" format="1">
  <advance width="596"/>
  <unicode hex="0024"/>
  <outline>
    <contour>
      <point x="428" y="778" type="line" name="hr00"/>
      <point x="431" y="791"/>
      <point x="424" y="800"/>
      <point x="411" y="800" type="curve"/>
      <point x="392" y="800" type="line"/>
      <point x="379" y="800"/>
      <point x="368" y="791"/>
      <point x="365" y="778" type="curve"/>
      <point x="348" y="709" type="line"/>
      <point x="215" y="702"/>
      <point x="134" y="633"/>
      <point x="114" y="538" type="curve" smooth="yes"/>
      <point x="91" y="428"/>
      <point x="142" y="379"/>
      <point x="275" y="333" type="curve" smooth="yes"/>
      <point x="414" y="285"/>
      <point x="478" y="260"/>
      <point x="461" y="181" type="curve" smooth="yes"/>
      <point x="444" y="101"/>
      <point x="369" y="50"/>
      <point x="239" y="50" type="curve" smooth="yes"/>
      <point x="119" y="50"/>
      <point x="74" y="114"/>
      <point x="78" y="170" type="curve"/>
      <point x="78" y="181"/>
      <point x="73" y="190"/>
      <point x="60" y="190" type="curve"/>
      <point x="40" y="190" type="line"/>
      <point x="28" y="190"/>
      <point x="16" y="181"/>
      <point x="15" y="170" type="curve" smooth="yes"/>
      <point x="5" y="83"/>
      <point x="64" y="5"/>
      <point x="198" y="-8" type="curve"/>
      <point x="183" y="-78" type="line"/>
      <point x="180" y="-91"/>
      <point x="187" y="-100"/>
      <point x="200" y="-100" type="curve"/>
      <point x="219" y="-100" type="line"/>
      <point x="232" y="-100"/>
      <point x="243" y="-91"/>
      <point x="246" y="-78" type="curve"/>
      <point x="260" y="-9" type="line"/>
      <point x="403" y="-4"/>
      <point x="497" y="57"/>
      <point x="522" y="173" type="curve" smooth="yes"/>
      <point x="545" y="283"/>
      <point x="484" y="329"/>
      <point x="345" y="377" type="curve" smooth="yes"/>
      <point x="211" y="423"/>
      <point x="157" y="450"/>
      <point x="174" y="530" type="curve" smooth="yes"/>
      <point x="192" y="612"/>
      <point x="275" y="650"/>
      <point x="374" y="650" type="curve" smooth="yes"/>
      <point x="462" y="650"/>
      <point x="522" y="601"/>
      <point x="516" y="535" type="curve" smooth="yes"/>
      <point x="515" y="519"/>
      <point x="527" y="515"/>
      <point x="534" y="515" type="curve"/>
      <point x="554" y="515" type="line"/>
      <point x="568" y="515"/>
      <point x="577" y="525"/>
      <point x="579" y="535" type="curve" smooth="yes"/>
      <point x="592" y="605"/>
      <point x="541" y="694"/>
      <point x="411" y="708" type="curve"/>
    </contour>
  </outline>
</glyph>
<glyph name="percent" format="1">
  <advance width="760"/>
  <unicode hex="0025"/>
  <outline>
    <contour>
      <point x="391" y="569" type="curve" smooth="yes"/>
      <point x="404" y="649"/>
      <point x="361" y="705"/>
      <point x="274" y="705" type="curve" smooth="yes"/>
      <point x="187" y="705"/>
      <point x="132" y="649"/>
      <point x="111" y="569" type="curve" smooth="yes"/>
      <point x="101" y="532"/>
      <point x="97" y="514"/>
      <point x="92" y="480" type="curve" smooth="yes"/>
      <point x="79" y="400"/>
      <point x="127" y="345"/>
      <point x="209" y="345" type="curve" smooth="yes"/>
      <point x="296" y="345"/>
      <point x="351" y="400"/>
      <point x="372" y="480" type="curve" smooth="yes"/>
      <point x="381" y="514"/>
      <point x="385" y="532"/>
    </contour>
    <contour>
      <point x="690" y="218" type="curve" smooth="yes"/>
      <point x="703" y="298"/>
      <point x="660" y="354"/>
      <point x="573" y="354" type="curve" name="hr01" smooth="yes"/>
      <point x="486" y="354"/>
      <point x="431" y="298"/>
      <point x="410" y="218" type="curve" smooth="yes"/>
      <point x="400" y="181"/>
      <point x="396" y="163"/>
      <point x="391" y="129" type="curve" smooth="yes"/>
      <point x="378" y="49"/>
      <point x="426" y="-6"/>
      <point x="508" y="-6" type="curve" smooth="yes"/>
      <point x="595" y="-6"/>
      <point x="650" y="49"/>
      <point x="671" y="129" type="curve" smooth="yes"/>
      <point x="680" y="163"/>
      <point x="684" y="181"/>
    </contour>
    <contour>
      <point x="151" y="483" type="curve"/>
      <point x="157" y="520"/>
      <point x="159" y="531"/>
      <point x="168" y="566" type="curve" smooth="yes"/>
      <point x="179" y="606"/>
      <point x="210" y="649"/>
      <point x="274" y="649" type="curve" smooth="yes"/>
      <point x="333" y="649"/>
      <point x="339" y="606"/>
      <point x="332" y="566" type="curve"/>
      <point x="327" y="531"/>
      <point x="325" y="520"/>
      <point x="315" y="483" type="curve" smooth="yes"/>
      <point x="304" y="445"/>
      <point x="269" y="401"/>
      <point x="209" y="401" type="curve" name="hr02" smooth="yes"/>
      <point x="154" y="401"/>
      <point x="146" y="445"/>
    </contour>
    <contour>
      <point x="450" y="132" type="curve"/>
      <point x="456" y="169"/>
      <point x="458" y="180"/>
      <point x="467" y="215" type="curve" smooth="yes"/>
      <point x="478" y="255"/>
      <point x="509" y="298"/>
      <point x="573" y="298" type="curve" name="hr03" smooth="yes"/>
      <point x="632" y="298"/>
      <point x="638" y="255"/>
      <point x="631" y="215" type="curve"/>
      <point x="626" y="180"/>
      <point x="624" y="169"/>
      <point x="614" y="132" type="curve" smooth="yes"/>
      <point x="603" y="94"/>
      <point x="568" y="50"/>
      <point x="508" y="50" type="curve" smooth="yes"/>
      <point x="453" y="50"/>
      <point x="445" y="94"/>
    </contour>
    <contour>
      <point x="743" y="669" type="line" smooth="yes"/>
      <point x="755" y="681"/>
      <point x="752" y="700"/>
      <point x="733" y="700" type="curve" smooth="yes"/>
      <point x="708" y="700" type="line" smooth="yes"/>
      <point x="690" y="700"/>
      <point x="683" y="693"/>
      <point x="671" y="681" type="curve" smooth="yes"/>
      <point x="40" y="31" type="line" smooth="yes"/>
      <point x="28" y="19"/>
      <point x="31" y="0"/>
      <point x="50" y="0" type="curve" name="hr04" smooth="yes"/>
      <point x="75" y="0" type="line" smooth="yes"/>
      <point x="93" y="0"/>
      <point x="100" y="7"/>
      <point x="112" y="19" type="curve" smooth="yes"/>
    </contour>
  </outline>
</glyph>
<glyph name="ampersand" format="1">
  <advance width="666"/>
  <unicode hex="0026"/>
  <outline>
    <contour>
      <point x="615" y="344" type="curve"/>
      <point x="618" y="357"/>
      <point x="610" y="366"/>
      <point x="597" y="366" type="curve" smooth="yes"/>
      <point x="584" y="366" type="line" smooth="yes"/>
      <point x="571" y="366"/>
      <point x="562" y="357"/>
      <point x="558" y="344" type="curve"/>
      <point x="538" y="273"/>
      <point x="499" y="218"/>
      <point x="463" y="173" type="curve"/>
      <point x="397" y="254"/>
      <point x="316" y="363"/>
      <point x="316" y="363" type="curve"/>
      <point x="405" y="408"/>
      <point x="493" y="457"/>
      <point x="512" y="550" type="curve"/>
      <point x="532" y="642"/>
      <point x="467" y="710"/>
      <point x="366" y="710" type="curve" smooth="yes"/>
      <point x="265" y="710"/>
      <point x="183" y="637"/>
      <point x="164" y="550" type="curve" smooth="yes"/>
      <point x="152" y="491"/>
      <point x="168" y="447"/>
      <point x="220" y="375" type="curve"/>
      <point x="136" y="331"/>
      <point x="56" y="278"/>
      <point x="36" y="184" type="curve" smooth="yes"/>
      <point x="12" y="72"/>
      <point x="92" y="-10"/>
      <point x="221" y="-10" type="curve" smooth="yes"/>
      <point x="319" y="-10"/>
      <point x="392" y="30"/>
      <point x="454" y="84" type="curve"/>
      <point x="519" y="10" type="line"/>
      <point x="524" y="5"/>
      <point x="531" y="0"/>
      <point x="545" y="0" type="curve" name="hr01"/>
      <point x="566" y="0" type="line" smooth="yes"/>
      <point x="586" y="0"/>
      <point x="596" y="17"/>
      <point x="581" y="35" type="curve" smooth="yes"/>
      <point x="501" y="131" type="line"/>
      <point x="570" y="208"/>
      <point x="603" y="282"/>
    </contour>
    <contour>
      <point x="259" y="332" type="curve"/>
      <point x="259" y="332"/>
      <point x="347" y="217"/>
      <point x="418" y="129" type="curve"/>
      <point x="354" y="75"/>
      <point x="281" y="50"/>
      <point x="221" y="50" type="curve" name="hr02" smooth="yes"/>
      <point x="139" y="50"/>
      <point x="80" y="97"/>
      <point x="99" y="184" type="curve" smooth="yes"/>
      <point x="113" y="249"/>
      <point x="184" y="294"/>
    </contour>
    <contour>
      <point x="449" y="550" type="curve" smooth="yes"/>
      <point x="436" y="485"/>
      <point x="358" y="445"/>
      <point x="277" y="405" type="curve"/>
      <point x="224" y="476"/>
      <point x="219" y="510"/>
      <point x="227" y="550" type="curve"/>
      <point x="241" y="612"/>
      <point x="307" y="650"/>
      <point x="366" y="650" type="curve" smooth="yes"/>
      <point x="428" y="650"/>
      <point x="462" y="611"/>
    </contour>
  </outline>
</glyph>
<glyph name="quotesingle" format="1">
  <advance width="207"/>
  <unicode hex="0027"/>
  <outline>
    <contour>
      <point x="225" y="690" type="line" name="hr00"/>
      <point x="229" y="702"/>
      <point x="222" y="710"/>
      <point x="210" y="710" type="curve"/>
      <point x="165" y="710" type="line" smooth="yes"/>
      <point x="153" y="710"/>
      <point x="143" y="702"/>
      <point x="142" y="690" type="curve" smooth="yes"/>
      <point x="123" y="527" type="line"/>
      <point x="121" y="516"/>
      <point x="124" y="508"/>
      <point x="135" y="508" type="curve" smooth="yes"/>
      <point x="156" y="508" type="line" smooth="yes"/>
      <point x="168" y="508"/>
      <point x="172" y="513"/>
      <point x="175" y="524" type="curve"/>
    </contour>
  </outline>
</glyph>
<glyph name="parenleft" format="1">
  <advance width="317"/>
  <unicode hex="0028"/>
  <outline>
    <contour>
      <point x="174" y="-159" type="curve" name="hr00" smooth="yes"/>
      <point x="186" y="-159"/>
      <point x="198" y="-149"/>
      <point x="200" y="-137" type="curve" smooth="yes"/>
      <point x="203" y="-123" type="line" smooth="yes"/>
      <point x="206" y="-111"/>
      <point x="198" y="-101"/>
      <point x="189" y="-101" type="curve" smooth="yes"/>
      <point x="77" y="-101"/>
      <point x="57" y="-8"/>
      <point x="124" y="309" type="curve" smooth="yes"/>
      <point x="192" y="626"/>
      <point x="251" y="718"/>
      <point x="363" y="718" type="curve" smooth="yes"/>
      <point x="372" y="718"/>
      <point x="384" y="728"/>
      <point x="387" y="740" type="curve" smooth="yes"/>
      <point x="390" y="754" type="line" smooth="yes"/>
      <point x="392" y="766"/>
      <point x="384" y="776"/>
      <point x="372" y="776" type="curve" smooth="yes"/>
      <point x="193" y="776"/>
      <point x="134" y="632"/>
      <point x="65" y="309" type="curve" smooth="yes"/>
      <point x="-3" y="-14"/>
      <point x="15" y="-159"/>
    </contour>
  </outline>
</glyph>
<glyph name="parenright" format="1">
  <advance width="317"/>
  <unicode hex="0029"/>
  <outline>
    <contour>
      <point x="147" y="776" type="curve" name="hr00" smooth="yes"/>
      <point x="135" y="776"/>
      <point x="123" y="766"/>
      <point x="121" y="754" type="curve" smooth="yes"/>
      <point x="118" y="740" type="line" smooth="yes"/>
      <point x="115" y="728"/>
      <point x="123" y="718"/>
      <point x="132" y="718" type="curve" smooth="yes"/>
      <point x="244" y="718"/>
      <point x="264" y="625"/>
      <point x="197" y="308" type="curve" smooth="yes"/>
      <point x="129" y="-9"/>
      <point x="70" y="-101"/>
      <point x="-42" y="-101" type="curve" smooth="yes"/>
      <point x="-51" y="-101"/>
      <point x="-63" y="-111"/>
      <point x="-66" y="-123" type="curve" smooth="yes"/>
      <point x="-69" y="-137" type="line" smooth="yes"/>
      <point x="-71" y="-149"/>
      <point x="-63" y="-159"/>
      <point x="-51" y="-159" type="curve" smooth="yes"/>
      <point x="128" y="-159"/>
      <point x="187" y="-15"/>
      <point x="256" y="308" type="curve" smooth="yes"/>
      <point x="324" y="631"/>
      <point x="306" y="776"/>
    </contour>
  </outline>
</glyph>
<glyph name="plus" format="1">
  <advance width="622"/>
  <unicode hex="002B"/>
  <outline>
    <contour>
      <point x="393" y="545" type="line" name="hr00" smooth="yes"/>
      <point x="396" y="558"/>
      <point x="389" y="567"/>
      <point x="376" y="567" type="curve" smooth="yes"/>
      <point x="361" y="567" type="line" smooth="yes"/>
      <point x="348" y="567"/>
      <point x="337" y="558"/>
      <point x="334" y="545" type="curve" smooth="yes"/>
      <point x="289" y="332" type="line"/>
      <point x="72" y="332" type="line" smooth="yes"/>
      <point x="59" y="332"/>
      <point x="48" y="323"/>
      <point x="45" y="310" type="curve" smooth="yes"/>
      <point x="42" y="296" type="line" smooth="yes"/>
      <point x="40" y="283"/>
      <point x="47" y="274"/>
      <point x="60" y="274" type="curve" smooth="yes"/>
      <point x="277" y="274" type="line"/>
      <point x="230" y="55" type="line" smooth="yes"/>
      <point x="227" y="42"/>
      <point x="235" y="33"/>
      <point x="248" y="33" type="curve" smooth="yes"/>
      <point x="263" y="33" type="line" smooth="yes"/>
      <point x="276" y="33"/>
      <point x="286" y="42"/>
      <point x="289" y="55" type="curve" smooth="yes"/>
      <point x="336" y="274" type="line"/>
      <point x="554" y="274" type="line" smooth="yes"/>
      <point x="567" y="274"/>
      <point x="578" y="283"/>
      <point x="580" y="296" type="curve" smooth="yes"/>
      <point x="583" y="310" type="line" smooth="yes"/>
      <point x="586" y="323"/>
      <point x="579" y="332"/>
      <point x="566" y="332" type="curve" smooth="yes"/>
      <point x="348" y="332" type="line"/>
    </contour>
  </outline>
</glyph>
<glyph name="hyphen" format="1">
  <advance width="488"/>
  <unicode hex="002D"/>
  <outline>
    <contour>
      <point x="385" y="271" type="line" name="hr00" smooth="yes"/>
      <point x="398" y="271"/>
      <point x="409" y="280"/>
      <point x="412" y="293" type="curve" smooth="yes"/>
      <point x="415" y="307" type="line" smooth="yes"/>
      <point x="418" y="320"/>
      <point x="410" y="329"/>
      <point x="397" y="329" type="curve" smooth="yes"/>
      <point x="102" y="329" type="line" smooth="yes"/>
      <point x="89" y="329"/>
      <point x="79" y="320"/>
      <point x="76" y="307" type="curve" smooth="yes"/>
      <point x="73" y="293" type="line" smooth="yes"/>
      <point x="70" y="280"/>
      <point x="77" y="271"/>
      <point x="90" y="271" type="curve" smooth="yes"/>
    </contour>
  </outline>
</glyph>
<glyph name="slash" format="1">
  <advance width="465"/>
  <unicode hex="002F"/>
  <outline>
    <contour>
      <point x="532" y="757" type="line" name="hr00"/>
      <point x="544" y="775"/>
      <point x="532" y="786"/>
      <point x="519" y="786" type="curve"/>
      <point x="502" y="786" type="line"/>
      <point x="489" y="786"/>
      <point x="480" y="776"/>
      <point x="477" y="771" type="curve"/>
      <point x="-44" y="-55" type="line"/>
      <point x="-56" y="-73"/>
      <point x="-44" y="-84"/>
      <point x="-31" y="-84" type="curve"/>
      <point x="-14" y="-84" type="line"/>
      <point x="-1" y="-84"/>
      <point x="8" y="-74"/>
      <point x="11" y="-69" type="curve"/>
    </contour>
  </outline>
</glyph>
<glyph name="zero" format="1">
  <advance width="614"/>
  <unicode hex="0030"/>
  <outline>
    <contour>
      <point x="388" y="710" type="curve" name="hr00" smooth="yes"/>
      <point x="235" y="710"/>
      <point x="141" y="620"/>
      <point x="97" y="434" type="curve" smooth="yes"/>
      <point x="82" y="374"/>
      <point x="72" y="326"/>
      <point x="61" y="266" type="curve" smooth="yes"/>
      <point x="26" y="77"/>
      <point x="97" y="-10"/>
      <point x="248" y="-10" type="curve" smooth="yes"/>
      <point x="399" y="-10"/>
      <point x="494" y="77"/>
      <point x="539" y="266" type="curve" smooth="yes"/>
      <point x="554" y="326"/>
      <point x="564" y="374"/>
      <point x="575" y="434" type="curve" smooth="yes"/>
      <point x="609" y="620"/>
      <point x="539" y="710"/>
    </contour>
    <contour>
      <point x="388" y="650" type="curve" smooth="yes"/>
      <point x="506" y="650"/>
      <point x="539" y="585"/>
      <point x="511" y="429" type="curve" smooth="yes"/>
      <point x="500" y="369"/>
      <point x="492" y="331"/>
      <point x="477" y="271" type="curve" smooth="yes"/>
      <point x="439" y="115"/>
      <point x="362" y="50"/>
      <point x="248" y="50" type="curve" smooth="yes"/>
      <point x="129" y="50"/>
      <point x="97" y="115"/>
      <point x="125" y="271" type="curve" smooth="yes"/>
      <point x="136" y="331"/>
      <point x="144" y="369"/>
      <point x="159" y="429" type="curve" smooth="yes"/>
      <point x="197" y="585"/>
      <point x="272" y="650"/>
    </contour>
  </outline>
</glyph>
<glyph name="four" format="1">
  <advance width="593"/>
  <unicode hex="0034"/>
  <outline>
    <contour>
      <point x="12" y="202" type="line" name="hr00"/>
      <point x="10" y="189"/>
      <point x="17" y="180"/>
      <point x="30" y="180" type="curve" smooth="yes"/>
      <point x="360" y="180" type="line"/>
      <point x="326" y="22" type="line" smooth="yes"/>
      <point x="323" y="9"/>
      <point x="331" y="0"/>
      <point x="344" y="0" type="curve" smooth="yes"/>
      <point x="363" y="0" type="line" smooth="yes"/>
      <point x="376" y="0"/>
      <point x="386" y="9"/>
      <point x="389" y="22" type="curve" smooth="yes"/>
      <point x="423" y="180" type="line"/>
      <point x="514" y="180" type="line" smooth="yes"/>
      <point x="527" y="180"/>
      <point x="538" y="189"/>
      <point x="540" y="202" type="curve"/>
      <point x="544" y="218" type="line" smooth="yes"/>
      <point x="547" y="231"/>
      <point x="540" y="240"/>
      <point x="527" y="240" type="curve" smooth="yes"/>
      <point x="436" y="240" type="line"/>
      <point x="529" y="678" type="line"/>
      <point x="531" y="691"/>
      <point x="524" y="700"/>
      <point x="511" y="700" type="curve" smooth="yes"/>
      <point x="470" y="700" type="line" smooth="yes"/>
      <point x="454" y="700"/>
      <point x="439" y="693"/>
      <point x="430" y="683" type="curve" smooth="yes"/>
      <point x="29" y="244" type="line" smooth="yes"/>
      <point x="19" y="234"/>
      <point x="19" y="229"/>
      <point x="16" y="218" type="curve" smooth="yes"/>
    </contour>
    <contour>
      <point x="109" y="240" type="line"/>
      <point x="452" y="616" type="line"/>
      <point x="373" y="240" type="line"/>
    </contour>
  </outline>
</glyph>
<glyph name="five" format="1">
  <advance width="571"/>
  <unicode hex="0035"/>
  <outline>
    <contour>
      <point x="439" y="224" type="curve" smooth="yes"/>
      <point x="415" y="111"/>
      <point x="322" y="50"/>
      <point x="220" y="50" type="curve" smooth="yes"/>
      <point x="148" y="50"/>
      <point x="78" y="84"/>
      <point x="86" y="171" type="curve" smooth="yes"/>
      <point x="88" y="191"/>
      <point x="77" y="194"/>
      <point x="66" y="194" type="curve" smooth="yes"/>
      <point x="47" y="194" type="line" smooth="yes"/>
      <point x="35" y="194"/>
      <point x="24" y="187"/>
      <point x="23" y="175" type="curve"/>
      <point x="12" y="78"/>
      <point x="74" y="-10"/>
      <point x="220" y="-10" type="curve" smooth="yes"/>
      <point x="362" y="-10"/>
      <point x="472" y="68"/>
      <point x="504" y="224" type="curve" smooth="yes"/>
      <point x="534" y="370"/>
      <point x="438" y="448"/>
      <point x="305" y="448" type="curve" smooth="yes"/>
      <point x="230" y="448"/>
      <point x="190" y="423"/>
      <point x="174" y="414" type="curve"/>
      <point x="244" y="640" type="line"/>
      <point x="531" y="640" type="line" smooth="yes"/>
      <point x="544" y="640"/>
      <point x="554" y="649"/>
      <point x="557" y="662" type="curve" smooth="yes"/>
      <point x="561" y="678" type="line"/>
      <point x="563" y="691"/>
      <point x="556" y="700"/>
      <point x="543" y="700" type="curve" smooth="yes"/>
      <point x="217" y="700" type="line" smooth="yes"/>
      <point x="204" y="700"/>
      <point x="194" y="691"/>
      <point x="190" y="677" type="curve" smooth="yes"/>
      <point x="91" y="350" type="line" smooth="yes"/>
      <point x="87" y="338"/>
      <point x="96" y="328"/>
      <point x="108" y="328" type="curve" smooth="yes"/>
      <point x="126" y="328" type="line" smooth="yes"/>
      <point x="168" y="328"/>
      <point x="205" y="388"/>
      <point x="305" y="388" type="curve" name="hr01" smooth="yes"/>
      <point x="411" y="388"/>
      <point x="462" y="331"/>
    </contour>
  </outline>
</glyph>
<glyph name="eight" format="1">
  <advance width="615"/>
  <unicode hex="0038"/>
  <outline>
    <contour>
      <point x="37" y="197" type="curve" name="hr00" smooth="yes"/>
      <point x="13" y="71"/>
      <point x="103" y="-10"/>
      <point x="248" y="-10" type="curve" smooth="yes"/>
      <point x="398" y="-10"/>
      <point x="507" y="63"/>
      <point x="535" y="197" type="curve" smooth="yes"/>
      <point x="550" y="268"/>
      <point x="520" y="342"/>
      <point x="459" y="374" type="curve"/>
      <point x="524" y="408"/>
      <point x="566" y="455"/>
      <point x="579" y="526" type="curve" smooth="yes"/>
      <point x="600" y="643"/>
      <point x="508" y="710"/>
      <point x="389" y="710" type="curve" smooth="yes"/>
      <point x="270" y="710"/>
      <point x="155" y="647"/>
      <point x="131" y="526" type="curve" smooth="yes"/>
      <point x="117" y="455"/>
      <point x="148" y="403"/>
      <point x="191" y="374" type="curve"/>
      <point x="115" y="344"/>
      <point x="53" y="282"/>
    </contour>
    <contour>
      <point x="100" y="197" type="curve" smooth="yes"/>
      <point x="118" y="288"/>
      <point x="221" y="343"/>
      <point x="323" y="343" type="curve" smooth="yes"/>
      <point x="426" y="343"/>
      <point x="489" y="288"/>
      <point x="469" y="197" type="curve" smooth="yes"/>
      <point x="450" y="111"/>
      <point x="353" y="50"/>
      <point x="248" y="50" type="curve" smooth="yes"/>
      <point x="145" y="50"/>
      <point x="82" y="105"/>
    </contour>
    <contour>
      <point x="194" y="526" type="curve" smooth="yes"/>
      <point x="212" y="604"/>
      <point x="295" y="650"/>
      <point x="389" y="650" type="curve" smooth="yes"/>
      <point x="483" y="650"/>
      <point x="534" y="604"/>
      <point x="516" y="526" type="curve" smooth="yes"/>
      <point x="498" y="450"/>
      <point x="410" y="405"/>
      <point x="323" y="403" type="curve"/>
      <point x="220" y="403"/>
      <point x="176" y="448"/>
    </contour>
  </outline>
</glyph>
<glyph name="nine" format="1">
  <advance width="568"/>
  <unicode hex="0039"/>
  <outline>
    <contour>
      <point x="553" y="480" type="curve" name="hr00"/>
      <point x="577" y="591"/>
      <point x="519" y="711"/>
      <point x="359" y="711" type="curve" smooth="yes"/>
      <point x="199" y="711"/>
      <point x="102" y="591"/>
      <point x="78" y="480" type="curve" smooth="yes"/>
      <point x="55" y="369"/>
      <point x="113" y="250"/>
      <point x="273" y="250" type="curve" smooth="yes"/>
      <point x="295" y="250"/>
      <point x="298" y="251"/>
      <point x="320" y="255" type="curve"/>
      <point x="117" y="35" type="line" smooth="yes"/>
      <point x="114" y="32"/>
      <point x="111" y="28"/>
      <point x="109" y="22" type="curve" smooth="yes"/>
      <point x="105" y="10"/>
      <point x="112" y="0"/>
      <point x="124" y="0" type="curve" smooth="yes"/>
      <point x="155" y="0" type="line" smooth="yes"/>
      <point x="173" y="0"/>
      <point x="183" y="12"/>
      <point x="190" y="20" type="curve" smooth="yes"/>
      <point x="459" y="312" type="line" smooth="yes"/>
      <point x="489" y="345"/>
      <point x="537" y="401"/>
    </contour>
    <contour>
      <point x="141" y="480" type="curve" smooth="yes"/>
      <point x="164" y="585"/>
      <point x="265" y="651"/>
      <point x="359" y="651" type="curve" smooth="yes"/>
      <point x="453" y="651"/>
      <point x="513" y="585"/>
      <point x="490" y="480" type="curve" smooth="yes"/>
      <point x="468" y="376"/>
      <point x="367" y="310"/>
      <point x="273" y="310" type="curve" smooth="yes"/>
      <point x="179" y="310"/>
      <point x="119" y="376"/>
    </contour>
  </outline>
</glyph>
<glyph name="colon" format="1">
  <advance width="242"/>
  <unicode hex="003A"/>
  <outline>
    <contour>
      <point x="119" y="70" type="line" name="hr00" smooth="yes"/>
      <point x="122" y="83"/>
      <point x="114" y="93"/>
      <point x="101" y="93" type="curve" smooth="yes"/>
      <point x="53" y="93" type="line" smooth="yes"/>
      <point x="40" y="93"/>
      <point x="29" y="83"/>
      <point x="26" y="70" type="curve" smooth="yes"/>
      <point x="16" y="22" type="line" smooth="yes"/>
      <point x="13" y="9"/>
      <point x="21" y="0"/>
      <point x="34" y="0" type="curve" smooth="yes"/>
      <point x="82" y="0" type="line" smooth="yes"/>
      <point x="95" y="0"/>
      <point x="106" y="9"/>
      <point x="109" y="22" type="curve" smooth="yes"/>
    </contour>
    <contour>
      <point x="194" y="420" type="line" smooth="yes"/>
      <point x="197" y="433"/>
      <point x="189" y="443"/>
      <point x="176" y="443" type="curve" smooth="yes"/>
      <point x="128" y="443" type="line" smooth="yes"/>
      <point x="115" y="443"/>
      <point x="104" y="433"/>
      <point x="101" y="420" type="curve" smooth="yes"/>
      <point x="91" y="372" type="line" smooth="yes"/>
      <point x="88" y="359"/>
      <point x="95" y="350"/>
      <point x="108" y="350" type="curve" smooth="yes"/>
      <point x="156" y="350" type="line" smooth="yes"/>
      <point x="169" y="350"/>
      <point x="181" y="359"/>
      <point x="184" y="372" type="curve" smooth="yes"/>
    </contour>
  </outline>
</glyph>
<glyph name="semicolon" format="1">
  <advance width="260"/>
  <unicode hex="003B"/>
  <outline>
    <contour>
      <point x="205" y="420" type="line" name="hr00" smooth="yes"/>
      <point x="208" y="433"/>
      <point x="200" y="443"/>
      <point x="187" y="443" type="curve" smooth="yes"/>
      <point x="139" y="443" type="line" smooth="yes"/>
      <point x="126" y="443"/>
      <point x="115" y="433"/>
      <point x="112" y="420" type="curve" smooth="yes"/>
      <point x="102" y="372" type="line" smooth="yes"/>
      <point x="99" y="359"/>
      <point x="106" y="350"/>
      <point x="119" y="350" type="curve" smooth="yes"/>
      <point x="167" y="350" type="line" smooth="yes"/>
      <point x="180" y="350"/>
      <point x="192" y="359"/>
      <point x="195" y="372" type="curve" smooth="yes"/>
    </contour>
    <contour>
      <point x="-1" y="-54" type="line" smooth="yes"/>
      <point x="-6" y="-66"/>
      <point x="-2" y="-75"/>
      <point x="9" y="-75" type="curve" smooth="yes"/>
      <point x="26" y="-75" type="line" smooth="yes"/>
      <point x="41" y="-75"/>
      <point x="47" y="-67"/>
      <point x="56" y="-54" type="curve"/>
      <point x="123" y="59" type="line" smooth="yes"/>
      <point x="128" y="66"/>
      <point x="130" y="72"/>
      <point x="131" y="77" type="curve" smooth="yes"/>
      <point x="133" y="85"/>
      <point x="128" y="93"/>
      <point x="119" y="93" type="curve" smooth="yes"/>
      <point x="74" y="93" type="line" smooth="yes"/>
      <point x="58" y="93"/>
      <point x="49" y="82"/>
      <point x="44" y="66" type="curve" smooth="yes"/>
    </contour>
  </outline>
</glyph>
<glyph name="less" format="1">
  <advance width="476"/>
  <unicode hex="003C"/>
  <outline>
    <contour>
      <point x="46" y="343" type="line" smooth="yes"/>
      <point x="42" y="325"/>
      <point x="47" y="312"/>
      <point x="65" y="297" type="curve" smooth="yes"/>
      <point x="322" y="89" type="line" smooth="yes"/>
      <point x="338" y="76"/>
      <point x="362" y="79"/>
      <point x="366" y="101" type="curve" smooth="yes"/>
      <point x="368" y="111" type="line" smooth="yes"/>
      <point x="371" y="124"/>
      <point x="367" y="131"/>
      <point x="354" y="142" type="curve" smooth="yes"/>
      <point x="107" y="342" type="line"/>
      <point x="438" y="541" type="line" smooth="yes"/>
      <point x="456" y="552"/>
      <point x="462" y="559"/>
      <point x="465" y="572" type="curve" smooth="yes"/>
      <point x="471" y="597" type="line" smooth="yes"/>
      <point x="475" y="615"/>
      <point x="459" y="625"/>
      <point x="433" y="609" type="curve" smooth="yes"/>
      <point x="87" y="401" type="line" smooth="yes"/>
      <point x="63" y="386"/>
      <point x="53" y="372"/>
      <point x="49" y="355" type="curve" smooth="yes"/>
    </contour>
  </outline>
</glyph>
<glyph name="question" format="1">
  <advance width="502"/>
  <unicode hex="003F"/>
  <outline>
    <contour>
      <point x="213" y="143" type="curve" name="hr00"/>
      <point x="230" y="143" type="line" smooth="yes"/>
      <point x="243" y="143"/>
      <point x="254" y="152"/>
      <point x="257" y="165" type="curve" smooth="yes"/>
      <point x="267" y="213" type="line" smooth="yes"/>
      <point x="292" y="334"/>
      <point x="471" y="383"/>
      <point x="511" y="523" type="curve" smooth="yes"/>
      <point x="538" y="617"/>
      <point x="482" y="710"/>
      <point x="335" y="710" type="curve" smooth="yes"/>
      <point x="208" y="710"/>
      <point x="106" y="622"/>
      <point x="79" y="511" type="curve"/>
      <point x="77" y="499"/>
      <point x="84" y="491"/>
      <point x="96" y="491" type="curve" smooth="yes"/>
      <point x="112" y="491" type="line" smooth="yes"/>
      <point x="122" y="491"/>
      <point x="134" y="495"/>
      <point x="141" y="513" type="curve" smooth="yes"/>
      <point x="180" y="615"/>
      <point x="257" y="652"/>
      <point x="335" y="652" type="curve" smooth="yes"/>
      <point x="413" y="652"/>
      <point x="477" y="605"/>
      <point x="449" y="522" type="curve" smooth="yes"/>
      <point x="414" y="417"/>
      <point x="238" y="366"/>
      <point x="206" y="213" type="curve" smooth="yes"/>
      <point x="196" y="165" type="line" smooth="yes"/>
      <point x="193" y="152"/>
      <point x="200" y="143"/>
    </contour>
    <contour>
      <point x="247" y="60" type="line" smooth="yes"/>
      <point x="250" y="73"/>
      <point x="242" y="83"/>
      <point x="229" y="83" type="curve" smooth="yes"/>
      <point x="191" y="83" type="line" smooth="yes"/>
      <point x="178" y="83"/>
      <point x="167" y="73"/>
      <point x="164" y="60" type="curve" smooth="yes"/>
      <point x="156" y="22" type="line" smooth="yes"/>
      <point x="153" y="9"/>
      <point x="161" y="0"/>
      <point x="174" y="0" type="curve" smooth="yes"/>
      <point x="212" y="0" type="line" smooth="yes"/>
      <point x="225" y="0"/>
      <point x="236" y="9"/>
      <point x="239" y="22" type="curve" smooth="yes"/>
    </contour>
  </outline>
</glyph>
<glyph name="at" format="1">
  <advance width="825"/>
  <unicode hex="0040"/>
  <outline>
    <contour>
      <point x="742" y="225" type="curve" name="hr00" smooth="yes"/>
      <point x="747" y="241"/>
      <point x="762" y="304"/>
      <point x="771" y="358" type="curve" smooth="yes"/>
      <point x="803" y="553"/>
      <point x="704" y="661"/>
      <point x="475" y="661" type="curve" smooth="yes"/>
      <point x="275" y="661"/>
      <point x="140" y="548"/>
      <point x="78" y="358" type="curve" smooth="yes"/>
      <point x="66" y="324"/>
      <point x="45" y="224"/>
      <point x="41" y="187" type="curve"/>
      <point x="21" y="-7"/>
      <point x="122" y="-113"/>
      <point x="323" y="-113" type="curve" smooth="yes"/>
      <point x="479" y="-113"/>
      <point x="564" y="-66"/>
      <point x="627" y="-8" type="curve"/>
      <point x="631" y="-4"/>
      <point x="634" y="0"/>
      <point x="635" y="6" type="curve" smooth="yes"/>
      <point x="637" y="18"/>
      <point x="630" y="27"/>
      <point x="618" y="27" type="curve" smooth="yes"/>
      <point x="592" y="27" type="line"/>
      <point x="580" y="27"/>
      <point x="572" y="19"/>
      <point x="566" y="15" type="curve"/>
      <point x="537" y="-4"/>
      <point x="474" y="-55"/>
      <point x="323" y="-55" type="curve" smooth="yes"/>
      <point x="150" y="-55"/>
      <point x="87" y="35"/>
      <point x="103" y="192" type="curve" smooth="yes"/>
      <point x="107" y="229"/>
      <point x="126" y="319"/>
      <point x="138" y="353" type="curve" smooth="yes"/>
      <point x="190" y="512"/>
      <point x="311" y="603"/>
      <point x="475" y="603" type="curve" smooth="yes"/>
      <point x="684" y="603"/>
      <point x="731" y="513"/>
      <point x="709" y="353" type="curve" smooth="yes"/>
      <point x="701" y="299"/>
      <point x="687" y="247"/>
      <point x="683" y="231" type="curve" smooth="yes"/>
      <point x="675" y="202"/>
      <point x="655" y="137"/>
      <point x="595" y="137" type="curve" smooth="yes"/>
      <point x="547" y="137"/>
      <point x="534" y="167"/>
      <point x="547" y="230" type="curve" smooth="yes"/>
      <point x="594" y="448" type="line" smooth="yes"/>
      <point x="596" y="461"/>
      <point x="589" y="470"/>
      <point x="576" y="470" type="curve" smooth="yes"/>
      <point x="559" y="470" type="line" smooth="yes"/>
      <point x="546" y="470"/>
      <point x="535" y="461"/>
      <point x="533" y="448" type="curve" smooth="yes"/>
      <point x="529" y="429" type="line"/>
      <point x="515" y="451"/>
      <point x="486" y="478"/>
      <point x="430" y="478" type="curve" smooth="yes"/>
      <point x="332" y="478"/>
      <point x="257" y="405"/>
      <point x="229" y="273" type="curve" smooth="yes"/>
      <point x="200" y="141"/>
      <point x="256" y="69"/>
      <point x="355" y="69" type="curve" smooth="yes"/>
      <point x="431" y="69"/>
      <point x="467" y="111"/>
      <point x="489" y="138" type="curve"/>
      <point x="495" y="124"/>
      <point x="516" y="79"/>
      <point x="582" y="79" type="curve" smooth="yes"/>
      <point x="663" y="79"/>
      <point x="716" y="129"/>
    </contour>
    <contour>
      <point x="290" y="273" type="curve" smooth="yes"/>
      <point x="308" y="358"/>
      <point x="354" y="420"/>
      <point x="430" y="420" type="curve" smooth="yes"/>
      <point x="509" y="420"/>
      <point x="514" y="358"/>
      <point x="496" y="273" type="curve" smooth="yes"/>
      <point x="477" y="188"/>
      <point x="434" y="127"/>
      <point x="355" y="127" type="curve" smooth="yes"/>
      <point x="279" y="127"/>
      <point x="274" y="198"/>
    </contour>
  </outline>
</glyph>
<glyph name="A" format="1">
  <advance width="653"/>
  <unicode hex="0041"/>
  <outline>
    <contour>
      <point x="458" y="680" type="line" name="hr00" smooth="yes"/>
      <point x="456" y="693"/>
      <point x="449" y="700"/>
      <point x="433" y="700" type="curve" smooth="yes"/>
      <point x="391" y="700" type="line" smooth="yes"/>
      <point x="375" y="700"/>
      <point x="366" y="693"/>
      <point x="358" y="680" type="curve" smooth="yes"/>
      <point x="-33" y="31" type="line"/>
      <point x="-41" y="17"/>
      <point x="-34" y="0"/>
      <point x="-17" y="0" type="curve" smooth="yes"/>
      <point x="5" y="0" type="line" smooth="yes"/>
      <point x="14" y="0"/>
      <point x="24" y="5"/>
      <point x="30" y="15" type="curve" smooth="yes"/>
      <point x="128" y="175" type="line"/>
      <point x="481" y="175" type="line"/>
      <point x="511" y="21" type="line" smooth="yes"/>
      <point x="514" y="6"/>
      <point x="522" y="0"/>
      <point x="534" y="0" type="curve" smooth="yes"/>
      <point x="555" y="0" type="line" smooth="yes"/>
      <point x="568" y="0"/>
      <point x="577" y="11"/>
      <point x="573" y="31" type="curve"/>
    </contour>
    <contour>
      <point x="401" y="629" type="line"/>
      <point x="471" y="235" type="line"/>
      <point x="164" y="235" type="line"/>
    </contour>
  </outline>
</glyph>
<glyph name="B" format="1">
  <advance width="657"/>
  <unicode hex="0042"/>
  <outline>
    <contour>
      <point x="323" y="0" type="line" name="hr00" smooth="yes"/>
      <point x="479" y="0"/>
      <point x="550" y="97"/>
      <point x="572" y="198" type="curve"/>
      <point x="589" y="282"/>
      <point x="553" y="337"/>
      <point x="506" y="369" type="curve"/>
      <point x="550" y="386"/>
      <point x="606" y="426"/>
      <point x="626" y="521" type="curve" smooth="yes"/>
      <point x="646" y="616"/>
      <point x="588" y="700"/>
      <point x="463" y="700" type="curve" smooth="yes"/>
      <point x="202" y="700" type="line" smooth="yes"/>
      <point x="189" y="700"/>
      <point x="178" y="691"/>
      <point x="175" y="677" type="curve" smooth="yes"/>
      <point x="36" y="22" type="line" smooth="yes"/>
      <point x="33" y="9"/>
      <point x="41" y="0"/>
      <point x="54" y="0" type="curve" smooth="yes"/>
    </contour>
    <contour>
      <point x="448" y="640" type="line" smooth="yes"/>
      <point x="544" y="640"/>
      <point x="580" y="600"/>
      <point x="563" y="521" type="curve" smooth="yes"/>
      <point x="546" y="442"/>
      <point x="475" y="396"/>
      <point x="381" y="396" type="curve" smooth="yes"/>
      <point x="179" y="396" type="line"/>
      <point x="231" y="640" type="line"/>
    </contour>
    <contour>
      <point x="383" y="336" type="line" smooth="yes"/>
      <point x="497" y="336"/>
      <point x="526" y="279"/>
      <point x="509" y="198" type="curve" smooth="yes"/>
      <point x="492" y="118"/>
      <point x="417" y="60"/>
      <point x="323" y="60" type="curve" smooth="yes"/>
      <point x="107" y="60" type="line"/>
      <point x="166" y="336" type="line"/>
    </contour>
  </outline>
</glyph>
<glyph name="E" format="1">
  <advance width="591"/>
  <unicode hex="0045"/>
  <outline>
    <contour>
      <point x="107" y="60" type="line" name="hr00"/>
      <point x="164" y="325" type="line"/>
      <point x="491" y="325" type="line" smooth="yes"/>
      <point x="505" y="325"/>
      <point x="515" y="334"/>
      <point x="518" y="347" type="curve" smooth="yes"/>
      <point x="521" y="362" type="line" smooth="yes"/>
      <point x="524" y="376"/>
      <point x="517" y="385"/>
      <point x="503" y="385" type="curve" smooth="yes"/>
      <point x="176" y="385" type="line"/>
      <point x="231" y="640" type="line"/>
      <point x="580" y="640" type="line" smooth="yes"/>
      <point x="594" y="640"/>
      <point x="604" y="649"/>
      <point x="607" y="662" type="curve" smooth="yes"/>
      <point x="610" y="677" type="line" smooth="yes"/>
      <point x="613" y="691"/>
      <point x="606" y="700"/>
      <point x="592" y="700" type="curve" smooth="yes"/>
      <point x="202" y="700" type="line" smooth="yes"/>
      <point x="189" y="700"/>
      <point x="178" y="691"/>
      <point x="175" y="677" type="curve" smooth="yes"/>
      <point x="36" y="22" type="line" smooth="yes"/>
      <point x="33" y="9"/>
      <point x="41" y="0"/>
      <point x="54" y="0" type="curve" smooth="yes"/>
      <point x="452" y="0" type="line" smooth="yes"/>
      <point x="466" y="0"/>
      <point x="476" y="9"/>
      <point x="479" y="22" type="curve" smooth="yes"/>
      <point x="482" y="37" type="line" smooth="yes"/>
      <point x="485" y="51"/>
      <point x="478" y="60"/>
      <point x="464" y="60" type="curve" smooth="yes"/>
    </contour>
  </outline>
</glyph>
<glyph name="F" format="1">
  <advance width="573"/>
  <unicode hex="0046"/>
  <outline>
    <contour>
      <point x="202" y="700" type="line" name="hr00"/>
      <point x="189" y="700"/>
      <point x="178" y="691"/>
      <point x="175" y="677" type="curve" smooth="yes"/>
      <point x="36" y="22" type="line" smooth="yes"/>
      <point x="33" y="9"/>
      <point x="41" y="0"/>
      <point x="54" y="0" type="curve" smooth="yes"/>
      <point x="72" y="0" type="line" smooth="yes"/>
      <point x="86" y="0"/>
      <point x="96" y="9"/>
      <point x="99" y="22" type="curve" smooth="yes"/>
      <point x="161" y="311" type="line"/>
      <point x="486" y="311" type="line" smooth="yes"/>
      <point x="500" y="311"/>
      <point x="511" y="320"/>
      <point x="513" y="333" type="curve" smooth="yes"/>
      <point x="516" y="348" type="line" smooth="yes"/>
      <point x="519" y="362"/>
      <point x="512" y="371"/>
      <point x="498" y="371" type="curve" smooth="yes"/>
      <point x="173" y="371" type="line"/>
      <point x="231" y="640" type="line"/>
      <point x="576" y="640" type="line" smooth="yes"/>
      <point x="590" y="640"/>
      <point x="600" y="649"/>
      <point x="603" y="662" type="curve" smooth="yes"/>
      <point x="606" y="677" type="line" smooth="yes"/>
      <point x="609" y="691"/>
      <point x="602" y="700"/>
      <point x="588" y="700" type="curve" smooth="yes"/>
    </contour>
  </outline>
</glyph>
<glyph name="G" format="1">
  <advance width="662"/>
  <unicode hex="0047"/>
  <outline>
    <contour>
      <point x="416" y="650" type="curve" name="hr00" smooth="yes"/>
      <point x="545" y="650"/>
      <point x="568" y="587"/>
      <point x="575" y="525" type="curve" smooth="yes"/>
      <point x="577" y="510"/>
      <point x="583" y="505"/>
      <point x="595" y="505" type="curve" smooth="yes"/>
      <point x="619" y="505" type="line" smooth="yes"/>
      <point x="632" y="505"/>
      <point x="639" y="513"/>
      <point x="639" y="525" type="curve" smooth="yes"/>
      <point x="641" y="589"/>
      <point x="606" y="710"/>
      <point x="416" y="710" type="curve" smooth="yes"/>
      <point x="235" y="710"/>
      <point x="136" y="602"/>
      <point x="98" y="445" type="curve" smooth="yes"/>
      <point x="83" y="385"/>
      <point x="68" y="315"/>
      <point x="58" y="255" type="curve" smooth="yes"/>
      <point x="30" y="99"/>
      <point x="103" y="-10"/>
      <point x="275" y="-10" type="curve" smooth="yes"/>
      <point x="457" y="-10"/>
      <point x="562" y="100"/>
      <point x="596" y="260" type="curve"/>
      <point x="614" y="348" type="line" smooth="yes"/>
      <point x="617" y="362"/>
      <point x="610" y="371"/>
      <point x="596" y="371" type="curve" smooth="yes"/>
      <point x="382" y="371" type="line" smooth="yes"/>
      <point x="369" y="371"/>
      <point x="358" y="362"/>
      <point x="355" y="348" type="curve" smooth="yes"/>
      <point x="352" y="334" type="line" smooth="yes"/>
      <point x="350" y="320"/>
      <point x="357" y="311"/>
      <point x="370" y="311" type="curve" smooth="yes"/>
      <point x="544" y="311" type="line"/>
      <point x="533" y="260" type="line" smooth="yes"/>
      <point x="502" y="115"/>
      <point x="393" y="50"/>
      <point x="275" y="50" type="curve" smooth="yes"/>
      <point x="156" y="50"/>
      <point x="95" y="110"/>
      <point x="122" y="260" type="curve" smooth="yes"/>
      <point x="133" y="320"/>
      <point x="145" y="380"/>
      <point x="160" y="440" type="curve" smooth="yes"/>
      <point x="197" y="590"/>
      <point x="302" y="650"/>
    </contour>
  </outline>
</glyph>
<glyph name="H" format="1">
  <advance width="701"/>
  <unicode hex="0048"/>
  <outline>
    <contour>
      <point x="651" y="700" type="line" name="hr00"/>
      <point x="638" y="700"/>
      <point x="627" y="691"/>
      <point x="624" y="677" type="curve" smooth="yes"/>
      <point x="562" y="385" type="line"/>
      <point x="176" y="385" type="line"/>
      <point x="238" y="677" type="line" smooth="yes"/>
      <point x="241" y="691"/>
      <point x="234" y="700"/>
      <point x="220" y="700" type="curve" smooth="yes"/>
      <point x="202" y="700" type="line" smooth="yes"/>
      <point x="189" y="700"/>
      <point x="178" y="691"/>
      <point x="175" y="677" type="curve" smooth="yes"/>
      <point x="36" y="22" type="line" smooth="yes"/>
      <point x="33" y="9"/>
      <point x="41" y="0"/>
      <point x="54" y="0" type="curve" smooth="yes"/>
      <point x="72" y="0" type="line" smooth="yes"/>
      <point x="86" y="0"/>
      <point x="96" y="9"/>
      <point x="99" y="22" type="curve" smooth="yes"/>
      <point x="164" y="325" type="line"/>
      <point x="550" y="325" type="line"/>
      <point x="485" y="22" type="line" smooth="yes"/>
      <point x="482" y="9"/>
      <point x="490" y="0"/>
      <point x="503" y="0" type="curve" smooth="yes"/>
      <point x="521" y="0" type="line" smooth="yes"/>
      <point x="535" y="0"/>
      <point x="545" y="9"/>
      <point x="548" y="22" type="curve" smooth="yes"/>
      <point x="687" y="677" type="line" smooth="yes"/>
      <point x="690" y="691"/>
      <point x="683" y="700"/>
      <point x="669" y="700" type="curve" smooth="yes"/>
    </contour>
  </outline>
</glyph>
<glyph name="I" format="1">
  <advance width="252"/>
  <unicode hex="0049"/>
  <outline>
    <contour>
      <point x="239" y="678" type="line" name="hr00"/>
      <point x="241" y="691"/>
      <point x="234" y="700"/>
      <point x="221" y="700" type="curve" smooth="yes"/>
      <point x="202" y="700" type="line" smooth="yes"/>
      <point x="189" y="700"/>
      <point x="178" y="691"/>
      <point x="176" y="678" type="curve"/>
      <point x="35" y="22" type="line" smooth="yes"/>
      <point x="32" y="9"/>
      <point x="40" y="0"/>
      <point x="53" y="0" type="curve" smooth="yes"/>
      <point x="73" y="0" type="line" smooth="yes"/>
      <point x="86" y="0"/>
      <point x="96" y="9"/>
      <point x="99" y="22" type="curve" smooth="yes"/>
    </contour>
  </outline>
</glyph>
<glyph name="J" format="1">
  <advance width="614"/>
  <unicode hex="004A"/>
  <outline>
    <contour>
      <point x="517" y="255" type="curve" name="hr00"/>
      <point x="606" y="677" type="line" smooth="yes"/>
      <point x="609" y="691"/>
      <point x="602" y="700"/>
      <point x="588" y="700" type="curve" smooth="yes"/>
      <point x="179" y="700" type="line" smooth="yes"/>
      <point x="166" y="700"/>
      <point x="155" y="691"/>
      <point x="153" y="678" type="curve"/>
      <point x="149" y="662" type="line" smooth="yes"/>
      <point x="146" y="649"/>
      <point x="154" y="640"/>
      <point x="167" y="640" type="curve" smooth="yes"/>
      <point x="535" y="640" type="line"/>
      <point x="453" y="256" type="line" smooth="yes"/>
      <point x="427" y="135"/>
      <point x="358" y="50"/>
      <point x="226" y="50" type="curve" smooth="yes"/>
      <point x="129" y="50"/>
      <point x="68" y="91"/>
      <point x="82" y="195" type="curve" smooth="yes"/>
      <point x="84" y="207"/>
      <point x="77" y="216"/>
      <point x="64" y="216" type="curve" smooth="yes"/>
      <point x="42" y="216" type="line" smooth="yes"/>
      <point x="28" y="216"/>
      <point x="21" y="206"/>
      <point x="19" y="194" type="curve" smooth="yes"/>
      <point x="0" y="52"/>
      <point x="106" y="-10"/>
      <point x="226" y="-10" type="curve" smooth="yes"/>
      <point x="403" y="-10"/>
      <point x="484" y="99"/>
    </contour>
  </outline>
</glyph>
<glyph name="K" format="1">
  <advance width="562"/>
  <unicode hex="004B"/>
  <outline>
    <contour>
      <point x="422" y="15" type="line" name="hr00" smooth="yes"/>
      <point x="426" y="10"/>
      <point x="434" y="0"/>
      <point x="455" y="0" type="curve"/>
      <point x="473" y="0" type="line"/>
      <point x="488" y="0"/>
      <point x="501" y="17"/>
      <point x="487" y="34" type="curve" smooth="yes"/>
      <point x="203" y="365" type="line"/>
      <point x="588" y="666" type="line" smooth="yes"/>
      <point x="600" y="675"/>
      <point x="594" y="700"/>
      <point x="574" y="700" type="curve"/>
      <point x="556" y="700" type="line"/>
      <point x="533" y="700"/>
      <point x="521" y="689"/>
      <point x="516" y="685" type="curve"/>
      <point x="186" y="427" type="line"/>
      <point x="238" y="677" type="line"/>
      <point x="241" y="691"/>
      <point x="234" y="700"/>
      <point x="220" y="700" type="curve"/>
      <point x="200" y="700" type="line" smooth="yes"/>
      <point x="187" y="700"/>
      <point x="178" y="691"/>
      <point x="175" y="677" type="curve" smooth="yes"/>
      <point x="36" y="22" type="line"/>
      <point x="33" y="9"/>
      <point x="41" y="0"/>
      <point x="54" y="0" type="curve"/>
      <point x="74" y="0" type="line"/>
      <point x="88" y="0"/>
      <point x="96" y="9"/>
      <point x="99" y="22" type="curve"/>
      <point x="162" y="318" type="line"/>
    </contour>
  </outline>
</glyph>
<glyph name="M" format="1">
  <advance width="783"/>
  <unicode hex="004D"/>
  <outline>
    <contour>
      <point x="360" y="168" type="line" name="hr00"/>
      <point x="344" y="168"/>
      <point x="337" y="175"/>
      <point x="333" y="188" type="curve"/>
      <point x="217" y="574" type="line"/>
      <point x="100" y="22" type="line" smooth="yes"/>
      <point x="97" y="8"/>
      <point x="87" y="0"/>
      <point x="74" y="0" type="curve" smooth="yes"/>
      <point x="55" y="0" type="line" smooth="yes"/>
      <point x="41" y="0"/>
      <point x="33" y="9"/>
      <point x="36" y="22" type="curve" smooth="yes"/>
      <point x="175" y="677" type="line" smooth="yes"/>
      <point x="178" y="691"/>
      <point x="189" y="700"/>
      <point x="203" y="700" type="curve" smooth="yes"/>
      <point x="229" y="700" type="line" smooth="yes"/>
      <point x="242" y="700"/>
      <point x="247" y="691"/>
      <point x="248" y="687" type="curve" smooth="yes"/>
      <point x="381" y="245" type="line"/>
      <point x="703" y="687" type="line"/>
      <point x="706" y="691"/>
      <point x="713" y="700"/>
      <point x="726" y="700" type="curve" smooth="yes"/>
      <point x="751" y="700" type="line" smooth="yes"/>
      <point x="765" y="700"/>
      <point x="772" y="691"/>
      <point x="769" y="677" type="curve" smooth="yes"/>
      <point x="630" y="22" type="line" smooth="yes"/>
      <point x="627" y="9"/>
      <point x="617" y="0"/>
      <point x="603" y="0" type="curve" smooth="yes"/>
      <point x="584" y="0" type="line" smooth="yes"/>
      <point x="571" y="0"/>
      <point x="563" y="9"/>
      <point x="566" y="22" type="curve"/>
      <point x="678" y="548" type="line"/>
      <point x="416" y="188" type="line" smooth="yes"/>
      <point x="407" y="176"/>
      <point x="397" y="168"/>
      <point x="381" y="168" type="curve"/>
    </contour>
  </outline>
</glyph>
<glyph name="O" format="1">
  <advance width="662"/>
  <unicode hex="004F"/>
  <outline>
    <contour>
      <point x="412" y="710" type="curve" name="hr00" smooth="yes"/>
      <point x="254" y="710"/>
      <point x="140" y="620"/>
      <point x="96" y="434" type="curve" smooth="yes"/>
      <point x="81" y="374"/>
      <point x="71" y="326"/>
      <point x="60" y="266" type="curve" smooth="yes"/>
      <point x="25" y="77"/>
      <point x="116" y="-10"/>
      <point x="272" y="-10" type="curve" smooth="yes"/>
      <point x="428" y="-10"/>
      <point x="543" y="77"/>
      <point x="588" y="266" type="curve" smooth="yes"/>
      <point x="603" y="326"/>
      <point x="613" y="374"/>
      <point x="624" y="434" type="curve" smooth="yes"/>
      <point x="658" y="620"/>
      <point x="568" y="710"/>
    </contour>
    <contour>
      <point x="412" y="650" type="curve" smooth="yes"/>
      <point x="535" y="650"/>
      <point x="588" y="585"/>
      <point x="560" y="429" type="curve" smooth="yes"/>
      <point x="549" y="369"/>
      <point x="541" y="331"/>
      <point x="526" y="271" type="curve" smooth="yes"/>
      <point x="488" y="115"/>
      <point x="391" y="50"/>
      <point x="272" y="50" type="curve" smooth="yes"/>
      <point x="148" y="50"/>
      <point x="96" y="115"/>
      <point x="124" y="271" type="curve" smooth="yes"/>
      <point x="135" y="331"/>
      <point x="143" y="369"/>
      <point x="158" y="429" type="curve" smooth="yes"/>
      <point x="196" y="585"/>
      <point x="291" y="650"/>
    </contour>
  </outline>
</glyph>
<glyph name="P" format="1">
  <advance width="629"/>
  <unicode hex="0050"/>
  <outline>
    <contour>
      <point x="202" y="700" type="line" name="hr00" smooth="yes"/>
      <point x="189" y="700"/>
      <point x="178" y="691"/>
      <point x="175" y="677" type="curve" smooth="yes"/>
      <point x="36" y="22" type="line" smooth="yes"/>
      <point x="33" y="9"/>
      <point x="41" y="0"/>
      <point x="54" y="0" type="curve" smooth="yes"/>
      <point x="72" y="0" type="line" smooth="yes"/>
      <point x="86" y="0"/>
      <point x="96" y="9"/>
      <point x="99" y="22" type="curve" smooth="yes"/>
      <point x="155" y="286" type="line"/>
      <point x="363" y="286" type="line" smooth="yes"/>
      <point x="506" y="286"/>
      <point x="602" y="357"/>
      <point x="631" y="493" type="curve" smooth="yes"/>
      <point x="660" y="629"/>
      <point x="587" y="700"/>
      <point x="440" y="700" type="curve" smooth="yes"/>
    </contour>
    <contour>
      <point x="231" y="640" type="line"/>
      <point x="433" y="640" type="line" smooth="yes"/>
      <point x="569" y="640"/>
      <point x="588" y="588"/>
      <point x="568" y="493" type="curve" smooth="yes"/>
      <point x="548" y="398"/>
      <point x="467" y="346"/>
      <point x="358" y="346" type="curve" smooth="yes"/>
      <point x="168" y="346" type="line"/>
    </contour>
  </outline>
</glyph>
<glyph name="Q" format="1">
  <advance width="662"/>
  <unicode hex="0051"/>
  <outline>
    <contour>
      <point x="446" y="-42" type="line"/>
      <point x="452" y="-54"/>
      <point x="461" y="-65"/>
      <point x="476" y="-65" type="curve"/>
      <point x="500" y="-65" type="line"/>
      <point x="516" y="-65"/>
      <point x="525" y="-47"/>
      <point x="517" y="-33" type="curve"/>
      <point x="471" y="57" type="line"/>
      <point x="525" y="102"/>
      <point x="565" y="171"/>
      <point x="588" y="266" type="curve" smooth="yes"/>
      <point x="603" y="326"/>
      <point x="613" y="374"/>
      <point x="624" y="434" type="curve" smooth="yes"/>
      <point x="658" y="620"/>
      <point x="568" y="710"/>
      <point x="412" y="710" type="curve" smooth="yes"/>
      <point x="254" y="710"/>
      <point x="140" y="620"/>
      <point x="96" y="434" type="curve" smooth="yes"/>
      <point x="81" y="374"/>
      <point x="71" y="326"/>
      <point x="60" y="266" type="curve" smooth="yes"/>
      <point x="25" y="77"/>
      <point x="116" y="-10"/>
      <point x="272" y="-10" type="curve" name="hr01" smooth="yes"/>
      <point x="324" y="-10"/>
      <point x="372" y="0"/>
      <point x="414" y="20" type="curve"/>
    </contour>
    <contour>
      <point x="412" y="650" type="curve" smooth="yes"/>
      <point x="535" y="650"/>
      <point x="588" y="585"/>
      <point x="560" y="429" type="curve" smooth="yes"/>
      <point x="549" y="369"/>
      <point x="541" y="331"/>
      <point x="526" y="271" type="curve" smooth="yes"/>
      <point x="488" y="115"/>
      <point x="391" y="50"/>
      <point x="272" y="50" type="curve" smooth="yes"/>
      <point x="148" y="50"/>
      <point x="96" y="115"/>
      <point x="124" y="271" type="curve" smooth="yes"/>
      <point x="135" y="331"/>
      <point x="143" y="369"/>
      <point x="158" y="429" type="curve" smooth="yes"/>
      <point x="196" y="585"/>
      <point x="291" y="650"/>
    </contour>
  </outline>
</glyph>
<glyph name="R" format="1">
  <advance width="641"/>
  <unicode hex="0052"/>
  <outline>
    <contour>
      <point x="471" y="15" type="line" name="hr00" smooth="yes"/>
      <point x="475" y="4"/>
      <point x="485" y="0"/>
      <point x="494" y="0" type="curve" smooth="yes"/>
      <point x="516" y="0" type="line" smooth="yes"/>
      <point x="531" y="0"/>
      <point x="541" y="13"/>
      <point x="533" y="33" type="curve" smooth="yes"/>
      <point x="431" y="305" type="line"/>
      <point x="536" y="330"/>
      <point x="600" y="391"/>
      <point x="622" y="498" type="curve" smooth="yes"/>
      <point x="651" y="634"/>
      <point x="571" y="700"/>
      <point x="435" y="700" type="curve" smooth="yes"/>
      <point x="202" y="700" type="line" smooth="yes"/>
      <point x="189" y="700"/>
      <point x="178" y="691"/>
      <point x="175" y="677" type="curve" smooth="yes"/>
      <point x="36" y="22" type="line"/>
      <point x="33" y="9"/>
      <point x="41" y="0"/>
      <point x="54" y="0" type="curve" smooth="yes"/>
      <point x="72" y="0" type="line" smooth="yes"/>
      <point x="86" y="0"/>
      <point x="96" y="9"/>
      <point x="99" y="22" type="curve" smooth="yes"/>
      <point x="157" y="296" type="line"/>
      <point x="364" y="296" type="line"/>
    </contour>
    <contour>
      <point x="231" y="640" type="line"/>
      <point x="423" y="640" type="line" smooth="yes"/>
      <point x="544" y="640"/>
      <point x="580" y="593"/>
      <point x="559" y="498" type="curve" smooth="yes"/>
      <point x="539" y="403"/>
      <point x="450" y="356"/>
      <point x="344" y="356" type="curve" smooth="yes"/>
      <point x="170" y="356" type="line"/>
    </contour>
  </outline>
</glyph>
<glyph name="S" format="1">
  <advance width="602"/>
  <unicode hex="0053"/>
  <outline>
    <contour>
      <point x="379" y="710" type="curve" name="hr00" smooth="yes"/>
      <point x="231" y="710"/>
      <point x="141" y="639"/>
      <point x="119" y="538" type="curve" smooth="yes"/>
      <point x="96" y="428"/>
      <point x="147" y="379"/>
      <point x="280" y="333" type="curve" smooth="yes"/>
      <point x="419" y="285"/>
      <point x="483" y="260"/>
      <point x="466" y="181" type="curve" smooth="yes"/>
      <point x="449" y="101"/>
      <point x="374" y="50"/>
      <point x="244" y="50" type="curve" smooth="yes"/>
      <point x="124" y="50"/>
      <point x="79" y="114"/>
      <point x="83" y="170" type="curve"/>
      <point x="83" y="181"/>
      <point x="78" y="190"/>
      <point x="65" y="190" type="curve" smooth="yes"/>
      <point x="41" y="190" type="line" smooth="yes"/>
      <point x="29" y="190"/>
      <point x="21" y="181"/>
      <point x="20" y="170" type="curve" smooth="yes"/>
      <point x="9" y="75"/>
      <point x="82" y="-10"/>
      <point x="244" y="-10" type="curve" smooth="yes"/>
      <point x="399" y="-10"/>
      <point x="501" y="52"/>
      <point x="527" y="173" type="curve" smooth="yes"/>
      <point x="550" y="283"/>
      <point x="489" y="329"/>
      <point x="350" y="377" type="curve" smooth="yes"/>
      <point x="216" y="423"/>
      <point x="162" y="450"/>
      <point x="179" y="530" type="curve" smooth="yes"/>
      <point x="197" y="612"/>
      <point x="280" y="650"/>
      <point x="379" y="650" type="curve" smooth="yes"/>
      <point x="467" y="650"/>
      <point x="527" y="601"/>
      <point x="521" y="535" type="curve" smooth="yes"/>
      <point x="520" y="519"/>
      <point x="532" y="515"/>
      <point x="539" y="515" type="curve" smooth="yes"/>
      <point x="563" y="515" type="line" smooth="yes"/>
      <point x="577" y="515"/>
      <point x="582" y="525"/>
      <point x="584" y="535" type="curve" smooth="yes"/>
      <point x="598" y="612"/>
      <point x="537" y="710"/>
    </contour>
  </outline>
</glyph>
<glyph name="U" format="1">
  <advance width="691"/>
  <unicode hex="0055"/>
  <outline>
    <contour>
      <point x="534" y="268" type="line" name="hr00" smooth="yes"/>
      <point x="502" y="118"/>
      <point x="415" y="50"/>
      <point x="286" y="50" type="curve"/>
      <point x="151" y="50"/>
      <point x="113" y="118"/>
      <point x="145" y="268" type="curve" smooth="yes"/>
      <point x="232" y="677" type="line" smooth="yes"/>
      <point x="235" y="691"/>
      <point x="228" y="700"/>
      <point x="214" y="700" type="curve" smooth="yes"/>
      <point x="196" y="700" type="line" smooth="yes"/>
      <point x="183" y="700"/>
      <point x="172" y="691"/>
      <point x="169" y="677" type="curve" smooth="yes"/>
      <point x="83" y="271" type="line"/>
      <point x="42" y="77"/>
      <point x="114" y="-10"/>
      <point x="286" y="-10" type="curve"/>
      <point x="459" y="-10"/>
      <point x="557" y="77"/>
      <point x="598" y="271" type="curve" smooth="yes"/>
      <point x="684" y="677" type="line" smooth="yes"/>
      <point x="687" y="691"/>
      <point x="680" y="700"/>
      <point x="667" y="700" type="curve" smooth="yes"/>
      <point x="649" y="700" type="line" smooth="yes"/>
      <point x="635" y="700"/>
      <point x="624" y="691"/>
      <point x="621" y="677" type="curve" smooth="yes"/>
    </contour>
  </outline>
</glyph>
<glyph name="V" format="1">
  <advance width="639"/>
  <unicode hex="0056"/>
  <outline>
    <contour>
      <point x="267" y="73" type="line" name="hr00"/>
      <point x="178" y="685" type="line"/>
      <point x="177" y="693"/>
      <point x="172" y="700"/>
      <point x="159" y="700" type="curve" smooth="yes"/>
      <point x="137" y="700" type="line"/>
      <point x="124" y="700"/>
      <point x="115" y="692"/>
      <point x="117" y="676" type="curve"/>
      <point x="212" y="24" type="line" smooth="yes"/>
      <point x="214" y="8"/>
      <point x="223" y="0"/>
      <point x="241" y="0" type="curve" smooth="yes"/>
      <point x="272" y="0" type="line" smooth="yes"/>
      <point x="290" y="0"/>
      <point x="301" y="8"/>
      <point x="311" y="24" type="curve"/>
      <point x="679" y="668" type="line" smooth="yes"/>
      <point x="687" y="682"/>
      <point x="683" y="700"/>
      <point x="667" y="700" type="curve" smooth="yes"/>
      <point x="637" y="700" type="line" smooth="yes"/>
      <point x="624" y="700"/>
      <point x="619" y="691"/>
      <point x="616" y="685" type="curve"/>
    </contour>
  </outline>
</glyph>
<glyph name="W" format="1">
  <advance width="776"/>
  <unicode hex="0057"/>
  <outline>
    <contour>
      <point x="473" y="522" type="line" name="hr00" smooth="yes"/>
      <point x="472" y="534"/>
      <point x="465" y="545"/>
      <point x="447" y="545" type="curve" smooth="yes"/>
      <point x="426" y="545" type="line" smooth="yes"/>
      <point x="408" y="545"/>
      <point x="396" y="534"/>
      <point x="390" y="522" type="curve" smooth="yes"/>
      <point x="183" y="126" type="line"/>
      <point x="183" y="680" type="line" smooth="yes"/>
      <point x="183" y="690"/>
      <point x="176" y="700"/>
      <point x="163" y="700" type="curve" smooth="yes"/>
      <point x="144" y="700" type="line" smooth="yes"/>
      <point x="131" y="700"/>
      <point x="123" y="691"/>
      <point x="123" y="680" type="curve" smooth="yes"/>
      <point x="123" y="24" type="line" smooth="yes"/>
      <point x="123" y="7"/>
      <point x="130" y="0"/>
      <point x="146" y="0" type="curve" smooth="yes"/>
      <point x="164" y="0" type="line" smooth="yes"/>
      <point x="180" y="0"/>
      <point x="191" y="8"/>
      <point x="200" y="24" type="curve" smooth="yes"/>
      <point x="419" y="444" type="line"/>
      <point x="462" y="24" type="line"/>
      <point x="463" y="8"/>
      <point x="472" y="0"/>
      <point x="488" y="0" type="curve" smooth="yes"/>
      <point x="509" y="0" type="line" smooth="yes"/>
      <point x="525" y="0"/>
      <point x="534" y="7"/>
      <point x="542" y="24" type="curve"/>
      <point x="814" y="674" type="line" smooth="yes"/>
      <point x="820" y="688"/>
      <point x="819" y="700"/>
      <point x="800" y="700" type="curve" smooth="yes"/>
      <point x="778" y="700" type="line" smooth="yes"/>
      <point x="765" y="700"/>
      <point x="757" y="695"/>
      <point x="753" y="685" type="curve" smooth="yes"/>
      <point x="515" y="116" type="line"/>
    </contour>
  </outline>
</glyph>
<glyph name="bracketleft" format="1">
  <advance width="301"/>
  <unicode hex="005B"/>
  <outline>
    <contour>
      <point x="156" y="-159" type="line" name="hr00" smooth="yes"/>
      <point x="169" y="-159"/>
      <point x="180" y="-150"/>
      <point x="182" y="-137" type="curve" smooth="yes"/>
      <point x="185" y="-123" type="line" smooth="yes"/>
      <point x="188" y="-110"/>
      <point x="181" y="-101"/>
      <point x="168" y="-101" type="curve" smooth="yes"/>
      <point x="56" y="-101" type="line"/>
      <point x="230" y="718" type="line"/>
      <point x="342" y="718" type="line" smooth="yes"/>
      <point x="355" y="718"/>
      <point x="366" y="727"/>
      <point x="369" y="740" type="curve" smooth="yes"/>
      <point x="372" y="754" type="line" smooth="yes"/>
      <point x="375" y="767"/>
      <point x="367" y="776"/>
      <point x="354" y="776" type="curve" smooth="yes"/>
      <point x="202" y="776" type="line" smooth="yes"/>
      <point x="189" y="776"/>
      <point x="179" y="767"/>
      <point x="176" y="754" type="curve" smooth="yes"/>
      <point x="-14" y="-137" type="line" smooth="yes"/>
      <point x="-16" y="-150"/>
      <point x="-9" y="-159"/>
      <point x="4" y="-159" type="curve" smooth="yes"/>
    </contour>
  </outline>
</glyph>
<glyph name="backslash" format="1">
  <advance width="461"/>
  <unicode hex="005C"/>
  <outline>
    <contour>
      <point x="296" y="-62" type="line" name="hr00"/>
      <point x="299" y="-75"/>
      <point x="306" y="-84"/>
      <point x="322" y="-84" type="curve" smooth="yes"/>
      <point x="339" y="-84" type="line" smooth="yes"/>
      <point x="352" y="-84"/>
      <point x="360" y="-75"/>
      <point x="357" y="-62" type="curve" smooth="yes"/>
      <point x="187" y="764" type="line" smooth="yes"/>
      <point x="184" y="777"/>
      <point x="177" y="786"/>
      <point x="161" y="786" type="curve" smooth="yes"/>
      <point x="144" y="786" type="line" smooth="yes"/>
      <point x="131" y="786"/>
      <point x="123" y="777"/>
      <point x="126" y="764" type="curve" smooth="yes"/>
    </contour>
  </outline>
</glyph>
<glyph name="bracketright" format="1">
  <advance width="300"/>
  <unicode hex="005D"/>
  <outline>
    <contour>
      <point x="150" y="776" type="line" name="hr00" smooth="yes"/>
      <point x="137" y="776"/>
      <point x="127" y="767"/>
      <point x="124" y="754" type="curve" smooth="yes"/>
      <point x="121" y="740" type="line" smooth="yes"/>
      <point x="118" y="727"/>
      <point x="125" y="718"/>
      <point x="138" y="718" type="curve" smooth="yes"/>
      <point x="250" y="718" type="line"/>
      <point x="76" y="-101" type="line"/>
      <point x="-36" y="-101" type="line" smooth="yes"/>
      <point x="-49" y="-101"/>
      <point x="-60" y="-110"/>
      <point x="-63" y="-123" type="curve" smooth="yes"/>
      <point x="-66" y="-137" type="line" smooth="yes"/>
      <point x="-67" y="-150"/>
      <point x="-61" y="-159"/>
      <point x="-48" y="-159" type="curve" smooth="yes"/>
      <point x="103" y="-159" type="line" smooth="yes"/>
      <point x="116" y="-159"/>
      <point x="127" y="-150"/>
      <point x="129" y="-137" type="curve" smooth="yes"/>
      <point x="319" y="754" type="line" smooth="yes"/>
      <point x="322" y="767"/>
      <point x="314" y="776"/>
      <point x="301" y="776" type="curve" smooth="yes"/>
    </contour>
  </outline>
</glyph>
<glyph name="underscore" format="1">
  <advance width="749"/>
  <unicode hex="005F"/>
  <outline>
    <contour>
      <point x="599" y="-28" type="line" name="hr00"/>
      <point x="612" y="-28"/>
      <point x="622" y="-19"/>
      <point x="625" y="-6" type="curve" smooth="yes"/>
      <point x="628" y="8" type="line" smooth="yes"/>
      <point x="631" y="21"/>
      <point x="624" y="30"/>
      <point x="611" y="30" type="curve" smooth="yes"/>
      <point x="36" y="30" type="line" smooth="yes"/>
      <point x="23" y="30"/>
      <point x="12" y="21"/>
      <point x="9" y="8" type="curve" smooth="yes"/>
      <point x="6" y="-6" type="line" smooth="yes"/>
      <point x="3" y="-19"/>
      <point x="11" y="-28"/>
      <point x="24" y="-28" type="curve" smooth="yes"/>
    </contour>
  </outline>
</glyph>
<glyph name="grave" format="1">
  <advance width="182"/>
  <unicode hex="0060"/>
  <outline>
    <contour>
      <point x="128" y="707" type="line" name="hr00"/>
      <point x="120" y="720"/>
      <point x="115" y="725"/>
      <point x="95" y="725" type="curve" smooth="yes"/>
      <point x="52" y="725" type="line" smooth="yes"/>
      <point x="36" y="725"/>
      <point x="23" y="704"/>
      <point x="36" y="691" type="curve" smooth="yes"/>
      <point x="123" y="605" type="line" smooth="yes"/>
      <point x="132" y="596"/>
      <point x="139" y="595"/>
      <point x="152" y="595" type="curve"/>
      <point x="162" y="595" type="line" smooth="yes"/>
      <point x="179" y="595"/>
      <point x="186" y="613"/>
      <point x="178" y="626" type="curve" smooth="yes"/>
    </contour>
  </outline>
</glyph>
<glyph name="b" format="1">
  <advance width="580"/>
  <unicode hex="0062"/>
  <outline>
    <contour>
      <point x="351" y="530" type="curve" smooth="yes"/>
      <point x="268" y="530"/>
      <point x="218" y="495"/>
      <point x="176" y="451" type="curve"/>
      <point x="226" y="688" type="line" smooth="yes"/>
      <point x="229" y="701"/>
      <point x="222" y="710"/>
      <point x="209" y="710" type="curve" smooth="yes"/>
      <point x="192" y="710" type="line" smooth="yes"/>
      <point x="179" y="710"/>
      <point x="168" y="701"/>
      <point x="165" y="688" type="curve" smooth="yes"/>
      <point x="24" y="22" type="line" smooth="yes"/>
      <point x="21" y="9"/>
      <point x="28" y="0"/>
      <point x="41" y="0" type="curve" smooth="yes"/>
      <point x="58" y="0" type="line" smooth="yes"/>
      <point x="71" y="0"/>
      <point x="82" y="9"/>
      <point x="85" y="22" type="curve" smooth="yes"/>
      <point x="95" y="69" type="line"/>
      <point x="118" y="24"/>
      <point x="166" y="-10"/>
      <point x="249" y="-10" type="curve" name="hr01" smooth="yes"/>
      <point x="405" y="-10"/>
      <point x="481" y="110"/>
      <point x="510" y="227" type="curve" smooth="yes"/>
      <point x="515" y="247"/>
      <point x="521" y="273"/>
      <point x="524" y="293" type="curve" smooth="yes"/>
      <point x="542" y="410"/>
      <point x="507" y="530"/>
    </contour>
    <contour>
      <point x="128" y="224" type="curve" smooth="yes"/>
      <point x="131" y="244"/>
      <point x="139" y="282"/>
      <point x="144" y="302" type="curve" smooth="yes"/>
      <point x="163" y="382"/>
      <point x="240" y="472"/>
      <point x="351" y="472" type="curve" smooth="yes"/>
      <point x="468" y="472"/>
      <point x="477" y="384"/>
      <point x="462" y="288" type="curve" smooth="yes"/>
      <point x="459" y="268"/>
      <point x="456" y="252"/>
      <point x="450" y="232" type="curve" smooth="yes"/>
      <point x="422" y="137"/>
      <point x="363" y="48"/>
      <point x="249" y="48" type="curve" smooth="yes"/>
      <point x="135" y="48"/>
      <point x="113" y="142"/>
    </contour>
  </outline>
</glyph>
<glyph name="d" format="1">
  <advance width="579"/>
  <unicode hex="0064"/>
  <outline>
    <contour>
      <point x="314" y="530" type="curve" smooth="yes"/>
      <point x="153" y="530"/>
      <point x="82" y="404"/>
      <point x="52" y="288" type="curve" smooth="yes"/>
      <point x="47" y="268"/>
      <point x="43" y="252"/>
      <point x="40" y="232" type="curve" smooth="yes"/>
      <point x="22" y="115"/>
      <point x="56" y="-10"/>
      <point x="211" y="-10" type="curve" smooth="yes"/>
      <point x="299" y="-10"/>
      <point x="345" y="24"/>
      <point x="387" y="69" type="curve"/>
      <point x="377" y="22" type="line" smooth="yes"/>
      <point x="374" y="9"/>
      <point x="382" y="0"/>
      <point x="395" y="0" type="curve" name="hr01" smooth="yes"/>
      <point x="412" y="0" type="line" smooth="yes"/>
      <point x="425" y="0"/>
      <point x="435" y="9"/>
      <point x="438" y="22" type="curve" smooth="yes"/>
      <point x="580" y="688" type="line" smooth="yes"/>
      <point x="583" y="701"/>
      <point x="575" y="710"/>
      <point x="562" y="710" type="curve" smooth="yes"/>
      <point x="545" y="710" type="line" smooth="yes"/>
      <point x="532" y="710"/>
      <point x="522" y="701"/>
      <point x="519" y="688" type="curve" smooth="yes"/>
      <point x="468" y="451" type="line"/>
      <point x="445" y="495"/>
      <point x="402" y="530"/>
    </contour>
    <contour>
      <point x="420" y="224" type="curve" smooth="yes"/>
      <point x="400" y="142"/>
      <point x="325" y="48"/>
      <point x="211" y="48" type="curve" name="hr02" smooth="yes"/>
      <point x="102" y="48"/>
      <point x="87" y="136"/>
      <point x="102" y="232" type="curve" smooth="yes"/>
      <point x="105" y="252"/>
      <point x="108" y="268"/>
      <point x="114" y="288" type="curve" smooth="yes"/>
      <point x="142" y="383"/>
      <point x="205" y="472"/>
      <point x="314" y="472" type="curve" smooth="yes"/>
      <point x="425" y="472"/>
      <point x="452" y="382"/>
      <point x="437" y="302" type="curve" smooth="yes"/>
      <point x="433" y="282"/>
      <point x="425" y="244"/>
    </contour>
  </outline>
</glyph>
<glyph name="e" format="1">
  <advance width="544"/>
  <unicode hex="0065"/>
  <outline>
    <contour>
      <point x="55" y="300" type="curve" name="hr00" smooth="yes"/>
      <point x="50" y="280"/>
      <point x="41" y="240"/>
      <point x="38" y="220" type="curve" smooth="yes"/>
      <point x="18" y="84"/>
      <point x="94" y="-10"/>
      <point x="215" y="-10" type="curve" smooth="yes"/>
      <point x="361" y="-10"/>
      <point x="431" y="73"/>
      <point x="441" y="111" type="curve"/>
      <point x="445" y="123"/>
      <point x="436" y="131"/>
      <point x="424" y="131" type="curve" smooth="yes"/>
      <point x="408" y="131" type="line" smooth="yes"/>
      <point x="393" y="131"/>
      <point x="390" y="130"/>
      <point x="375" y="113" type="curve" smooth="yes"/>
      <point x="360" y="97"/>
      <point x="320" y="48"/>
      <point x="215" y="48" type="curve" smooth="yes"/>
      <point x="103" y="48"/>
      <point x="85" y="136"/>
      <point x="103" y="235" type="curve"/>
      <point x="459" y="235" type="line" smooth="yes"/>
      <point x="472" y="235"/>
      <point x="484" y="244"/>
      <point x="487" y="257" type="curve" smooth="yes"/>
      <point x="490" y="272" type="line" smooth="yes"/>
      <point x="522" y="432"/>
      <point x="462" y="530"/>
      <point x="318" y="530" type="curve" smooth="yes"/>
      <point x="193" y="530"/>
      <point x="90" y="436"/>
    </contour>
    <contour>
      <point x="115" y="291" type="line"/>
      <point x="136" y="391"/>
      <point x="218" y="472"/>
      <point x="318" y="472" type="curve" smooth="yes"/>
      <point x="423" y="472"/>
      <point x="457" y="393"/>
      <point x="433" y="291" type="curve"/>
    </contour>
  </outline>
</glyph>
<glyph name="f" format="1">
  <advance width="356"/>
  <unicode hex="0066"/>
  <outline>
    <contour>
      <point x="247" y="572" type="line" name="hr00" smooth="yes"/>
      <point x="262" y="643"/>
      <point x="297" y="682"/>
      <point x="367" y="682" type="curve" smooth="yes"/>
      <point x="412" y="682" type="line" smooth="yes"/>
      <point x="425" y="682"/>
      <point x="436" y="691"/>
      <point x="439" y="704" type="curve" smooth="yes"/>
      <point x="442" y="718" type="line" smooth="yes"/>
      <point x="445" y="731"/>
      <point x="438" y="740"/>
      <point x="425" y="740" type="curve" smooth="yes"/>
      <point x="367" y="740" type="line" smooth="yes"/>
      <point x="263" y="740"/>
      <point x="206" y="666"/>
      <point x="187" y="577" type="curve" smooth="yes"/>
      <point x="175" y="520" type="line"/>
      <point x="86" y="520" type="line" smooth="yes"/>
      <point x="73" y="520"/>
      <point x="62" y="511"/>
      <point x="59" y="498" type="curve" smooth="yes"/>
      <point x="56" y="484" type="line" smooth="yes"/>
      <point x="54" y="471"/>
      <point x="61" y="462"/>
      <point x="74" y="462" type="curve" smooth="yes"/>
      <point x="163" y="462" type="line"/>
      <point x="69" y="22" type="line" smooth="yes"/>
      <point x="66" y="9"/>
      <point x="74" y="0"/>
      <point x="87" y="0" type="curve" smooth="yes"/>
      <point x="104" y="0" type="line" smooth="yes"/>
      <point x="117" y="0"/>
      <point x="127" y="9"/>
      <point x="130" y="22" type="curve" smooth="yes"/>
      <point x="224" y="462" type="line"/>
      <point x="356" y="462" type="line" smooth="yes"/>
      <point x="369" y="462"/>
      <point x="380" y="471"/>
      <point x="382" y="484" type="curve" smooth="yes"/>
      <point x="385" y="498" type="line" smooth="yes"/>
      <point x="388" y="511"/>
      <point x="381" y="520"/>
      <point x="368" y="520" type="curve" smooth="yes"/>
      <point x="236" y="520" type="line"/>
    </contour>
  </outline>
</glyph>
<glyph name="g" format="1">
  <advance width="579"/>
  <unicode hex="0067"/>
  <outline>
    <contour>
      <point x="166" y="-162" type="curve" smooth="yes"/>
      <point x="62" y="-162"/>
      <point x="46" y="-103"/>
      <point x="45" y="-71" type="curve" smooth="yes"/>
      <point x="44" y="-53"/>
      <point x="36" y="-50"/>
      <point x="26" y="-50" type="curve" smooth="yes"/>
      <point x="7" y="-50" type="line" smooth="yes"/>
      <point x="-5" y="-50"/>
      <point x="-13" y="-60"/>
      <point x="-15" y="-73" type="curve" smooth="yes"/>
      <point x="-22" y="-113"/>
      <point x="1" y="-220"/>
      <point x="166" y="-220" type="curve" smooth="yes"/>
      <point x="359" y="-220"/>
      <point x="409" y="-118"/>
      <point x="436" y="10" type="curve" smooth="yes"/>
      <point x="539" y="497" type="line" smooth="yes"/>
      <point x="542" y="510"/>
      <point x="534" y="520"/>
      <point x="521" y="520" type="curve" smooth="yes"/>
      <point x="505" y="520" type="line" smooth="yes"/>
      <point x="492" y="520"/>
      <point x="481" y="510"/>
      <point x="478" y="497" type="curve" smooth="yes"/>
      <point x="468" y="451" type="line"/>
      <point x="445" y="495"/>
      <point x="396" y="530"/>
      <point x="314" y="530" type="curve" name="hr01" smooth="yes"/>
      <point x="155" y="530"/>
      <point x="83" y="404"/>
      <point x="52" y="288" type="curve" smooth="yes"/>
      <point x="47" y="268"/>
      <point x="43" y="252"/>
      <point x="40" y="232" type="curve" smooth="yes"/>
      <point x="20" y="115"/>
      <point x="52" y="-10"/>
      <point x="212" y="-10" type="curve" smooth="yes"/>
      <point x="294" y="-10"/>
      <point x="345" y="24"/>
      <point x="387" y="69" type="curve"/>
      <point x="373" y="0" type="line" smooth="yes"/>
      <point x="347" y="-127"/>
      <point x="260" y="-162"/>
    </contour>
    <contour>
      <point x="435" y="296" type="curve" smooth="yes"/>
      <point x="432" y="276"/>
      <point x="425" y="244"/>
      <point x="420" y="224" type="curve" smooth="yes"/>
      <point x="399" y="142"/>
      <point x="324" y="48"/>
      <point x="212" y="48" type="curve" smooth="yes"/>
      <point x="98" y="48"/>
      <point x="85" y="136"/>
      <point x="101" y="232" type="curve" smooth="yes"/>
      <point x="104" y="252"/>
      <point x="108" y="268"/>
      <point x="113" y="288" type="curve" smooth="yes"/>
      <point x="139" y="383"/>
      <point x="205" y="472"/>
      <point x="314" y="472" type="curve" smooth="yes"/>
      <point x="428" y="472"/>
      <point x="449" y="378"/>
    </contour>
  </outline>
</glyph>
<glyph name="h" format="1">
  <advance width="591"/>
  <unicode hex="0068"/>
  <outline>
    <contour>
      <point x="226" y="688" type="line" name="hr00" smooth="yes"/>
      <point x="229" y="701"/>
      <point x="221" y="710"/>
      <point x="208" y="710" type="curve" smooth="yes"/>
      <point x="191" y="710" type="line" smooth="yes"/>
      <point x="178" y="710"/>
      <point x="168" y="701"/>
      <point x="165" y="688" type="curve" smooth="yes"/>
      <point x="23" y="22" type="line" smooth="yes"/>
      <point x="20" y="9"/>
      <point x="28" y="0"/>
      <point x="41" y="0" type="curve" smooth="yes"/>
      <point x="58" y="0" type="line" smooth="yes"/>
      <point x="71" y="0"/>
      <point x="81" y="9"/>
      <point x="84" y="22" type="curve" smooth="yes"/>
      <point x="143" y="301" type="line" smooth="yes"/>
      <point x="166" y="408"/>
      <point x="254" y="472"/>
      <point x="349" y="472" type="curve" smooth="yes"/>
      <point x="449" y="472"/>
      <point x="477" y="407"/>
      <point x="454" y="301" type="curve" smooth="yes"/>
      <point x="395" y="22" type="line" smooth="yes"/>
      <point x="392" y="9"/>
      <point x="400" y="0"/>
      <point x="413" y="0" type="curve" smooth="yes"/>
      <point x="430" y="0" type="line" smooth="yes"/>
      <point x="443" y="0"/>
      <point x="453" y="9"/>
      <point x="456" y="22" type="curve" smooth="yes"/>
      <point x="517" y="306" type="line" smooth="yes"/>
      <point x="544" y="433"/>
      <point x="490" y="530"/>
      <point x="349" y="530" type="curve" smooth="yes"/>
      <point x="266" y="530"/>
      <point x="216" y="498"/>
      <point x="175" y="451" type="curve"/>
    </contour>
  </outline>
</glyph>
<glyph name="i" format="1">
  <advance width="224"/>
  <unicode hex="0069"/>
  <outline>
    <contour>
      <point x="237" y="687" type="line" name="hr00"/>
      <point x="239" y="700"/>
      <point x="231" y="710"/>
      <point x="218" y="710" type="curve" smooth="yes"/>
      <point x="180" y="710" type="line" smooth="yes"/>
      <point x="167" y="710"/>
      <point x="156" y="700"/>
      <point x="154" y="687" type="curve"/>
      <point x="145" y="649" type="line"/>
      <point x="143" y="636"/>
      <point x="150" y="627"/>
      <point x="163" y="627" type="curve" smooth="yes"/>
      <point x="201" y="627" type="line" smooth="yes"/>
      <point x="214" y="627"/>
      <point x="226" y="636"/>
      <point x="228" y="649" type="curve"/>
    </contour>
    <contour>
      <point x="185" y="498" type="line" smooth="yes"/>
      <point x="188" y="511"/>
      <point x="181" y="520"/>
      <point x="168" y="520" type="curve" smooth="yes"/>
      <point x="151" y="520" type="line" smooth="yes"/>
      <point x="138" y="520"/>
      <point x="127" y="511"/>
      <point x="124" y="498" type="curve" smooth="yes"/>
      <point x="23" y="22" type="line" smooth="yes"/>
      <point x="20" y="9"/>
      <point x="28" y="0"/>
      <point x="41" y="0" type="curve" smooth="yes"/>
      <point x="58" y="0" type="line" smooth="yes"/>
      <point x="71" y="0"/>
      <point x="81" y="9"/>
      <point x="84" y="22" type="curve" smooth="yes"/>
    </contour>
  </outline>
</glyph>
<glyph name="j" format="1">
  <advance width="234"/>
  <unicode hex="006A"/>
  <outline>
    <contour>
      <point x="23" y="-22" type="line" name="hr00" smooth="yes"/>
      <point x="10" y="-83"/>
      <point x="-20" y="-132"/>
      <point x="-85" y="-132" type="curve" smooth="yes"/>
      <point x="-94" y="-132" type="line" smooth="yes"/>
      <point x="-107" y="-132"/>
      <point x="-117" y="-141"/>
      <point x="-120" y="-154" type="curve" smooth="yes"/>
      <point x="-123" y="-168" type="line" smooth="yes"/>
      <point x="-126" y="-181"/>
      <point x="-119" y="-190"/>
      <point x="-106" y="-190" type="curve" smooth="yes"/>
      <point x="-97" y="-190" type="line" smooth="yes"/>
      <point x="24" y="-190"/>
      <point x="64" y="-116"/>
      <point x="84" y="-22" type="curve" smooth="yes"/>
      <point x="194" y="498" type="line" smooth="yes"/>
      <point x="197" y="511"/>
      <point x="190" y="520"/>
      <point x="177" y="520" type="curve" smooth="yes"/>
      <point x="160" y="520" type="line" smooth="yes"/>
      <point x="147" y="520"/>
      <point x="136" y="511"/>
      <point x="133" y="498" type="curve" smooth="yes"/>
    </contour>
    <contour>
      <point x="246" y="687" type="line"/>
      <point x="248" y="700"/>
      <point x="240" y="710"/>
      <point x="227" y="710" type="curve" smooth="yes"/>
      <point x="189" y="710" type="line" smooth="yes"/>
      <point x="176" y="710"/>
      <point x="165" y="700"/>
      <point x="163" y="687" type="curve"/>
      <point x="154" y="649" type="line"/>
      <point x="152" y="636"/>
      <point x="159" y="627"/>
      <point x="172" y="627" type="curve" smooth="yes"/>
      <point x="210" y="627" type="line" smooth="yes"/>
      <point x="223" y="627"/>
      <point x="235" y="636"/>
      <point x="237" y="649" type="curve"/>
    </contour>
  </outline>
</glyph>
<glyph name="k" format="1">
  <advance width="485"/>
  <unicode hex="006B"/>
  <outline>
    <contour>
      <point x="473" y="480" type="line" name="hr00" smooth="yes"/>
      <point x="498" y="496"/>
      <point x="493" y="520"/>
      <point x="474" y="520" type="curve" smooth="yes"/>
      <point x="447" y="520" type="line"/>
      <point x="427" y="520"/>
      <point x="423" y="517"/>
      <point x="401" y="503" type="curve"/>
      <point x="152" y="341" type="line"/>
      <point x="226" y="688" type="line"/>
      <point x="229" y="701"/>
      <point x="221" y="710"/>
      <point x="208" y="710" type="curve"/>
      <point x="191" y="710" type="line"/>
      <point x="178" y="710"/>
      <point x="168" y="701"/>
      <point x="165" y="688" type="curve"/>
      <point x="23" y="22" type="line"/>
      <point x="20" y="9"/>
      <point x="28" y="0"/>
      <point x="41" y="0" type="curve"/>
      <point x="58" y="0" type="line"/>
      <point x="71" y="0"/>
      <point x="81" y="9"/>
      <point x="84" y="22" type="curve"/>
      <point x="133" y="248" type="line"/>
      <point x="346" y="15" type="line"/>
      <point x="352" y="9"/>
      <point x="358" y="0"/>
      <point x="379" y="0" type="curve" smooth="yes"/>
      <point x="395" y="0" type="line"/>
      <point x="412" y="0"/>
      <point x="422" y="20"/>
      <point x="409" y="34" type="curve" smooth="yes"/>
      <point x="179" y="288" type="line"/>
    </contour>
  </outline>
</glyph>
<glyph name="m" format="1">
  <advance width="879"/>
  <unicode hex="006D"/>
  <outline>
    <contour>
      <point x="185" y="498" type="line" smooth="yes"/>
      <point x="188" y="511"/>
      <point x="181" y="520"/>
      <point x="168" y="520" type="curve" smooth="yes"/>
      <point x="151" y="520" type="line" smooth="yes"/>
      <point x="138" y="520"/>
      <point x="127" y="511"/>
      <point x="124" y="498" type="curve" smooth="yes"/>
      <point x="23" y="22" type="line" smooth="yes"/>
      <point x="20" y="9"/>
      <point x="28" y="0"/>
      <point x="41" y="0" type="curve" smooth="yes"/>
      <point x="58" y="0" type="line" smooth="yes"/>
      <point x="71" y="0"/>
      <point x="81" y="9"/>
      <point x="84" y="22" type="curve" smooth="yes"/>
      <point x="144" y="304" type="line" smooth="yes"/>
      <point x="172" y="434"/>
      <point x="262" y="472"/>
      <point x="323" y="472" type="curve" name="hr01" smooth="yes"/>
      <point x="390" y="472"/>
      <point x="441" y="434"/>
      <point x="413" y="303" type="curve" smooth="yes"/>
      <point x="353" y="22" type="line" smooth="yes"/>
      <point x="350" y="9"/>
      <point x="358" y="0"/>
      <point x="371" y="0" type="curve" smooth="yes"/>
      <point x="388" y="0" type="line" smooth="yes"/>
      <point x="401" y="0"/>
      <point x="411" y="9"/>
      <point x="414" y="22" type="curve" smooth="yes"/>
      <point x="474" y="303" type="line" smooth="yes"/>
      <point x="502" y="434"/>
      <point x="592" y="472"/>
      <point x="653" y="472" type="curve" smooth="yes"/>
      <point x="725" y="472"/>
      <point x="771" y="434"/>
      <point x="743" y="303" type="curve" smooth="yes"/>
      <point x="683" y="22" type="line" smooth="yes"/>
      <point x="680" y="9"/>
      <point x="688" y="0"/>
      <point x="701" y="0" type="curve" smooth="yes"/>
      <point x="718" y="0" type="line" smooth="yes"/>
      <point x="731" y="0"/>
      <point x="741" y="9"/>
      <point x="744" y="22" type="curve" smooth="yes"/>
      <point x="806" y="313" type="line" smooth="yes"/>
      <point x="836" y="456"/>
      <point x="761" y="530"/>
      <point x="655" y="530" type="curve" smooth="yes"/>
      <point x="578" y="530"/>
      <point x="518" y="493"/>
      <point x="475" y="436" type="curve"/>
      <point x="457" y="497"/>
      <point x="400" y="530"/>
      <point x="325" y="530" type="curve" smooth="yes"/>
      <point x="259" y="530"/>
      <point x="220" y="506"/>
      <point x="178" y="463" type="curve"/>
    </contour>
  </outline>
</glyph>
<glyph name="n" format="1">
  <advance width="590"/>
  <unicode hex="006E"/>
  <outline>
    <contour>
      <point x="516" y="306" type="line" smooth="yes"/>
      <point x="543" y="433"/>
      <point x="503" y="530"/>
      <point x="351" y="530" type="curve" smooth="yes"/>
      <point x="275" y="530"/>
      <point x="216" y="497"/>
      <point x="175" y="451" type="curve"/>
      <point x="185" y="498" type="line" smooth="yes"/>
      <point x="188" y="511"/>
      <point x="181" y="520"/>
      <point x="168" y="520" type="curve" name="hr01" smooth="yes"/>
      <point x="151" y="520" type="line" smooth="yes"/>
      <point x="138" y="520"/>
      <point x="127" y="511"/>
      <point x="124" y="498" type="curve" smooth="yes"/>
      <point x="23" y="22" type="line" smooth="yes"/>
      <point x="20" y="9"/>
      <point x="28" y="0"/>
      <point x="41" y="0" type="curve" smooth="yes"/>
      <point x="58" y="0" type="line" smooth="yes"/>
      <point x="71" y="0"/>
      <point x="81" y="9"/>
      <point x="84" y="22" type="curve" smooth="yes"/>
      <point x="143" y="301" type="line" smooth="yes"/>
      <point x="166" y="408"/>
      <point x="246" y="472"/>
      <point x="351" y="472" type="curve" name="hr02" smooth="yes"/>
      <point x="460" y="472"/>
      <point x="477" y="414"/>
      <point x="453" y="301" type="curve" smooth="yes"/>
      <point x="394" y="22" type="line" smooth="yes"/>
      <point x="391" y="9"/>
      <point x="399" y="0"/>
      <point x="412" y="0" type="curve" smooth="yes"/>
      <point x="429" y="0" type="line" smooth="yes"/>
      <point x="442" y="0"/>
      <point x="452" y="9"/>
      <point x="455" y="22" type="curve" smooth="yes"/>
    </contour>
  </outline>
</glyph>
<glyph name="q" format="1">
  <advance width="580"/>
  <unicode hex="0071"/>
  <outline>
    <contour>
      <point x="213" y="-10" type="curve" smooth="yes"/>
      <point x="296" y="-10"/>
      <point x="346" y="25"/>
      <point x="388" y="69" type="curve"/>
      <point x="338" y="-168" type="line" smooth="yes"/>
      <point x="335" y="-181"/>
      <point x="342" y="-190"/>
      <point x="355" y="-190" type="curve" smooth="yes"/>
      <point x="372" y="-190" type="line" smooth="yes"/>
      <point x="385" y="-190"/>
      <point x="396" y="-181"/>
      <point x="399" y="-168" type="curve" smooth="yes"/>
      <point x="540" y="498" type="line" smooth="yes"/>
      <point x="543" y="511"/>
      <point x="536" y="520"/>
      <point x="523" y="520" type="curve" smooth="yes"/>
      <point x="506" y="520" type="line" smooth="yes"/>
      <point x="493" y="520"/>
      <point x="482" y="511"/>
      <point x="479" y="498" type="curve" smooth="yes"/>
      <point x="469" y="451" type="line"/>
      <point x="446" y="496"/>
      <point x="398" y="530"/>
      <point x="315" y="530" type="curve" name="hr01" smooth="yes"/>
      <point x="159" y="530"/>
      <point x="83" y="410"/>
      <point x="54" y="293" type="curve" smooth="yes"/>
      <point x="49" y="273"/>
      <point x="43" y="247"/>
      <point x="40" y="227" type="curve" smooth="yes"/>
      <point x="22" y="110"/>
      <point x="57" y="-10"/>
    </contour>
    <contour>
      <point x="436" y="296" type="curve" smooth="yes"/>
      <point x="433" y="276"/>
      <point x="425" y="238"/>
      <point x="420" y="218" type="curve" smooth="yes"/>
      <point x="401" y="138"/>
      <point x="324" y="48"/>
      <point x="213" y="48" type="curve" smooth="yes"/>
      <point x="96" y="48"/>
      <point x="87" y="136"/>
      <point x="102" y="232" type="curve" smooth="yes"/>
      <point x="105" y="252"/>
      <point x="108" y="268"/>
      <point x="114" y="288" type="curve" smooth="yes"/>
      <point x="142" y="383"/>
      <point x="204" y="472"/>
      <point x="315" y="472" type="curve" smooth="yes"/>
      <point x="429" y="472"/>
      <point x="451" y="378"/>
    </contour>
  </outline>
</glyph>
<glyph name="r" format="1">
  <advance width="350"/>
  <unicode hex="0072"/>
  <outline>
    <contour>
      <point x="175" y="451" type="curve" name="hr00"/>
      <point x="185" y="497" type="line" smooth="yes"/>
      <point x="188" y="510"/>
      <point x="180" y="520"/>
      <point x="167" y="520" type="curve" smooth="yes"/>
      <point x="151" y="520" type="line" smooth="yes"/>
      <point x="138" y="520"/>
      <point x="127" y="510"/>
      <point x="124" y="497" type="curve" smooth="yes"/>
      <point x="23" y="22" type="line" smooth="yes"/>
      <point x="20" y="9"/>
      <point x="28" y="0"/>
      <point x="41" y="0" type="curve" smooth="yes"/>
      <point x="57" y="0" type="line" smooth="yes"/>
      <point x="70" y="0"/>
      <point x="81" y="9"/>
      <point x="84" y="22" type="curve" smooth="yes"/>
      <point x="150" y="332" type="line" smooth="yes"/>
      <point x="167" y="412"/>
      <point x="228" y="462"/>
      <point x="308" y="462" type="curve" smooth="yes"/>
      <point x="351" y="462" type="line" smooth="yes"/>
      <point x="364" y="462"/>
      <point x="375" y="471"/>
      <point x="377" y="484" type="curve" smooth="yes"/>
      <point x="380" y="498" type="line" smooth="yes"/>
      <point x="383" y="511"/>
      <point x="376" y="520"/>
      <point x="363" y="520" type="curve" smooth="yes"/>
      <point x="326" y="520" type="line" smooth="yes"/>
      <point x="259" y="520"/>
      <point x="206" y="497"/>
    </contour>
  </outline>
</glyph>
<glyph name="t" format="1">
  <advance width="351"/>
  <unicode hex="0074"/>
  <outline>
    <contour>
      <point x="211" y="462" type="line" name="hr00"/>
      <point x="335" y="462" type="line" smooth="yes"/>
      <point x="348" y="462"/>
      <point x="359" y="471"/>
      <point x="361" y="484" type="curve" smooth="yes"/>
      <point x="364" y="498" type="line" smooth="yes"/>
      <point x="367" y="511"/>
      <point x="360" y="520"/>
      <point x="347" y="520" type="curve" smooth="yes"/>
      <point x="223" y="520" type="line"/>
      <point x="259" y="688" type="line" smooth="yes"/>
      <point x="262" y="701"/>
      <point x="254" y="710"/>
      <point x="241" y="710" type="curve" smooth="yes"/>
      <point x="224" y="710" type="line" smooth="yes"/>
      <point x="211" y="710"/>
      <point x="201" y="701"/>
      <point x="198" y="688" type="curve" smooth="yes"/>
      <point x="162" y="520" type="line"/>
      <point x="84" y="520" type="line" smooth="yes"/>
      <point x="71" y="520"/>
      <point x="60" y="511"/>
      <point x="57" y="498" type="curve" smooth="yes"/>
      <point x="54" y="484" type="line" smooth="yes"/>
      <point x="52" y="471"/>
      <point x="59" y="462"/>
      <point x="72" y="462" type="curve" smooth="yes"/>
      <point x="150" y="462" type="line"/>
      <point x="87" y="167" type="line" smooth="yes"/>
      <point x="67" y="73"/>
      <point x="68" y="0"/>
      <point x="198" y="0" type="curve" smooth="yes"/>
      <point x="247" y="0" type="line" smooth="yes"/>
      <point x="260" y="0"/>
      <point x="270" y="9"/>
      <point x="273" y="22" type="curve" smooth="yes"/>
      <point x="276" y="36" type="line" smooth="yes"/>
      <point x="279" y="49"/>
      <point x="272" y="58"/>
      <point x="259" y="58" type="curve" smooth="yes"/>
      <point x="199" y="58" type="line" smooth="yes"/>
      <point x="124" y="58"/>
      <point x="134" y="100"/>
      <point x="149" y="171" type="curve" smooth="yes"/>
    </contour>
  </outline>
</glyph>
<glyph name="u" format="1">
  <advance width="586"/>
  <unicode hex="0075"/>
  <outline>
    <contour>
      <point x="59" y="214" type="line" smooth="yes"/>
      <point x="32" y="87"/>
      <point x="69" y="-10"/>
      <point x="222" y="-10" type="curve" smooth="yes"/>
      <point x="313" y="-10"/>
      <point x="349" y="22"/>
      <point x="395" y="69" type="curve"/>
      <point x="385" y="22" type="line" smooth="yes"/>
      <point x="382" y="9"/>
      <point x="390" y="0"/>
      <point x="403" y="0" type="curve" name="hr01" smooth="yes"/>
      <point x="420" y="0" type="line" smooth="yes"/>
      <point x="433" y="0"/>
      <point x="443" y="9"/>
      <point x="446" y="22" type="curve" smooth="yes"/>
      <point x="547" y="498" type="line" smooth="yes"/>
      <point x="550" y="511"/>
      <point x="543" y="520"/>
      <point x="530" y="520" type="curve" smooth="yes"/>
      <point x="513" y="520" type="line" smooth="yes"/>
      <point x="500" y="520"/>
      <point x="489" y="511"/>
      <point x="486" y="498" type="curve" smooth="yes"/>
      <point x="427" y="219" type="line" smooth="yes"/>
      <point x="404" y="112"/>
      <point x="322" y="48"/>
      <point x="222" y="48" type="curve" name="hr02" smooth="yes"/>
      <point x="112" y="48"/>
      <point x="97" y="106"/>
      <point x="121" y="219" type="curve" smooth="yes"/>
      <point x="180" y="498" type="line" smooth="yes"/>
      <point x="183" y="511"/>
      <point x="176" y="520"/>
      <point x="163" y="520" type="curve" smooth="yes"/>
      <point x="146" y="520" type="line" smooth="yes"/>
      <point x="133" y="520"/>
      <point x="122" y="511"/>
      <point x="119" y="498" type="curve" smooth="yes"/>
    </contour>
  </outline>
</glyph>
<glyph name="v" format="1">
  <advance width="533"/>
  <unicode hex="0076"/>
  <outline>
    <contour>
      <point x="163" y="25" type="line" name="hr00"/>
      <point x="166" y="10"/>
      <point x="172" y="0"/>
      <point x="193" y="0" type="curve"/>
      <point x="214" y="0" type="line" smooth="yes"/>
      <point x="235" y="0"/>
      <point x="245" y="10"/>
      <point x="254" y="25" type="curve"/>
      <point x="536" y="489" type="line" smooth="yes"/>
      <point x="548" y="508"/>
      <point x="537" y="520"/>
      <point x="525" y="520" type="curve" smooth="yes"/>
      <point x="501" y="520" type="line" smooth="yes"/>
      <point x="488" y="520"/>
      <point x="479" y="510"/>
      <point x="476" y="505" type="curve"/>
      <point x="215" y="73" type="line"/>
      <point x="139" y="498" type="line"/>
      <point x="136" y="515"/>
      <point x="128" y="520"/>
      <point x="116" y="520" type="curve" smooth="yes"/>
      <point x="97" y="520" type="line" smooth="yes"/>
      <point x="86" y="520"/>
      <point x="75" y="513"/>
      <point x="78" y="496" type="curve" smooth="yes"/>
    </contour>
  </outline>
</glyph>
<glyph name="y" format="1">
  <advance width="534"/>
  <unicode hex="0079"/>
  <outline>
    <contour>
      <point x="117" y="520" type="curve" name="hr00"/>
      <point x="99" y="520" type="line"/>
      <point x="80" y="520"/>
      <point x="75" y="507"/>
      <point x="78" y="494" type="curve"/>
      <point x="176" y="35" type="line"/>
      <point x="53" y="-157" type="line" smooth="yes"/>
      <point x="41" y="-175"/>
      <point x="48" y="-190"/>
      <point x="63" y="-190" type="curve" smooth="yes"/>
      <point x="86" y="-190" type="line"/>
      <point x="99" y="-190"/>
      <point x="107" y="-183"/>
      <point x="112" y="-175" type="curve" smooth="yes"/>
      <point x="543" y="491" type="line" smooth="yes"/>
      <point x="555" y="509"/>
      <point x="541" y="520"/>
      <point x="530" y="520" type="curve" smooth="yes"/>
      <point x="506" y="520" type="line"/>
      <point x="493" y="520"/>
      <point x="485" y="513"/>
      <point x="480" y="505" type="curve"/>
      <point x="223" y="108" type="line"/>
      <point x="138" y="505" type="line" smooth="yes"/>
      <point x="136" y="514"/>
      <point x="130" y="520"/>
    </contour>
  </outline>
</glyph>
<glyph name="z" format="1">
  <advance width="486"/>
  <unicode hex="007A"/>
  <outline>
    <contour>
      <point x="72" y="58" type="line" name="hr00"/>
      <point x="460" y="462" type="line" smooth="yes"/>
      <point x="466" y="468"/>
      <point x="469" y="473"/>
      <point x="470" y="481" type="curve" smooth="yes"/>
      <point x="473" y="498" type="line" smooth="yes"/>
      <point x="476" y="511"/>
      <point x="469" y="520"/>
      <point x="456" y="520" type="curve" smooth="yes"/>
      <point x="120" y="520" type="line" smooth="yes"/>
      <point x="107" y="520"/>
      <point x="96" y="511"/>
      <point x="93" y="498" type="curve" smooth="yes"/>
      <point x="90" y="484" type="line" smooth="yes"/>
      <point x="88" y="471"/>
      <point x="95" y="462"/>
      <point x="108" y="462" type="curve" smooth="yes"/>
      <point x="384" y="462" type="line"/>
      <point x="-5" y="58" type="line" smooth="yes"/>
      <point x="-10" y="52"/>
      <point x="-12" y="48"/>
      <point x="-14" y="39" type="curve" smooth="yes"/>
      <point x="-18" y="22" type="line" smooth="yes"/>
      <point x="-21" y="9"/>
      <point x="-13" y="0"/>
      <point x="0" y="0" type="curve" smooth="yes"/>
      <point x="366" y="0" type="line" smooth="yes"/>
      <point x="379" y="0"/>
      <point x="389" y="9"/>
      <point x="392" y="22" type="curve" smooth="yes"/>
      <point x="395" y="36" type="line" smooth="yes"/>
      <point x="398" y="49"/>
      <point x="391" y="58"/>
      <point x="378" y="58" type="curve" smooth="yes"/>
    </contour>
  </outline>
</glyph>
<glyph name="braceleft" format="1">
  <advance width="342"/>
  <unicode hex="007B"/>
  <outline>
    <contour>
      <point x="152" y="152" type="curve" name="hr00" smooth="yes"/>
      <point x="167" y="230"/>
      <point x="156" y="278"/>
      <point x="110" y="309" type="curve"/>
      <point x="169" y="340"/>
      <point x="204" y="388"/>
      <point x="221" y="466" type="curve" smooth="yes"/>
      <point x="259" y="645"/>
      <point x="276" y="717"/>
      <point x="379" y="718" type="curve" smooth="yes"/>
      <point x="384" y="718" type="line" smooth="yes"/>
      <point x="397" y="718"/>
      <point x="408" y="727"/>
      <point x="411" y="740" type="curve" smooth="yes"/>
      <point x="414" y="754" type="line" smooth="yes"/>
      <point x="417" y="767"/>
      <point x="409" y="776"/>
      <point x="396" y="776" type="curve" smooth="yes"/>
      <point x="391" y="776" type="line" smooth="yes"/>
      <point x="234" y="776"/>
      <point x="201" y="670"/>
      <point x="162" y="487" type="curve" smooth="yes"/>
      <point x="145" y="408"/>
      <point x="119" y="379"/>
      <point x="72" y="352" type="curve" smooth="yes"/>
      <point x="52" y="340"/>
      <point x="44" y="331"/>
      <point x="40" y="315" type="curve" smooth="yes"/>
      <point x="38" y="303" type="line" smooth="yes"/>
      <point x="35" y="287"/>
      <point x="39" y="278"/>
      <point x="54" y="266" type="curve" smooth="yes"/>
      <point x="89" y="239"/>
      <point x="103" y="210"/>
      <point x="86" y="131" type="curve" smooth="yes"/>
      <point x="47" y="-52"/>
      <point x="41" y="-159"/>
      <point x="193" y="-159" type="curve" smooth="yes"/>
      <point x="198" y="-159" type="line" smooth="yes"/>
      <point x="211" y="-159"/>
      <point x="222" y="-150"/>
      <point x="224" y="-137" type="curve" smooth="yes"/>
      <point x="227" y="-123" type="line" smooth="yes"/>
      <point x="230" y="-110"/>
      <point x="223" y="-101"/>
      <point x="210" y="-101" type="curve" smooth="yes"/>
      <point x="205" y="-101" type="line" smooth="yes"/>
      <point x="91" y="-101"/>
      <point x="117" y="-28"/>
    </contour>
  </outline>
</glyph>
<glyph name="bar" format="1">
  <advance width="220"/>
  <unicode hex="007C"/>
  <outline>
    <contour>
      <point x="263" y="874" type="line" name="hr00" smooth="yes"/>
      <point x="266" y="887"/>
      <point x="259" y="896"/>
      <point x="246" y="896" type="curve" smooth="yes"/>
      <point x="229" y="896" type="line" smooth="yes"/>
      <point x="216" y="896"/>
      <point x="205" y="887"/>
      <point x="202" y="874" type="curve"/>
      <point x="-23" y="-186" type="line" smooth="yes"/>
      <point x="-26" y="-199"/>
      <point x="-19" y="-208"/>
      <point x="-6" y="-208" type="curve" smooth="yes"/>
      <point x="11" y="-208" type="line" smooth="yes"/>
      <point x="24" y="-208"/>
      <point x="35" y="-199"/>
      <point x="38" y="-186" type="curve" smooth="yes"/>
    </contour>
  </outline>
</glyph>
<glyph name="braceright" format="1">
  <advance width="342"/>
  <unicode hex="007D"/>
  <outline>
    <contour>
      <point x="196" y="465" type="curve" name="hr00" smooth="yes"/>
      <point x="181" y="387"/>
      <point x="192" y="339"/>
      <point x="238" y="308" type="curve"/>
      <point x="179" y="277"/>
      <point x="144" y="229"/>
      <point x="127" y="151" type="curve" smooth="yes"/>
      <point x="89" y="-28"/>
      <point x="72" y="-100"/>
      <point x="-31" y="-101" type="curve" smooth="yes"/>
      <point x="-36" y="-101" type="line" smooth="yes"/>
      <point x="-49" y="-101"/>
      <point x="-60" y="-110"/>
      <point x="-63" y="-123" type="curve" smooth="yes"/>
      <point x="-66" y="-137" type="line" smooth="yes"/>
      <point x="-69" y="-150"/>
      <point x="-61" y="-159"/>
      <point x="-48" y="-159" type="curve" smooth="yes"/>
      <point x="-43" y="-159" type="line" smooth="yes"/>
      <point x="114" y="-159"/>
      <point x="147" y="-53"/>
      <point x="186" y="130" type="curve" smooth="yes"/>
      <point x="203" y="209"/>
      <point x="229" y="238"/>
      <point x="276" y="265" type="curve" smooth="yes"/>
      <point x="296" y="277"/>
      <point x="304" y="286"/>
      <point x="308" y="302" type="curve" smooth="yes"/>
      <point x="310" y="314" type="line" smooth="yes"/>
      <point x="313" y="330"/>
      <point x="309" y="339"/>
      <point x="294" y="351" type="curve" smooth="yes"/>
      <point x="259" y="378"/>
      <point x="245" y="407"/>
      <point x="262" y="486" type="curve" smooth="yes"/>
      <point x="301" y="669"/>
      <point x="307" y="776"/>
      <point x="155" y="776" type="curve" smooth="yes"/>
      <point x="150" y="776" type="line" smooth="yes"/>
      <point x="137" y="776"/>
      <point x="126" y="767"/>
      <point x="124" y="754" type="curve" smooth="yes"/>
      <point x="121" y="740" type="line" smooth="yes"/>
      <point x="118" y="727"/>
      <point x="125" y="718"/>
      <point x="138" y="718" type="curve" smooth="yes"/>
      <point x="143" y="718" type="line" smooth="yes"/>
      <point x="257" y="718"/>
      <point x="231" y="645"/>
    </contour>
  </outline>
</glyph>
<glyph name="asciitilde" format="1">
  <advance width="564"/>
  <unicode hex="007E"/>
  <outline>
    <contour>
      <point x="367" y="252" type="curve" smooth="yes"/>
      <point x="423" y="252"/>
      <point x="483" y="282"/>
      <point x="489" y="307" type="curve"/>
      <point x="494" y="330" type="line" smooth="yes"/>
      <point x="496" y="340"/>
      <point x="490" y="347"/>
      <point x="480" y="347" type="curve" name="hr01" smooth="yes"/>
      <point x="461" y="347"/>
      <point x="433" y="312"/>
      <point x="381" y="312" type="curve" name="hr02" smooth="yes"/>
      <point x="309" y="312"/>
      <point x="281" y="347"/>
      <point x="197" y="347" type="curve" name="hr03" smooth="yes"/>
      <point x="141" y="347"/>
      <point x="81" y="317"/>
      <point x="76" y="292" type="curve"/>
      <point x="71" y="269" type="line" smooth="yes"/>
      <point x="69" y="259"/>
      <point x="74" y="252"/>
      <point x="84" y="252" type="curve" name="hr04" smooth="yes"/>
      <point x="103" y="252"/>
      <point x="132" y="287"/>
      <point x="184" y="287" type="curve" name="hr05" smooth="yes"/>
      <point x="259" y="287"/>
      <point x="287" y="252"/>
    </contour>
  </outline>
</glyph>
<glyph name="cent" format="1">
  <advance width="542"/>
  <unicode hex="00A2"/>
  <outline>
    <contour>
      <point x="366" y="588" type="line" name="hr00"/>
      <point x="369" y="601"/>
      <point x="361" y="610"/>
      <point x="348" y="610" type="curve"/>
      <point x="331" y="610" type="line"/>
      <point x="318" y="610"/>
      <point x="308" y="601"/>
      <point x="305" y="588" type="curve"/>
      <point x="292" y="528" type="line"/>
      <point x="170" y="516"/>
      <point x="93" y="431"/>
      <point x="61" y="300" type="curve" smooth="yes"/>
      <point x="56" y="280"/>
      <point x="48" y="240"/>
      <point x="44" y="220" type="curve" smooth="yes"/>
      <point x="21" y="94"/>
      <point x="75" y="11"/>
      <point x="178" y="-6" type="curve"/>
      <point x="163" y="-78" type="line"/>
      <point x="160" y="-91"/>
      <point x="168" y="-100"/>
      <point x="181" y="-100" type="curve"/>
      <point x="198" y="-100" type="line"/>
      <point x="211" y="-100"/>
      <point x="221" y="-91"/>
      <point x="224" y="-78" type="curve"/>
      <point x="238" y="-9" type="line"/>
      <point x="369" y="-3"/>
      <point x="439" y="80"/>
      <point x="457" y="149" type="curve" smooth="yes"/>
      <point x="461" y="162"/>
      <point x="454" y="171"/>
      <point x="442" y="171" type="curve"/>
      <point x="424" y="171" type="line"/>
      <point x="410" y="171"/>
      <point x="406" y="167"/>
      <point x="397" y="150" type="curve" smooth="yes"/>
      <point x="358" y="74"/>
      <point x="292" y="48"/>
      <point x="222" y="48" type="curve" smooth="yes"/>
      <point x="131" y="48"/>
      <point x="84" y="100"/>
      <point x="106" y="225" type="curve" smooth="yes"/>
      <point x="110" y="245"/>
      <point x="116" y="275"/>
      <point x="121" y="295" type="curve" smooth="yes"/>
      <point x="152" y="420"/>
      <point x="234" y="472"/>
      <point x="325" y="472" type="curve" smooth="yes"/>
      <point x="400" y="472"/>
      <point x="447" y="441"/>
      <point x="444" y="365" type="curve" smooth="yes"/>
      <point x="443" y="349"/>
      <point x="450" y="344"/>
      <point x="464" y="344" type="curve"/>
      <point x="483" y="344" type="line"/>
      <point x="495" y="344"/>
      <point x="503" y="353"/>
      <point x="504" y="366" type="curve" smooth="yes"/>
      <point x="511" y="433"/>
      <point x="476" y="518"/>
      <point x="353" y="529" type="curve"/>
    </contour>
  </outline>
</glyph>
<glyph name="yen" format="1">
  <advance width="586"/>
  <unicode hex="00A5"/>
  <outline>
    <contour>
      <point x="177" y="685" type="line" name="hr00" smooth="yes"/>
      <point x="173" y="695"/>
      <point x="166" y="700"/>
      <point x="157" y="700" type="curve" smooth="yes"/>
      <point x="136" y="700" type="line" smooth="yes"/>
      <point x="118" y="700"/>
      <point x="109" y="685"/>
      <point x="115" y="670" type="curve" smooth="yes"/>
      <point x="254" y="303" type="line"/>
      <point x="112" y="303" type="line" smooth="yes"/>
      <point x="99" y="303"/>
      <point x="88" y="294"/>
      <point x="85" y="281" type="curve" smooth="yes"/>
      <point x="82" y="265" type="line" smooth="yes"/>
      <point x="79" y="252"/>
      <point x="86" y="243"/>
      <point x="99" y="243" type="curve" smooth="yes"/>
      <point x="248" y="243" type="line"/>
      <point x="238" y="193" type="line"/>
      <point x="89" y="193" type="line" smooth="yes"/>
      <point x="76" y="193"/>
      <point x="65" y="184"/>
      <point x="62" y="171" type="curve" smooth="yes"/>
      <point x="58" y="155" type="line" smooth="yes"/>
      <point x="56" y="142"/>
      <point x="63" y="133"/>
      <point x="76" y="133" type="curve" smooth="yes"/>
      <point x="225" y="133" type="line"/>
      <point x="201" y="22" type="line" smooth="yes"/>
      <point x="198" y="9"/>
      <point x="206" y="0"/>
      <point x="219" y="0" type="curve" smooth="yes"/>
      <point x="237" y="0" type="line" smooth="yes"/>
      <point x="250" y="0"/>
      <point x="260" y="9"/>
      <point x="263" y="22" type="curve" smooth="yes"/>
      <point x="287" y="133" type="line"/>
      <point x="436" y="133" type="line" smooth="yes"/>
      <point x="449" y="133"/>
      <point x="460" y="142"/>
      <point x="462" y="155" type="curve" smooth="yes"/>
      <point x="466" y="171" type="line" smooth="yes"/>
      <point x="469" y="184"/>
      <point x="462" y="193"/>
      <point x="449" y="193" type="curve" smooth="yes"/>
      <point x="300" y="193" type="line"/>
      <point x="310" y="243" type="line"/>
      <point x="459" y="243" type="line" smooth="yes"/>
      <point x="472" y="243"/>
      <point x="483" y="252"/>
      <point x="486" y="265" type="curve" smooth="yes"/>
      <point x="489" y="281" type="line" smooth="yes"/>
      <point x="492" y="294"/>
      <point x="485" y="303"/>
      <point x="472" y="303" type="curve" smooth="yes"/>
      <point x="330" y="303" type="line"/>
      <point x="622" y="667" type="line" smooth="yes"/>
      <point x="625" y="671"/>
      <point x="628" y="675"/>
      <point x="629" y="680" type="curve" smooth="yes"/>
      <point x="631" y="691"/>
      <point x="624" y="700"/>
      <point x="613" y="700" type="curve" smooth="yes"/>
      <point x="586" y="700" type="line"/>
      <point x="577" y="700"/>
      <point x="569" y="695"/>
      <point x="561" y="685" type="curve"/>
      <point x="300" y="361" type="line"/>
    </contour>
  </outline>
</glyph>
<glyph name="section" format="1">
  <advance width="553"/>
  <unicode hex="00A7"/>
  <outline>
    <contour>
      <point x="495" y="229" type="curve" name="hr00"/>
      <point x="516" y="329"/>
      <point x="466" y="388"/>
      <point x="326" y="434" type="curve" smooth="yes"/>
      <point x="224" y="467"/>
      <point x="198" y="486"/>
      <point x="211" y="548" type="curve" smooth="yes"/>
      <point x="223" y="605"/>
      <point x="271" y="652"/>
      <point x="355" y="652" type="curve" smooth="yes"/>
      <point x="450" y="652"/>
      <point x="467" y="612"/>
      <point x="472" y="576" type="curve" smooth="yes"/>
      <point x="475" y="560"/>
      <point x="481" y="556"/>
      <point x="492" y="556" type="curve" smooth="yes"/>
      <point x="510" y="556" type="line" smooth="yes"/>
      <point x="523" y="556"/>
      <point x="533" y="564"/>
      <point x="535" y="576" type="curve" smooth="yes"/>
      <point x="544" y="633"/>
      <point x="494" y="710"/>
      <point x="357" y="710" type="curve" smooth="yes"/>
      <point x="234" y="710"/>
      <point x="166" y="629"/>
      <point x="149" y="551" type="curve" smooth="yes"/>
      <point x="142" y="516"/>
      <point x="142" y="484"/>
      <point x="157" y="460" type="curve"/>
      <point x="107" y="428"/>
      <point x="67" y="394"/>
      <point x="55" y="337" type="curve" smooth="yes"/>
      <point x="34" y="236"/>
      <point x="79" y="182"/>
      <point x="220" y="136" type="curve" smooth="yes"/>
      <point x="322" y="103"/>
      <point x="347" y="84"/>
      <point x="334" y="22" type="curve" smooth="yes"/>
      <point x="322" y="-35"/>
      <point x="274" y="-82"/>
      <point x="190" y="-82" type="curve" smooth="yes"/>
      <point x="95" y="-82"/>
      <point x="79" y="-42"/>
      <point x="73" y="-6" type="curve" smooth="yes"/>
      <point x="71" y="10"/>
      <point x="64" y="14"/>
      <point x="53" y="14" type="curve" smooth="yes"/>
      <point x="35" y="14" type="line" smooth="yes"/>
      <point x="22" y="14"/>
      <point x="12" y="6"/>
      <point x="10" y="-6" type="curve" smooth="yes"/>
      <point x="1" y="-63"/>
      <point x="51" y="-140"/>
      <point x="188" y="-140" type="curve" smooth="yes"/>
      <point x="311" y="-140"/>
      <point x="379" y="-56"/>
      <point x="395" y="22" type="curve" smooth="yes"/>
      <point x="403" y="57"/>
      <point x="403" y="86"/>
      <point x="388" y="110" type="curve"/>
      <point x="438" y="142"/>
      <point x="482" y="172"/>
    </contour>
    <contour>
      <point x="256" y="187" type="curve" smooth="yes"/>
      <point x="119" y="231"/>
      <point x="100" y="269"/>
      <point x="112" y="329" type="curve" smooth="yes"/>
      <point x="122" y="372"/>
      <point x="150" y="396"/>
      <point x="196" y="423" type="curve"/>
      <point x="218" y="409"/>
      <point x="249" y="396"/>
      <point x="289" y="383" type="curve" smooth="yes"/>
      <point x="427" y="339"/>
      <point x="445" y="301"/>
      <point x="433" y="241" type="curve" smooth="yes"/>
      <point x="424" y="198"/>
      <point x="395" y="174"/>
      <point x="349" y="147" type="curve"/>
      <point x="327" y="161"/>
      <point x="296" y="174"/>
    </contour>
  </outline>
</glyph>
<glyph name="copyright" format="1">
  <advance width="832"/>
  <unicode hex="00A9"/>
  <outline>
    <contour>
      <point x="67" y="350" type="curve" name="hr00" smooth="yes"/>
      <point x="25" y="151"/>
      <point x="157" y="-10"/>
      <point x="356" y="-10" type="curve" smooth="yes"/>
      <point x="555" y="-10"/>
      <point x="745" y="151"/>
      <point x="787" y="350" type="curve" smooth="yes"/>
      <point x="829" y="549"/>
      <point x="697" y="710"/>
      <point x="498" y="710" type="curve" smooth="yes"/>
      <point x="299" y="710"/>
      <point x="109" y="549"/>
    </contour>
    <contour>
      <point x="127" y="350" type="curve" smooth="yes"/>
      <point x="162" y="516"/>
      <point x="332" y="655"/>
      <point x="498" y="655" type="curve" smooth="yes"/>
      <point x="664" y="655"/>
      <point x="762" y="516"/>
      <point x="727" y="350" type="curve" smooth="yes"/>
      <point x="692" y="184"/>
      <point x="522" y="45"/>
      <point x="356" y="45" type="curve" smooth="yes"/>
      <point x="190" y="45"/>
      <point x="92" y="184"/>
    </contour>
    <contour>
      <point x="272" y="385" type="curve" smooth="yes"/>
      <point x="267" y="365"/>
      <point x="261" y="337"/>
      <point x="258" y="317" type="curve" smooth="yes"/>
      <point x="243" y="231"/>
      <point x="291" y="158"/>
      <point x="392" y="158" type="curve" smooth="yes"/>
      <point x="499" y="158"/>
      <point x="557" y="218"/>
      <point x="567" y="265" type="curve" smooth="yes"/>
      <point x="570" y="278"/>
      <point x="563" y="287"/>
      <point x="550" y="287" type="curve" smooth="yes"/>
      <point x="533" y="287" type="line" smooth="yes"/>
      <point x="519" y="287"/>
      <point x="511" y="279"/>
      <point x="505" y="268" type="curve" smooth="yes"/>
      <point x="489" y="236"/>
      <point x="449" y="216"/>
      <point x="392" y="216" type="curve" smooth="yes"/>
      <point x="312" y="216"/>
      <point x="312" y="276"/>
      <point x="319" y="317" type="curve"/>
      <point x="322" y="337"/>
      <point x="328" y="365"/>
      <point x="333" y="385" type="curve"/>
      <point x="344" y="426"/>
      <point x="382" y="486"/>
      <point x="462" y="486" type="curve" smooth="yes"/>
      <point x="519" y="486"/>
      <point x="542" y="466"/>
      <point x="541" y="434" type="curve" smooth="yes"/>
      <point x="541" y="424"/>
      <point x="546" y="415"/>
      <point x="560" y="415" type="curve" smooth="yes"/>
      <point x="577" y="415" type="line" smooth="yes"/>
      <point x="590" y="415"/>
      <point x="601" y="424"/>
      <point x="603" y="437" type="curve" smooth="yes"/>
      <point x="609" y="484"/>
      <point x="569" y="544"/>
      <point x="462" y="544" type="curve" smooth="yes"/>
      <point x="361" y="544"/>
      <point x="294" y="471"/>
    </contour>
  </outline>
</glyph>
<glyph name="guillemotleft" format="1">
  <advance width="602"/>
  <unicode hex="00AB"/>
  <outline>
    <contour>
      <point x="316" y="483" type="line" smooth="yes"/>
      <point x="332" y="496"/>
      <point x="338" y="503"/>
      <point x="342" y="519" type="curve" smooth="yes"/>
      <point x="348" y="546" type="line" smooth="yes"/>
      <point x="353" y="569"/>
      <point x="326" y="571"/>
      <point x="306" y="555" type="curve" smooth="yes"/>
      <point x="79" y="372" type="line" smooth="yes"/>
      <point x="63" y="359"/>
      <point x="56" y="348"/>
      <point x="54" y="337" type="curve" smooth="yes"/>
      <point x="51" y="321" type="line" smooth="yes"/>
      <point x="49" y="310"/>
      <point x="50" y="299"/>
      <point x="60" y="286" type="curve" smooth="yes"/>
      <point x="210" y="104" type="line" smooth="yes"/>
      <point x="224" y="86"/>
      <point x="246" y="91"/>
      <point x="251" y="103" type="curve" smooth="yes"/>
      <point x="257" y="119" type="line" smooth="yes"/>
      <point x="262" y="135"/>
      <point x="257" y="142"/>
      <point x="247" y="155" type="curve" smooth="yes"/>
      <point x="112" y="320" type="line"/>
    </contour>
    <contour>
      <point x="565" y="483" type="line" smooth="yes"/>
      <point x="581" y="496"/>
      <point x="587" y="503"/>
      <point x="591" y="519" type="curve" smooth="yes"/>
      <point x="597" y="546" type="line" smooth="yes"/>
      <point x="602" y="569"/>
      <point x="575" y="571"/>
      <point x="555" y="555" type="curve" smooth="yes"/>
      <point x="328" y="372" type="line" smooth="yes"/>
      <point x="312" y="359"/>
      <point x="305" y="348"/>
      <point x="303" y="337" type="curve" smooth="yes"/>
      <point x="300" y="321" type="line" smooth="yes"/>
      <point x="298" y="310"/>
      <point x="299" y="299"/>
      <point x="309" y="286" type="curve" smooth="yes"/>
      <point x="459" y="104" type="line" smooth="yes"/>
      <point x="473" y="86"/>
      <point x="495" y="91"/>
      <point x="500" y="103" type="curve" smooth="yes"/>
      <point x="506" y="119" type="line" smooth="yes"/>
      <point x="511" y="135"/>
      <point x="506" y="142"/>
      <point x="496" y="155" type="curve" smooth="yes"/>
      <point x="361" y="320" type="line"/>
    </contour>
  </outline>
</glyph>
<glyph name="macron" format="1">
  <advance width="278"/>
  <unicode hex="00AF"/>
  <outline>
    <contour>
      <point x="248" y="622" type="line" name="hr00" smooth="yes"/>
      <point x="261" y="622"/>
      <point x="272" y="631"/>
      <point x="274" y="644" type="curve" smooth="yes"/>
      <point x="277" y="658" type="line" smooth="yes"/>
      <point x="280" y="671"/>
      <point x="273" y="680"/>
      <point x="260" y="680" type="curve" smooth="yes"/>
      <point x="61" y="680" type="line" smooth="yes"/>
      <point x="48" y="680"/>
      <point x="37" y="671"/>
      <point x="34" y="658" type="curve" smooth="yes"/>
      <point x="31" y="644" type="line" smooth="yes"/>
      <point x="29" y="631"/>
      <point x="36" y="622"/>
      <point x="49" y="622" type="curve" smooth="yes"/>
    </contour>
  </outline>
</glyph>
<glyph name="degree" format="1">
  <advance width="377"/>
  <unicode hex="00B0"/>
  <outline>
    <contour>
      <point x="322" y="579" type="curve" name="hr00" smooth="yes"/>
      <point x="313" y="534"/>
      <point x="267" y="503"/>
      <point x="224" y="503" type="curve" smooth="yes"/>
      <point x="177" y="503"/>
      <point x="161" y="534"/>
      <point x="170" y="579" type="curve" smooth="yes"/>
      <point x="180" y="624"/>
      <point x="226" y="655"/>
      <point x="269" y="655" type="curve" smooth="yes"/>
      <point x="314" y="655"/>
      <point x="332" y="624"/>
    </contour>
    <contour>
      <point x="382" y="579" type="curve" smooth="yes"/>
      <point x="398" y="654"/>
      <point x="352" y="710"/>
      <point x="269" y="710" type="curve" smooth="yes"/>
      <point x="193" y="710"/>
      <point x="126" y="654"/>
      <point x="110" y="579" type="curve" smooth="yes"/>
      <point x="94" y="504"/>
      <point x="140" y="448"/>
      <point x="224" y="448" type="curve" smooth="yes"/>
      <point x="299" y="448"/>
      <point x="366" y="504"/>
    </contour>
  </outline>
</glyph>
<glyph name="acute" format="1">
  <advance width="224"/>
  <unicode hex="00B4"/>
  <outline>
    <contour>
      <point x="39" y="624" type="line" name="hr00" smooth="yes"/>
      <point x="25" y="610"/>
      <point x="30" y="595"/>
      <point x="43" y="595" type="curve" smooth="yes"/>
      <point x="54" y="595" type="line" smooth="yes"/>
      <point x="67" y="595"/>
      <point x="74" y="596"/>
      <point x="87" y="605" type="curve" smooth="yes"/>
      <point x="215" y="694" type="line" smooth="yes"/>
      <point x="228" y="703"/>
      <point x="226" y="725"/>
      <point x="208" y="725" type="curve" smooth="yes"/>
      <point x="167" y="725" type="line" smooth="yes"/>
      <point x="147" y="725"/>
      <point x="140" y="720"/>
      <point x="126" y="707" type="curve" smooth="yes"/>
    </contour>
  </outline>
</glyph>
<glyph name="mu" format="1">
  <advance width="586"/>
  <unicode hex="00B5"/>
  <outline>
    <contour>
      <point x="89" y="69" type="line"/>
      <point x="114" y="24"/>
      <point x="157" y="-10"/>
      <point x="235" y="-10" type="curve" smooth="yes"/>
      <point x="313" y="-10"/>
      <point x="358" y="24"/>
      <point x="401" y="69" type="curve"/>
      <point x="391" y="22" type="line"/>
      <point x="388" y="9"/>
      <point x="396" y="0"/>
      <point x="409" y="0" type="curve" name="hr01"/>
      <point x="426" y="0" type="line"/>
      <point x="439" y="0"/>
      <point x="449" y="9"/>
      <point x="452" y="22" type="curve"/>
      <point x="553" y="498" type="line"/>
      <point x="556" y="511"/>
      <point x="549" y="520"/>
      <point x="536" y="520" type="curve"/>
      <point x="519" y="520" type="line"/>
      <point x="506" y="520"/>
      <point x="495" y="511"/>
      <point x="492" y="498" type="curve" smooth="yes"/>
      <point x="433" y="219" type="line"/>
      <point x="410" y="112"/>
      <point x="310" y="48"/>
      <point x="235" y="48" type="curve" name="hr02" smooth="yes"/>
      <point x="160" y="48"/>
      <point x="98" y="112"/>
      <point x="121" y="219" type="curve"/>
      <point x="180" y="498" type="line"/>
      <point x="183" y="511"/>
      <point x="176" y="520"/>
      <point x="163" y="520" type="curve"/>
      <point x="146" y="520" type="line"/>
      <point x="133" y="520"/>
      <point x="122" y="511"/>
      <point x="119" y="498" type="curve"/>
      <point x="-24" y="-178" type="line"/>
      <point x="-27" y="-191"/>
      <point x="-20" y="-200"/>
      <point x="-7" y="-200" type="curve"/>
      <point x="10" y="-200" type="line"/>
      <point x="23" y="-200"/>
      <point x="34" y="-191"/>
      <point x="37" y="-178" type="curve" smooth="yes"/>
    </contour>
  </outline>
</glyph>
<glyph name="paragraph" format="1">
  <advance width="491"/>
  <unicode hex="00B6"/>
  <outline>
    <contour>
      <point x="79" y="523" type="curve" name="hr00" smooth="yes"/>
      <point x="58" y="425"/>
      <point x="120" y="346"/>
      <point x="218" y="346" type="curve"/>
      <point x="128" y="-78" type="line" smooth="yes"/>
      <point x="125" y="-91"/>
      <point x="132" y="-100"/>
      <point x="145" y="-100" type="curve" smooth="yes"/>
      <point x="162" y="-100" type="line" smooth="yes"/>
      <point x="175" y="-100"/>
      <point x="186" y="-91"/>
      <point x="189" y="-78" type="curve" smooth="yes"/>
      <point x="342" y="642" type="line"/>
      <point x="421" y="642" type="line"/>
      <point x="268" y="-78" type="line" smooth="yes"/>
      <point x="265" y="-91"/>
      <point x="272" y="-100"/>
      <point x="285" y="-100" type="curve" smooth="yes"/>
      <point x="302" y="-100" type="line" smooth="yes"/>
      <point x="315" y="-100"/>
      <point x="326" y="-91"/>
      <point x="329" y="-78" type="curve" smooth="yes"/>
      <point x="490" y="678" type="line" smooth="yes"/>
      <point x="492" y="691"/>
      <point x="485" y="700"/>
      <point x="472" y="700" type="curve" smooth="yes"/>
      <point x="293" y="700" type="line" smooth="yes"/>
      <point x="195" y="700"/>
      <point x="99" y="621"/>
    </contour>
  </outline>
</glyph>
<glyph name="periodcentered" format="1">
  <advance width="326"/>
  <unicode hex="00B7"/>
  <outline>
    <contour>
      <point x="63" y="300" type="curve" name="hr00" smooth="yes"/>
      <point x="52" y="245"/>
      <point x="87" y="200"/>
      <point x="142" y="200" type="curve" smooth="yes"/>
      <point x="197" y="200"/>
      <point x="252" y="245"/>
      <point x="263" y="300" type="curve" smooth="yes"/>
      <point x="275" y="355"/>
      <point x="240" y="400"/>
      <point x="185" y="400" type="curve" smooth="yes"/>
      <point x="130" y="400"/>
      <point x="75" y="355"/>
    </contour>
  </outline>
</glyph>
<glyph name="ordmasculine" format="1">
  <advance width="358"/>
  <unicode hex="00BA"/>
  <outline>
    <contour>
      <point x="119" y="589" type="curve" name="hr00" smooth="yes"/>
      <point x="116" y="579"/>
      <point x="110" y="555"/>
      <point x="109" y="545" type="curve" smooth="yes"/>
      <point x="96" y="465"/>
      <point x="139" y="429"/>
      <point x="208" y="429" type="curve" smooth="yes"/>
      <point x="277" y="429"/>
      <point x="328" y="465"/>
      <point x="349" y="545" type="curve" smooth="yes"/>
      <point x="352" y="555"/>
      <point x="358" y="579"/>
      <point x="359" y="589" type="curve" smooth="yes"/>
      <point x="372" y="669"/>
      <point x="324" y="705"/>
      <point x="261" y="705" type="curve" smooth="yes"/>
      <point x="198" y="705"/>
      <point x="140" y="669"/>
    </contour>
    <contour>
      <point x="254" y="647" type="curve" smooth="yes"/>
      <point x="294" y="647"/>
      <point x="303" y="624"/>
      <point x="298" y="589" type="curve" smooth="yes"/>
      <point x="297" y="579"/>
      <point x="291" y="555"/>
      <point x="288" y="545" type="curve" smooth="yes"/>
      <point x="278" y="507"/>
      <point x="251" y="487"/>
      <point x="214" y="487" type="curve" smooth="yes"/>
      <point x="174" y="487"/>
      <point x="164" y="507"/>
      <point x="170" y="545" type="curve" smooth="yes"/>
      <point x="171" y="555"/>
      <point x="177" y="579"/>
      <point x="180" y="589" type="curve" smooth="yes"/>
      <point x="189" y="624"/>
      <point x="217" y="647"/>
    </contour>
  </outline>
</glyph>
<glyph name="guillemotright" format="1">
  <advance width="600"/>
  <unicode hex="00BB"/>
  <outline>
    <contour>
      <point x="298" y="174" type="line" smooth="yes"/>
      <point x="282" y="161"/>
      <point x="276" y="154"/>
      <point x="272" y="138" type="curve" smooth="yes"/>
      <point x="266" y="111" type="line" smooth="yes"/>
      <point x="261" y="88"/>
      <point x="288" y="86"/>
      <point x="308" y="102" type="curve" smooth="yes"/>
      <point x="535" y="285" type="line" smooth="yes"/>
      <point x="551" y="298"/>
      <point x="558" y="309"/>
      <point x="560" y="320" type="curve" smooth="yes"/>
      <point x="563" y="336" type="line" smooth="yes"/>
      <point x="565" y="347"/>
      <point x="564" y="358"/>
      <point x="554" y="371" type="curve" smooth="yes"/>
      <point x="404" y="553" type="line" smooth="yes"/>
      <point x="390" y="571"/>
      <point x="368" y="566"/>
      <point x="363" y="554" type="curve" smooth="yes"/>
      <point x="357" y="538" type="line" smooth="yes"/>
      <point x="352" y="522"/>
      <point x="357" y="515"/>
      <point x="367" y="502" type="curve" smooth="yes"/>
      <point x="502" y="337" type="line"/>
    </contour>
    <contour>
      <point x="49" y="174" type="line" smooth="yes"/>
      <point x="33" y="161"/>
      <point x="27" y="154"/>
      <point x="23" y="138" type="curve" smooth="yes"/>
      <point x="17" y="111" type="line" smooth="yes"/>
      <point x="12" y="88"/>
      <point x="39" y="86"/>
      <point x="59" y="102" type="curve" smooth="yes"/>
      <point x="286" y="285" type="line" smooth="yes"/>
      <point x="302" y="298"/>
      <point x="309" y="309"/>
      <point x="311" y="320" type="curve" smooth="yes"/>
      <point x="314" y="336" type="line" smooth="yes"/>
      <point x="316" y="347"/>
      <point x="315" y="358"/>
      <point x="305" y="371" type="curve" smooth="yes"/>
      <point x="155" y="553" type="line" smooth="yes"/>
      <point x="141" y="571"/>
      <point x="119" y="566"/>
      <point x="114" y="554" type="curve" smooth="yes"/>
      <point x="108" y="538" type="line" smooth="yes"/>
      <point x="103" y="522"/>
      <point x="108" y="515"/>
      <point x="118" y="502" type="curve" smooth="yes"/>
      <point x="253" y="337" type="line"/>
    </contour>
  </outline>
</glyph>
<glyph name="AE" format="1">
  <advance width="943"/>
  <unicode hex="00C6"/>
  <outline>
    <contour>
      <point x="11" y="0" type="line" name="hr00"/>
      <point x="20" y="0"/>
      <point x="30" y="5"/>
      <point x="36" y="15" type="curve" smooth="yes"/>
      <point x="134" y="175" type="line"/>
      <point x="421" y="175" type="line"/>
      <point x="388" y="22" type="line"/>
      <point x="385" y="9"/>
      <point x="393" y="0"/>
      <point x="406" y="0" type="curve"/>
      <point x="804" y="0" type="line"/>
      <point x="818" y="0"/>
      <point x="828" y="9"/>
      <point x="831" y="22" type="curve"/>
      <point x="834" y="37" type="line"/>
      <point x="837" y="51"/>
      <point x="830" y="60"/>
      <point x="816" y="60" type="curve"/>
      <point x="459" y="60" type="line"/>
      <point x="516" y="325" type="line"/>
      <point x="843" y="325" type="line"/>
      <point x="857" y="325"/>
      <point x="867" y="334"/>
      <point x="870" y="347" type="curve"/>
      <point x="873" y="362" type="line"/>
      <point x="876" y="376"/>
      <point x="869" y="385"/>
      <point x="855" y="385" type="curve"/>
      <point x="528" y="385" type="line"/>
      <point x="583" y="640" type="line"/>
      <point x="932" y="640" type="line"/>
      <point x="946" y="640"/>
      <point x="956" y="649"/>
      <point x="959" y="662" type="curve"/>
      <point x="962" y="677" type="line"/>
      <point x="965" y="691"/>
      <point x="958" y="700"/>
      <point x="944" y="700" type="curve"/>
      <point x="394" y="700" type="line"/>
      <point x="385" y="700"/>
      <point x="374" y="697"/>
      <point x="364" y="681" type="curve"/>
      <point x="-24" y="36" type="line"/>
      <point x="-31" y="24"/>
      <point x="-35" y="0"/>
      <point x="-9" y="0" type="curve" smooth="yes"/>
    </contour>
    <contour>
      <point x="409" y="633" type="line"/>
      <point x="518" y="633" type="line"/>
      <point x="433" y="235" type="line"/>
      <point x="170" y="235" type="line"/>
    </contour>
  </outline>
</glyph>
<glyph name="Ccedilla" format="1">
  <advance width="650"/>
  <unicode hex="00C7"/>
  <outline>
    <contour>
      <point x="159" y="434" type="curve" name="hr00" smooth="yes"/>
      <point x="196" y="585"/>
      <point x="291" y="650"/>
      <point x="413" y="650" type="curve" smooth="yes"/>
      <point x="520" y="650"/>
      <point x="590" y="608"/>
      <point x="578" y="495" type="curve" smooth="yes"/>
      <point x="576" y="479"/>
      <point x="588" y="474"/>
      <point x="599" y="474" type="curve"/>
      <point x="622" y="474" type="line"/>
      <point x="634" y="474"/>
      <point x="639" y="482"/>
      <point x="641" y="494" type="curve" smooth="yes"/>
      <point x="658" y="595"/>
      <point x="603" y="710"/>
      <point x="413" y="710" type="curve" smooth="yes"/>
      <point x="231" y="710"/>
      <point x="136" y="595"/>
      <point x="97" y="439" type="curve" smooth="yes"/>
      <point x="83" y="382"/>
      <point x="68" y="315"/>
      <point x="59" y="261" type="curve" smooth="yes"/>
      <point x="34" y="121"/>
      <point x="80" y="13"/>
      <point x="222" y="-6" type="curve"/>
      <point x="192" y="-53" type="line"/>
      <point x="186" y="-63"/>
      <point x="176" y="-75"/>
      <point x="181" y="-83" type="curve"/>
      <point x="193" y="-100" type="line"/>
      <point x="205" y="-116"/>
      <point x="222" y="-96"/>
      <point x="254" y="-96" type="curve" smooth="yes"/>
      <point x="277" y="-96"/>
      <point x="294" y="-110"/>
      <point x="289" y="-134" type="curve" smooth="yes"/>
      <point x="284" y="-159"/>
      <point x="261" y="-174"/>
      <point x="238" y="-174" type="curve" smooth="yes"/>
      <point x="191" y="-174"/>
      <point x="190" y="-142"/>
      <point x="173" y="-156" type="curve"/>
      <point x="157" y="-169" type="line"/>
      <point x="137" y="-184"/>
      <point x="181" y="-220"/>
      <point x="238" y="-220" type="curve" smooth="yes"/>
      <point x="296" y="-220"/>
      <point x="329" y="-183"/>
      <point x="339" y="-135" type="curve" smooth="yes"/>
      <point x="350" y="-87"/>
      <point x="321" y="-50"/>
      <point x="282" y="-50" type="curve" smooth="yes"/>
      <point x="267" y="-50"/>
      <point x="251" y="-52"/>
      <point x="242" y="-57" type="curve"/>
      <point x="276" y="-10" type="line"/>
      <point x="474" y="-9"/>
      <point x="550" y="112"/>
      <point x="579" y="206" type="curve" smooth="yes"/>
      <point x="583" y="218"/>
      <point x="575" y="226"/>
      <point x="563" y="226" type="curve"/>
      <point x="540" y="226" type="line"/>
      <point x="529" y="226"/>
      <point x="521" y="221"/>
      <point x="515" y="205" type="curve"/>
      <point x="464" y="86"/>
      <point x="381" y="50"/>
      <point x="274" y="50" type="curve" smooth="yes"/>
      <point x="152" y="50"/>
      <point x="96" y="115"/>
      <point x="123" y="266" type="curve" smooth="yes"/>
      <point x="133" y="323"/>
      <point x="145" y="379"/>
    </contour>
  </outline>
</glyph>
<glyph name="Eth" format="1">
  <advance width="684"/>
  <unicode hex="00D0"/>
  <outline>
    <contour>
      <point x="182" y="677" type="curve" name="hr00"/>
      <point x="120" y="382" type="line"/>
      <point x="57" y="382" type="line"/>
      <point x="44" y="382"/>
      <point x="32" y="373"/>
      <point x="30" y="360" type="curve"/>
      <point x="27" y="344" type="line"/>
      <point x="25" y="331"/>
      <point x="31" y="322"/>
      <point x="44" y="322" type="curve"/>
      <point x="107" y="322" type="line"/>
      <point x="43" y="22" type="line"/>
      <point x="40" y="9"/>
      <point x="48" y="0"/>
      <point x="61" y="0" type="curve"/>
      <point x="289" y="0" type="line"/>
      <point x="488" y="0"/>
      <point x="566" y="87"/>
      <point x="609" y="271" type="curve" smooth="yes"/>
      <point x="623" y="331"/>
      <point x="631" y="370"/>
      <point x="643" y="430" type="curve" smooth="yes"/>
      <point x="677" y="604"/>
      <point x="594" y="700"/>
      <point x="412" y="700" type="curve"/>
      <point x="209" y="700" type="line"/>
      <point x="196" y="700"/>
      <point x="185" y="691"/>
    </contour>
    <contour>
      <point x="579" y="425" type="curve" smooth="yes"/>
      <point x="567" y="365"/>
      <point x="561" y="336"/>
      <point x="547" y="276" type="curve" smooth="yes"/>
      <point x="511" y="120"/>
      <point x="445" y="60"/>
      <point x="286" y="60" type="curve"/>
      <point x="114" y="60" type="line"/>
      <point x="170" y="322" type="line"/>
      <point x="320" y="322" type="line" smooth="yes"/>
      <point x="333" y="322"/>
      <point x="345" y="331"/>
      <point x="347" y="344" type="curve"/>
      <point x="350" y="360" type="line"/>
      <point x="352" y="373"/>
      <point x="346" y="382"/>
      <point x="333" y="382" type="curve"/>
      <point x="183" y="382" type="line"/>
      <point x="238" y="640" type="line"/>
      <point x="405" y="640" type="line"/>
      <point x="565" y="640"/>
      <point x="607" y="571"/>
    </contour>
  </outline>
</glyph>
<glyph name="multiply" format="1">
  <advance width="537"/>
  <unicode hex="00D7"/>
  <outline>
    <contour>
      <point x="45" y="182" type="line"/>
      <point x="34" y="173"/>
      <point x="31" y="160"/>
      <point x="38" y="151" type="curve" smooth="yes"/>
      <point x="49" y="136" type="line" smooth="yes"/>
      <point x="56" y="127"/>
      <point x="69" y="127"/>
      <point x="80" y="136" type="curve" smooth="yes"/>
      <point x="270" y="291" type="line"/>
      <point x="391" y="139" type="line"/>
      <point x="398" y="130"/>
      <point x="411" y="130"/>
      <point x="422" y="139" type="curve"/>
      <point x="430" y="145" type="line"/>
      <point x="441" y="154"/>
      <point x="444" y="167"/>
      <point x="437" y="176" type="curve"/>
      <point x="317" y="329" type="line"/>
      <point x="507" y="484" type="line"/>
      <point x="518" y="493"/>
      <point x="520" y="506"/>
      <point x="513" y="515" type="curve" smooth="yes"/>
      <point x="502" y="529" type="line" smooth="yes"/>
      <point x="495" y="538"/>
      <point x="482" y="538"/>
      <point x="471" y="529" type="curve" smooth="yes"/>
      <point x="280" y="370" type="line"/>
      <point x="162" y="527" type="line"/>
      <point x="155" y="536"/>
      <point x="142" y="536"/>
      <point x="131" y="527" type="curve" smooth="yes"/>
      <point x="122" y="520" type="line" smooth="yes"/>
      <point x="111" y="511"/>
      <point x="109" y="498"/>
      <point x="116" y="489" type="curve" smooth="yes"/>
      <point x="233" y="335" type="line"/>
    </contour>
  </outline>
</glyph>
<glyph name="Oslash" format="1">
  <advance width="680"/>
  <unicode hex="00D8"/>
  <outline>
    <contour>
      <point x="25" y="267" type="line" name="hr00"/>
      <point x="8" y="261"/>
      <point x="1" y="257"/>
      <point x="-2" y="242" type="curve"/>
      <point x="-6" y="223" type="line"/>
      <point x="-10" y="203"/>
      <point x="8" y="202"/>
      <point x="23" y="208" type="curve"/>
      <point x="64" y="222" type="line"/>
      <point x="50" y="63"/>
      <point x="138" y="-10"/>
      <point x="282" y="-10" type="curve" smooth="yes"/>
      <point x="438" y="-10"/>
      <point x="553" y="77"/>
      <point x="598" y="266" type="curve" smooth="yes"/>
      <point x="612" y="323"/>
      <point x="622" y="370"/>
      <point x="633" y="427" type="curve"/>
      <point x="678" y="443" type="line" smooth="yes"/>
      <point x="695" y="449"/>
      <point x="702" y="453"/>
      <point x="705" y="468" type="curve"/>
      <point x="709" y="487" type="line" smooth="yes"/>
      <point x="713" y="507"/>
      <point x="693" y="507"/>
      <point x="680" y="502" type="curve"/>
      <point x="640" y="488" type="line"/>
      <point x="649" y="637"/>
      <point x="562" y="710"/>
      <point x="422" y="710" type="curve" smooth="yes"/>
      <point x="264" y="710"/>
      <point x="150" y="620"/>
      <point x="106" y="434" type="curve"/>
      <point x="92" y="380"/>
      <point x="83" y="336"/>
      <point x="73" y="284" type="curve"/>
    </contour>
    <contour>
      <point x="536" y="271" type="curve" smooth="yes"/>
      <point x="498" y="115"/>
      <point x="401" y="50"/>
      <point x="282" y="50" type="curve" smooth="yes"/>
      <point x="165" y="50"/>
      <point x="112" y="108"/>
      <point x="130" y="246" type="curve"/>
      <point x="565" y="402" type="line"/>
      <point x="556" y="357"/>
      <point x="548" y="321"/>
    </contour>
    <contour>
      <point x="422" y="650" type="curve" smooth="yes"/>
      <point x="535" y="650"/>
      <point x="589" y="595"/>
      <point x="575" y="464" type="curve"/>
      <point x="141" y="308" type="line"/>
      <point x="149" y="349"/>
      <point x="156" y="382"/>
      <point x="168" y="429" type="curve" smooth="yes"/>
      <point x="206" y="585"/>
      <point x="301" y="650"/>
    </contour>
  </outline>
</glyph>
<glyph name="Thorn" format="1">
  <advance width="633"/>
  <unicode hex="00DE"/>
  <outline>
    <contour>
      <point x="333" y="143" type="line" name="hr00"/>
      <point x="476" y="143"/>
      <point x="572" y="214"/>
      <point x="601" y="350" type="curve" smooth="yes"/>
      <point x="630" y="486"/>
      <point x="557" y="557"/>
      <point x="410" y="557" type="curve"/>
      <point x="213" y="557" type="line"/>
      <point x="239" y="678" type="line"/>
      <point x="241" y="691"/>
      <point x="234" y="700"/>
      <point x="221" y="700" type="curve"/>
      <point x="202" y="700" type="line"/>
      <point x="189" y="700"/>
      <point x="178" y="691"/>
      <point x="176" y="678" type="curve"/>
      <point x="36" y="22" type="line"/>
      <point x="33" y="9"/>
      <point x="41" y="0"/>
      <point x="54" y="0" type="curve"/>
      <point x="72" y="0" type="line"/>
      <point x="86" y="0"/>
      <point x="96" y="9"/>
      <point x="99" y="22" type="curve"/>
      <point x="125" y="143" type="line"/>
    </contour>
    <contour>
      <point x="200" y="497" type="line"/>
      <point x="403" y="497" type="line"/>
      <point x="539" y="497"/>
      <point x="558" y="445"/>
      <point x="538" y="350" type="curve" smooth="yes"/>
      <point x="518" y="255"/>
      <point x="437" y="203"/>
      <point x="328" y="203" type="curve"/>
      <point x="138" y="203" type="line"/>
    </contour>
  </outline>
</glyph>
<glyph name="germandbls" format="1">
  <advance width="568"/>
  <unicode hex="00DF"/>
  <outline>
    <contour>
      <point x="239" y="58" type="curve" name="hr00"/>
      <point x="175" y="58" type="line" smooth="yes"/>
      <point x="162" y="58"/>
      <point x="151" y="49"/>
      <point x="148" y="36" type="curve" smooth="yes"/>
      <point x="145" y="22" type="line" smooth="yes"/>
      <point x="142" y="9"/>
      <point x="150" y="0"/>
      <point x="163" y="0" type="curve" smooth="yes"/>
      <point x="239" y="0" type="line" smooth="yes"/>
      <point x="415" y="0"/>
      <point x="478" y="113"/>
      <point x="496" y="202" type="curve" smooth="yes"/>
      <point x="511" y="272"/>
      <point x="484" y="342"/>
      <point x="415" y="376" type="curve"/>
      <point x="470" y="400"/>
      <point x="518" y="442"/>
      <point x="537" y="528" type="curve" smooth="yes"/>
      <point x="555" y="613"/>
      <point x="510" y="710"/>
      <point x="365" y="710" type="curve" smooth="yes"/>
      <point x="220" y="710"/>
      <point x="149" y="611"/>
      <point x="126" y="502" type="curve" smooth="yes"/>
      <point x="24" y="22" type="line" smooth="yes"/>
      <point x="21" y="9"/>
      <point x="29" y="0"/>
      <point x="42" y="0" type="curve" smooth="yes"/>
      <point x="59" y="0" type="line" smooth="yes"/>
      <point x="72" y="0"/>
      <point x="82" y="9"/>
      <point x="85" y="22" type="curve" smooth="yes"/>
      <point x="186" y="497" type="line" smooth="yes"/>
      <point x="208" y="601"/>
      <point x="280" y="652"/>
      <point x="365" y="652" type="curve" smooth="yes"/>
      <point x="460" y="652"/>
      <point x="491" y="600"/>
      <point x="476" y="528" type="curve" smooth="yes"/>
      <point x="459" y="449"/>
      <point x="386" y="405"/>
      <point x="302" y="405" type="curve" smooth="yes"/>
      <point x="249" y="405" type="line" smooth="yes"/>
      <point x="236" y="405"/>
      <point x="225" y="396"/>
      <point x="222" y="383" type="curve" smooth="yes"/>
      <point x="219" y="369" type="line" smooth="yes"/>
      <point x="216" y="356"/>
      <point x="223" y="347"/>
      <point x="236" y="347" type="curve" smooth="yes"/>
      <point x="302" y="347" type="line" smooth="yes"/>
      <point x="411" y="347"/>
      <point x="453" y="283"/>
      <point x="435" y="202" type="curve" smooth="yes"/>
      <point x="418" y="122"/>
      <point x="348" y="58"/>
    </contour>
  </outline>
</glyph>
<glyph name="ae" format="1">
  <advance width="881"/>
  <unicode hex="00E6"/>
  <outline>
    <contour>
      <point x="306" y="530" type="curve" name="hr00" smooth="yes"/>
      <point x="173" y="530"/>
      <point x="113" y="442"/>
      <point x="100" y="405" type="curve" smooth="yes"/>
      <point x="96" y="393"/>
      <point x="105" y="383"/>
      <point x="117" y="383" type="curve" smooth="yes"/>
      <point x="134" y="383" type="line" smooth="yes"/>
      <point x="146" y="383"/>
      <point x="151" y="389"/>
      <point x="162" y="404" type="curve" smooth="yes"/>
      <point x="185" y="437"/>
      <point x="231" y="472"/>
      <point x="306" y="472" type="curve" smooth="yes"/>
      <point x="400" y="472"/>
      <point x="427" y="429"/>
      <point x="412" y="358" type="curve" smooth="yes"/>
      <point x="405" y="329" type="line"/>
      <point x="244" y="306" type="line" smooth="yes"/>
      <point x="103" y="286"/>
      <point x="28" y="229"/>
      <point x="9" y="139" type="curve" smooth="yes"/>
      <point x="-9" y="55"/>
      <point x="62" y="-10"/>
      <point x="168" y="-10" type="curve" smooth="yes"/>
      <point x="268" y="-10"/>
      <point x="335" y="28"/>
      <point x="389" y="106" type="curve"/>
      <point x="411" y="34"/>
      <point x="470" y="-10"/>
      <point x="560" y="-10" type="curve" smooth="yes"/>
      <point x="696" y="-10"/>
      <point x="771" y="73"/>
      <point x="781" y="111" type="curve"/>
      <point x="785" y="123"/>
      <point x="776" y="131"/>
      <point x="764" y="131" type="curve" smooth="yes"/>
      <point x="748" y="131" type="line" smooth="yes"/>
      <point x="733" y="131"/>
      <point x="730" y="130"/>
      <point x="715" y="113" type="curve" smooth="yes"/>
      <point x="700" y="97"/>
      <point x="665" y="48"/>
      <point x="560" y="48" type="curve" smooth="yes"/>
      <point x="448" y="48"/>
      <point x="430" y="136"/>
      <point x="448" y="235" type="curve"/>
      <point x="794" y="235" type="line" smooth="yes"/>
      <point x="807" y="235"/>
      <point x="819" y="244"/>
      <point x="822" y="257" type="curve" smooth="yes"/>
      <point x="825" y="272" type="line" smooth="yes"/>
      <point x="857" y="432"/>
      <point x="797" y="530"/>
      <point x="663" y="530" type="curve" smooth="yes"/>
      <point x="583" y="530"/>
      <point x="517" y="497"/>
      <point x="470" y="441" type="curve" smooth="yes"/>
      <point x="471" y="442" type="line"/>
      <point x="458" y="491"/>
      <point x="407" y="530"/>
    </contour>
    <contour>
      <point x="168" y="47" type="curve" smooth="yes"/>
      <point x="106" y="47"/>
      <point x="57" y="78"/>
      <point x="71" y="144" type="curve" smooth="yes"/>
      <point x="83" y="198"/>
      <point x="143" y="236"/>
      <point x="244" y="249" type="curve"/>
      <point x="392" y="268" type="line"/>
      <point x="385" y="234" type="line" smooth="yes"/>
      <point x="358" y="108"/>
      <point x="260" y="47"/>
    </contour>
    <contour>
      <point x="460" y="291" type="line"/>
      <point x="481" y="391"/>
      <point x="563" y="472"/>
      <point x="663" y="472" type="curve" smooth="yes"/>
      <point x="768" y="472"/>
      <point x="792" y="393"/>
      <point x="768" y="291" type="curve"/>
    </contour>
  </outline>
</glyph>
<glyph name="eth" format="1">
  <advance width="553"/>
  <unicode hex="00F0"/>
  <outline>
    <contour>
      <point x="523" y="596" type="line" name="hr00" smooth="yes"/>
      <point x="540" y="602"/>
      <point x="547" y="606"/>
      <point x="550" y="621" type="curve"/>
      <point x="555" y="645" type="line" smooth="yes"/>
      <point x="559" y="663"/>
      <point x="542" y="666"/>
      <point x="529" y="661" type="curve" smooth="yes"/>
      <point x="425" y="624" type="line"/>
      <point x="409" y="645"/>
      <point x="390" y="666"/>
      <point x="371" y="687" type="curve"/>
      <point x="362" y="695"/>
      <point x="353" y="700"/>
      <point x="337" y="700" type="curve" smooth="yes"/>
      <point x="317" y="700" type="line" smooth="yes"/>
      <point x="299" y="700"/>
      <point x="284" y="679"/>
      <point x="305" y="658" type="curve" smooth="yes"/>
      <point x="324" y="638"/>
      <point x="343" y="619"/>
      <point x="359" y="600" type="curve"/>
      <point x="293" y="577" type="line" smooth="yes"/>
      <point x="275" y="571"/>
      <point x="268" y="567"/>
      <point x="265" y="552" type="curve" smooth="yes"/>
      <point x="260" y="528" type="line" smooth="yes"/>
      <point x="256" y="509"/>
      <point x="275" y="508"/>
      <point x="286" y="512" type="curve" smooth="yes"/>
      <point x="395" y="550" type="line"/>
      <point x="415" y="516"/>
      <point x="428" y="478"/>
      <point x="433" y="431" type="curve"/>
      <point x="404" y="456"/>
      <point x="356" y="470"/>
      <point x="303" y="470" type="curve" smooth="yes"/>
      <point x="159" y="470"/>
      <point x="68" y="368"/>
      <point x="40" y="231" type="curve"/>
      <point x="9" y="94"/>
      <point x="68" y="-10"/>
      <point x="212" y="-10" type="curve" smooth="yes"/>
      <point x="366" y="-10"/>
      <point x="449" y="94"/>
      <point x="478" y="231" type="curve"/>
      <point x="512" y="401"/>
      <point x="498" y="498"/>
      <point x="458" y="573" type="curve"/>
    </contour>
    <contour>
      <point x="417" y="231" type="curve" smooth="yes"/>
      <point x="395" y="130"/>
      <point x="317" y="48"/>
      <point x="212" y="48" type="curve" smooth="yes"/>
      <point x="107" y="48"/>
      <point x="79" y="130"/>
      <point x="101" y="231" type="curve" smooth="yes"/>
      <point x="122" y="332"/>
      <point x="198" y="412"/>
      <point x="303" y="412" type="curve" smooth="yes"/>
      <point x="408" y="412"/>
      <point x="438" y="332"/>
    </contour>
  </outline>
</glyph>
<glyph name="oslash" format="1">
  <advance width="592"/>
  <unicode hex="00F8"/>
  <outline>
    <contour>
      <point x="340" y="530" type="curve" name="hr00" smooth="yes"/>
      <point x="195" y="530"/>
      <point x="107" y="431"/>
      <point x="76" y="302" type="curve"/>
      <point x="70" y="282"/>
      <point x="61" y="238"/>
      <point x="58" y="218" type="curve" smooth="yes"/>
      <point x="55" y="203" type="line"/>
      <point x="13" y="188" type="line" smooth="yes"/>
      <point x="-4" y="182"/>
      <point x="-11" y="178"/>
      <point x="-14" y="163" type="curve" smooth="yes"/>
      <point x="-18" y="144" type="line" smooth="yes"/>
      <point x="-22" y="124"/>
      <point x="-3" y="124"/>
      <point x="11" y="129" type="curve" smooth="yes"/>
      <point x="54" y="144" type="line"/>
      <point x="62" y="53"/>
      <point x="126" y="-10"/>
      <point x="237" y="-10" type="curve" smooth="yes"/>
      <point x="382" y="-10"/>
      <point x="470" y="89"/>
      <point x="502" y="218" type="curve" smooth="yes"/>
      <point x="508" y="242"/>
      <point x="518" y="287"/>
      <point x="522" y="312" type="curve"/>
      <point x="563" y="327" type="line" smooth="yes"/>
      <point x="580" y="333"/>
      <point x="587" y="337"/>
      <point x="590" y="352" type="curve" smooth="yes"/>
      <point x="594" y="371" type="line" smooth="yes"/>
      <point x="598" y="392"/>
      <point x="579" y="391"/>
      <point x="566" y="386" type="curve"/>
      <point x="524" y="371" type="line"/>
      <point x="517" y="464"/>
      <point x="456" y="530"/>
    </contour>
    <contour>
      <point x="136" y="297" type="curve"/>
      <point x="164" y="411"/>
      <point x="246" y="472"/>
      <point x="340" y="472" type="curve" smooth="yes"/>
      <point x="419" y="472"/>
      <point x="462" y="429"/>
      <point x="463" y="349" type="curve"/>
      <point x="120" y="226" type="line"/>
      <point x="124" y="247"/>
      <point x="130" y="278"/>
    </contour>
    <contour>
      <point x="456" y="289" type="line"/>
      <point x="455" y="282"/>
      <point x="449" y="251"/>
      <point x="442" y="223" type="curve"/>
      <point x="416" y="109"/>
      <point x="331" y="48"/>
      <point x="237" y="48" type="curve" smooth="yes"/>
      <point x="158" y="48"/>
      <point x="116" y="89"/>
      <point x="115" y="166" type="curve"/>
    </contour>
  </outline>
</glyph>
<glyph name="thorn" format="1">
  <advance width="579"/>
  <unicode hex="00FE"/>
  <outline>
    <contour>
      <point x="227" y="688" type="line" name="hr00"/>
      <point x="230" y="702"/>
      <point x="222" y="710"/>
      <point x="209" y="710" type="curve"/>
      <point x="192" y="710" type="line"/>
      <point x="179" y="710"/>
      <point x="169" y="701"/>
      <point x="166" y="688" type="curve"/>
      <point x="-17" y="-168" type="line"/>
      <point x="-20" y="-181"/>
      <point x="-12" y="-190"/>
      <point x="1" y="-190" type="curve"/>
      <point x="18" y="-190" type="line"/>
      <point x="31" y="-190"/>
      <point x="41" y="-181"/>
      <point x="44" y="-168" type="curve" smooth="yes"/>
      <point x="95" y="69" type="line"/>
      <point x="118" y="25"/>
      <point x="161" y="-10"/>
      <point x="249" y="-10" type="curve" smooth="yes"/>
      <point x="410" y="-10"/>
      <point x="481" y="116"/>
      <point x="511" y="232" type="curve" smooth="yes"/>
      <point x="516" y="252"/>
      <point x="520" y="268"/>
      <point x="523" y="288" type="curve" smooth="yes"/>
      <point x="541" y="405"/>
      <point x="507" y="530"/>
      <point x="352" y="530" type="curve" smooth="yes"/>
      <point x="264" y="530"/>
      <point x="214" y="494"/>
      <point x="176" y="451" type="curve"/>
    </contour>
    <contour>
      <point x="143" y="296" type="curve" smooth="yes"/>
      <point x="163" y="378"/>
      <point x="238" y="472"/>
      <point x="352" y="472" type="curve" smooth="yes"/>
      <point x="461" y="472"/>
      <point x="476" y="384"/>
      <point x="461" y="288" type="curve" smooth="yes"/>
      <point x="458" y="268"/>
      <point x="455" y="252"/>
      <point x="449" y="232" type="curve" smooth="yes"/>
      <point x="421" y="137"/>
      <point x="358" y="48"/>
      <point x="249" y="48" type="curve" smooth="yes"/>
      <point x="138" y="48"/>
      <point x="111" y="138"/>
      <point x="126" y="218" type="curve" smooth="yes"/>
      <point x="130" y="238"/>
      <point x="138" y="276"/>
    </contour>
  </outline>
</glyph>
<glyph name="dcroat" format="1">
  <advance width="580"/>
  <unicode hex="0111"/>
  <outline>
    <contour>
      <point x="319" y="530" type="curve" smooth="yes"/>
      <point x="143" y="530"/>
      <point x="77" y="385"/>
      <point x="54" y="288" type="curve" smooth="yes"/>
      <point x="48" y="268"/>
      <point x="45" y="252"/>
      <point x="42" y="232" type="curve" smooth="yes"/>
      <point x="24" y="135"/>
      <point x="28" y="-10"/>
      <point x="204" y="-10" type="curve" smooth="yes"/>
      <point x="287" y="-10"/>
      <point x="347" y="24"/>
      <point x="389" y="69" type="curve"/>
      <point x="379" y="22" type="line" smooth="yes"/>
      <point x="376" y="9"/>
      <point x="384" y="0"/>
      <point x="397" y="0" type="curve" name="hr01" smooth="yes"/>
      <point x="414" y="0" type="line" smooth="yes"/>
      <point x="427" y="0"/>
      <point x="437" y="9"/>
      <point x="440" y="22" type="curve" smooth="yes"/>
      <point x="557" y="571" type="line"/>
      <point x="615" y="571" type="line" smooth="yes"/>
      <point x="628" y="571"/>
      <point x="639" y="580"/>
      <point x="642" y="593" type="curve" smooth="yes"/>
      <point x="645" y="607" type="line" smooth="yes"/>
      <point x="647" y="620"/>
      <point x="640" y="629"/>
      <point x="627" y="629" type="curve" smooth="yes"/>
      <point x="569" y="629" type="line"/>
      <point x="582" y="688" type="line" smooth="yes"/>
      <point x="585" y="701"/>
      <point x="577" y="710"/>
      <point x="564" y="710" type="curve" smooth="yes"/>
      <point x="547" y="710" type="line" smooth="yes"/>
      <point x="534" y="710"/>
      <point x="524" y="701"/>
      <point x="521" y="688" type="curve" smooth="yes"/>
      <point x="508" y="629" type="line"/>
      <point x="450" y="629" type="line" smooth="yes"/>
      <point x="437" y="629"/>
      <point x="426" y="620"/>
      <point x="424" y="607" type="curve" smooth="yes"/>
      <point x="421" y="593" type="line" smooth="yes"/>
      <point x="418" y="580"/>
      <point x="425" y="571"/>
      <point x="438" y="571" type="curve" smooth="yes"/>
      <point x="496" y="571" type="line"/>
      <point x="470" y="451" type="line"/>
      <point x="447" y="495"/>
      <point x="402" y="530"/>
    </contour>
    <contour>
      <point x="422" y="224" type="curve" smooth="yes"/>
      <point x="402" y="142"/>
      <point x="337" y="48"/>
      <point x="223" y="48" type="curve" name="hr02" smooth="yes"/>
      <point x="106" y="48"/>
      <point x="85" y="136"/>
      <point x="103" y="232" type="curve" smooth="yes"/>
      <point x="106" y="252"/>
      <point x="109" y="268"/>
      <point x="115" y="288" type="curve" smooth="yes"/>
      <point x="138" y="384"/>
      <point x="196" y="472"/>
      <point x="313" y="472" type="curve" smooth="yes"/>
      <point x="424" y="472"/>
      <point x="454" y="382"/>
      <point x="439" y="302" type="curve" smooth="yes"/>
      <point x="435" y="282"/>
      <point x="427" y="244"/>
    </contour>
  </outline>
</glyph>
<glyph name="eogonek" format="1">
  <advance width="544"/>
  <unicode hex="0119"/>
  <outline>
    <contour>
      <point x="55" y="300" type="curve" name="hr00" smooth="yes"/>
      <point x="50" y="280"/>
      <point x="41" y="240"/>
      <point x="38" y="220" type="curve" smooth="yes"/>
      <point x="22" y="110"/>
      <point x="68" y="28"/>
      <point x="149" y="0" type="curve"/>
      <point x="130" y="-21"/>
      <point x="117" y="-49"/>
      <point x="111" y="-82" type="curve" smooth="yes"/>
      <point x="96" y="-167"/>
      <point x="156" y="-220"/>
      <point x="227" y="-220" type="curve"/>
      <point x="233" y="-220" type="line"/>
      <point x="247" y="-220"/>
      <point x="253" y="-216"/>
      <point x="257" y="-203" type="curve"/>
      <point x="262" y="-185" type="line"/>
      <point x="265" y="-172"/>
      <point x="258" y="-163"/>
      <point x="245" y="-163" type="curve"/>
      <point x="227" y="-163" type="line"/>
      <point x="193" y="-163"/>
      <point x="160" y="-133"/>
      <point x="171" y="-82" type="curve" smooth="yes"/>
      <point x="179" y="-42"/>
      <point x="210" y="-12"/>
      <point x="246" y="-9" type="curve"/>
      <point x="371" y="3"/>
      <point x="431" y="76"/>
      <point x="441" y="111" type="curve" smooth="yes"/>
      <point x="445" y="123"/>
      <point x="436" y="131"/>
      <point x="424" y="131" type="curve"/>
      <point x="408" y="131" type="line"/>
      <point x="393" y="131"/>
      <point x="390" y="130"/>
      <point x="375" y="113" type="curve" smooth="yes"/>
      <point x="360" y="97"/>
      <point x="320" y="48"/>
      <point x="215" y="48" type="curve" smooth="yes"/>
      <point x="103" y="48"/>
      <point x="85" y="136"/>
      <point x="103" y="235" type="curve"/>
      <point x="459" y="235" type="line"/>
      <point x="472" y="235"/>
      <point x="484" y="244"/>
      <point x="487" y="257" type="curve"/>
      <point x="490" y="272" type="line"/>
      <point x="522" y="432"/>
      <point x="462" y="530"/>
      <point x="318" y="530" type="curve" smooth="yes"/>
      <point x="193" y="530"/>
      <point x="90" y="436"/>
    </contour>
    <contour>
      <point x="115" y="291" type="line"/>
      <point x="136" y="391"/>
      <point x="218" y="472"/>
      <point x="318" y="472" type="curve" smooth="yes"/>
      <point x="423" y="472"/>
      <point x="457" y="393"/>
      <point x="433" y="291" type="curve"/>
    </contour>
  </outline>
</glyph>
<glyph name="Hbar" format="1">
  <advance width="710"/>
  <unicode hex="0126"/>
  <outline>
    <contour>
      <point x="100" y="571" type="line" smooth="yes"/>
      <point x="87" y="571"/>
      <point x="76" y="562"/>
      <point x="73" y="548" type="curve" smooth="yes"/>
      <point x="70" y="533" type="line" smooth="yes"/>
      <point x="67" y="520"/>
      <point x="74" y="511"/>
      <point x="87" y="511" type="curve" smooth="yes"/>
      <point x="145" y="511" type="line"/>
      <point x="41" y="22" type="line" smooth="yes"/>
      <point x="38" y="9"/>
      <point x="46" y="0"/>
      <point x="59" y="0" type="curve" smooth="yes"/>
      <point x="77" y="0" type="line" smooth="yes"/>
      <point x="91" y="0"/>
      <point x="101" y="9"/>
      <point x="104" y="22" type="curve" smooth="yes"/>
      <point x="169" y="325" type="line"/>
      <point x="555" y="325" type="line"/>
      <point x="490" y="22" type="line" smooth="yes"/>
      <point x="487" y="9"/>
      <point x="495" y="0"/>
      <point x="508" y="0" type="curve" smooth="yes"/>
      <point x="526" y="0" type="line" smooth="yes"/>
      <point x="540" y="0"/>
      <point x="550" y="9"/>
      <point x="553" y="22" type="curve" smooth="yes"/>
      <point x="657" y="511" type="line"/>
      <point x="714" y="511" type="line" smooth="yes"/>
      <point x="728" y="511"/>
      <point x="739" y="520"/>
      <point x="742" y="533" type="curve" smooth="yes"/>
      <point x="745" y="548" type="line" smooth="yes"/>
      <point x="748" y="562"/>
      <point x="741" y="571"/>
      <point x="727" y="571" type="curve" smooth="yes"/>
      <point x="670" y="571" type="line"/>
      <point x="692" y="677" type="line" smooth="yes"/>
      <point x="695" y="691"/>
      <point x="688" y="700"/>
      <point x="674" y="700" type="curve" name="hr01" smooth="yes"/>
      <point x="656" y="700" type="line" smooth="yes"/>
      <point x="643" y="700"/>
      <point x="632" y="691"/>
      <point x="629" y="677" type="curve" smooth="yes"/>
      <point x="607" y="571" type="line" name="hr02"/>
      <point x="221" y="571" type="line"/>
      <point x="243" y="677" type="line" smooth="yes"/>
      <point x="246" y="691"/>
      <point x="239" y="700"/>
      <point x="225" y="700" type="curve" name="hr03" smooth="yes"/>
      <point x="207" y="700" type="line" smooth="yes"/>
      <point x="194" y="700"/>
      <point x="183" y="691"/>
      <point x="180" y="677" type="curve" smooth="yes"/>
      <point x="158" y="571" type="line" name="hr04"/>
    </contour>
    <contour>
      <point x="181" y="385" type="line"/>
      <point x="208" y="511" type="line"/>
      <point x="594" y="511" type="line"/>
      <point x="567" y="385" type="line"/>
    </contour>
  </outline>
</glyph>
<glyph name="hbar" format="1">
  <advance width="591"/>
  <unicode hex="0127"/>
  <outline>
    <contour>
      <point x="226" y="688" type="line" name="hr00" smooth="yes"/>
      <point x="229" y="701"/>
      <point x="221" y="710"/>
      <point x="208" y="710" type="curve" smooth="yes"/>
      <point x="191" y="710" type="line" smooth="yes"/>
      <point x="178" y="710"/>
      <point x="168" y="701"/>
      <point x="165" y="688" type="curve" smooth="yes"/>
      <point x="152" y="629" type="line"/>
      <point x="94" y="629" type="line" smooth="yes"/>
      <point x="81" y="629"/>
      <point x="70" y="620"/>
      <point x="68" y="607" type="curve" smooth="yes"/>
      <point x="65" y="593" type="line" smooth="yes"/>
      <point x="62" y="580"/>
      <point x="69" y="571"/>
      <point x="82" y="571" type="curve" smooth="yes"/>
      <point x="140" y="571" type="line"/>
      <point x="23" y="22" type="line" smooth="yes"/>
      <point x="20" y="9"/>
      <point x="28" y="0"/>
      <point x="41" y="0" type="curve" smooth="yes"/>
      <point x="58" y="0" type="line" smooth="yes"/>
      <point x="71" y="0"/>
      <point x="81" y="9"/>
      <point x="84" y="22" type="curve" smooth="yes"/>
      <point x="143" y="301" type="line" smooth="yes"/>
      <point x="166" y="408"/>
      <point x="254" y="472"/>
      <point x="349" y="472" type="curve" smooth="yes"/>
      <point x="459" y="472"/>
      <point x="477" y="407"/>
      <point x="454" y="301" type="curve" smooth="yes"/>
      <point x="395" y="22" type="line" smooth="yes"/>
      <point x="392" y="9"/>
      <point x="400" y="0"/>
      <point x="413" y="0" type="curve" smooth="yes"/>
      <point x="430" y="0" type="line" smooth="yes"/>
      <point x="443" y="0"/>
      <point x="453" y="9"/>
      <point x="456" y="22" type="curve" smooth="yes"/>
      <point x="517" y="306" type="line" smooth="yes"/>
      <point x="544" y="433"/>
      <point x="505" y="530"/>
      <point x="349" y="530" type="curve" smooth="yes"/>
      <point x="263" y="530"/>
      <point x="212" y="492"/>
      <point x="175" y="451" type="curve"/>
      <point x="201" y="571" type="line"/>
      <point x="259" y="571" type="line" smooth="yes"/>
      <point x="272" y="571"/>
      <point x="283" y="580"/>
      <point x="286" y="593" type="curve" smooth="yes"/>
      <point x="289" y="607" type="line" smooth="yes"/>
      <point x="291" y="620"/>
      <point x="284" y="629"/>
      <point x="271" y="629" type="curve" smooth="yes"/>
      <point x="213" y="629" type="line"/>
    </contour>
  </outline>
</glyph>
<glyph name="Iogonek" format="1">
  <advance width="273"/>
  <unicode hex="012E"/>
  <outline>
    <contour>
      <point x="260" y="678" type="line"/>
      <point x="262" y="691"/>
      <point x="255" y="700"/>
      <point x="242" y="700" type="curve"/>
      <point x="223" y="700" type="line"/>
      <point x="210" y="700"/>
      <point x="199" y="691"/>
      <point x="197" y="678" type="curve"/>
      <point x="63" y="55" type="line"/>
      <point x="-7" y="46"/>
      <point x="-62" y="-5"/>
      <point x="-75" y="-82" type="curve" smooth="yes"/>
      <point x="-90" y="-167"/>
      <point x="-30" y="-220"/>
      <point x="41" y="-220" type="curve"/>
      <point x="47" y="-220" type="line"/>
      <point x="61" y="-220"/>
      <point x="67" y="-216"/>
      <point x="71" y="-203" type="curve"/>
      <point x="76" y="-185" type="line"/>
      <point x="79" y="-172"/>
      <point x="72" y="-163"/>
      <point x="59" y="-163" type="curve"/>
      <point x="41" y="-163" type="line"/>
      <point x="7" y="-163"/>
      <point x="-26" y="-133"/>
      <point x="-15" y="-82" type="curve" smooth="yes"/>
      <point x="-5" y="-33"/>
      <point x="37" y="-3"/>
      <point x="79" y="0" type="curve" name="hr01"/>
      <point x="94" y="0" type="line"/>
      <point x="107" y="0"/>
      <point x="117" y="9"/>
      <point x="120" y="22" type="curve"/>
    </contour>
  </outline>
</glyph>
<glyph name="dotlessi" format="1">
  <advance width="224"/>
  <unicode hex="0131"/>
  <outline>
    <contour>
      <point x="185" y="498" type="line" name="hr00" smooth="yes"/>
      <point x="188" y="511"/>
      <point x="181" y="520"/>
      <point x="168" y="520" type="curve" smooth="yes"/>
      <point x="151" y="520" type="line" smooth="yes"/>
      <point x="138" y="520"/>
      <point x="127" y="511"/>
      <point x="124" y="498" type="curve" smooth="yes"/>
      <point x="23" y="22" type="line" smooth="yes"/>
      <point x="20" y="9"/>
      <point x="28" y="0"/>
      <point x="41" y="0" type="curve" smooth="yes"/>
      <point x="58" y="0" type="line" smooth="yes"/>
      <point x="71" y="0"/>
      <point x="81" y="9"/>
      <point x="84" y="22" type="curve" smooth="yes"/>
    </contour>
  </outline>
</glyph>
<glyph name="IJ" format="1">
  <advance width="590"/>
  <unicode hex="0132"/>
  <outline>
    <contour>
      <point x="207" y="50" type="curve" smooth="yes"/>
      <point x="194" y="50"/>
      <point x="183" y="41"/>
      <point x="180" y="27" type="curve" smooth="yes"/>
      <point x="177" y="12" type="line" smooth="yes"/>
      <point x="174" y="-1"/>
      <point x="181" y="-10"/>
      <point x="194" y="-10" type="curve" smooth="yes"/>
      <point x="381" y="-10"/>
      <point x="460" y="99"/>
      <point x="493" y="255" type="curve" smooth="yes"/>
      <point x="582" y="677" type="line" smooth="yes"/>
      <point x="585" y="691"/>
      <point x="578" y="700"/>
      <point x="564" y="700" type="curve" smooth="yes"/>
      <point x="546" y="700" type="line" smooth="yes"/>
      <point x="533" y="700"/>
      <point x="522" y="691"/>
      <point x="520" y="678" type="curve" smooth="yes"/>
      <point x="430" y="256" type="line" smooth="yes"/>
      <point x="404" y="135"/>
      <point x="324" y="50"/>
    </contour>
    <contour>
      <point x="239" y="678" type="line" smooth="yes"/>
      <point x="241" y="691"/>
      <point x="234" y="700"/>
      <point x="221" y="700" type="curve" smooth="yes"/>
      <point x="202" y="700" type="line" smooth="yes"/>
      <point x="189" y="700"/>
      <point x="178" y="691"/>
      <point x="176" y="678" type="curve" smooth="yes"/>
      <point x="36" y="22" type="line" smooth="yes"/>
      <point x="33" y="9"/>
      <point x="41" y="0"/>
      <point x="54" y="0" type="curve" name="hr01" smooth="yes"/>
      <point x="73" y="0" type="line" smooth="yes"/>
      <point x="86" y="0"/>
      <point x="96" y="9"/>
      <point x="99" y="22" type="curve" smooth="yes"/>
    </contour>
  </outline>
</glyph>
<glyph name="Lslash" format="1">
  <advance width="548"/>
  <unicode hex="0141"/>
  <outline>
    <contour>
      <point x="449" y="0" type="line" name="hr00" smooth="yes"/>
      <point x="462" y="0"/>
      <point x="472" y="9"/>
      <point x="475" y="22" type="curve" smooth="yes"/>
      <point x="479" y="38" type="line" smooth="yes"/>
      <point x="481" y="51"/>
      <point x="474" y="60"/>
      <point x="461" y="60" type="curve" smooth="yes"/>
      <point x="115" y="60" type="line"/>
      <point x="170" y="317" type="line"/>
      <point x="338" y="377" type="line" smooth="yes"/>
      <point x="355" y="383"/>
      <point x="362" y="387"/>
      <point x="365" y="402" type="curve" smooth="yes"/>
      <point x="369" y="421" type="line" smooth="yes"/>
      <point x="372" y="433"/>
      <point x="365" y="439"/>
      <point x="354" y="439" type="curve" smooth="yes"/>
      <point x="350" y="439"/>
      <point x="346" y="438"/>
      <point x="340" y="436" type="curve" smooth="yes"/>
      <point x="183" y="380" type="line"/>
      <point x="247" y="678" type="line" smooth="yes"/>
      <point x="249" y="691"/>
      <point x="242" y="700"/>
      <point x="229" y="700" type="curve" smooth="yes"/>
      <point x="210" y="700" type="line" smooth="yes"/>
      <point x="197" y="700"/>
      <point x="186" y="691"/>
      <point x="184" y="678" type="curve" smooth="yes"/>
      <point x="115" y="355" type="line"/>
      <point x="41" y="329" type="line" smooth="yes"/>
      <point x="24" y="323"/>
      <point x="17" y="319"/>
      <point x="14" y="304" type="curve" smooth="yes"/>
      <point x="10" y="285" type="line" smooth="yes"/>
      <point x="8" y="273"/>
      <point x="14" y="267"/>
      <point x="25" y="267" type="curve" smooth="yes"/>
      <point x="29" y="267"/>
      <point x="33" y="268"/>
      <point x="39" y="270" type="curve" smooth="yes"/>
      <point x="102" y="292" type="line"/>
      <point x="44" y="22" type="line" smooth="yes"/>
      <point x="41" y="9"/>
      <point x="49" y="0"/>
      <point x="62" y="0" type="curve" smooth="yes"/>
    </contour>
  </outline>
</glyph>
<glyph name="lslash" format="1">
  <advance width="246"/>
  <unicode hex="0142"/>
  <outline>
    <contour>
      <point x="247" y="404" type="line" name="hr00" smooth="yes"/>
      <point x="252" y="423"/>
      <point x="232" y="424"/>
      <point x="222" y="420" type="curve" smooth="yes"/>
      <point x="177" y="404" type="line"/>
      <point x="238" y="688" type="line" smooth="yes"/>
      <point x="241" y="701"/>
      <point x="233" y="710"/>
      <point x="220" y="710" type="curve" smooth="yes"/>
      <point x="203" y="710" type="line" smooth="yes"/>
      <point x="190" y="710"/>
      <point x="180" y="701"/>
      <point x="177" y="688" type="curve" smooth="yes"/>
      <point x="111" y="381" type="line"/>
      <point x="60" y="363" type="line" smooth="yes"/>
      <point x="42" y="357"/>
      <point x="36" y="353"/>
      <point x="32" y="338" type="curve" smooth="yes"/>
      <point x="28" y="319" type="line" smooth="yes"/>
      <point x="24" y="300"/>
      <point x="43" y="299"/>
      <point x="54" y="303" type="curve" smooth="yes"/>
      <point x="98" y="318" type="line"/>
      <point x="35" y="22" type="line" smooth="yes"/>
      <point x="32" y="9"/>
      <point x="40" y="0"/>
      <point x="53" y="0" type="curve" smooth="yes"/>
      <point x="70" y="0" type="line" smooth="yes"/>
      <point x="83" y="0"/>
      <point x="93" y="9"/>
      <point x="96" y="22" type="curve" smooth="yes"/>
      <point x="164" y="341" type="line"/>
      <point x="216" y="360" type="line" smooth="yes"/>
      <point x="233" y="366"/>
      <point x="240" y="370"/>
      <point x="243" y="385" type="curve" smooth="yes"/>
    </contour>
  </outline>
</glyph>
<glyph name="Eng" format="1">
  <advance width="686"/>
  <unicode hex="014A"/>
  <outline>
    <contour>
      <point x="454" y="-57" type="line" name="hr00" smooth="yes"/>
      <point x="443" y="-118"/>
      <point x="418" y="-165"/>
      <point x="345" y="-165" type="curve"/>
      <point x="337" y="-165" type="line"/>
      <point x="324" y="-165"/>
      <point x="314" y="-174"/>
      <point x="311" y="-187" type="curve" smooth="yes"/>
      <point x="307" y="-203" type="line"/>
      <point x="304" y="-216"/>
      <point x="312" y="-225"/>
      <point x="325" y="-225" type="curve" smooth="yes"/>
      <point x="329" y="-225" type="line" smooth="yes"/>
      <point x="464" y="-225"/>
      <point x="496" y="-151"/>
      <point x="516" y="-57" type="curve" smooth="yes"/>
      <point x="672" y="677" type="line"/>
      <point x="675" y="691"/>
      <point x="668" y="700"/>
      <point x="654" y="700" type="curve" smooth="yes"/>
      <point x="637" y="700" type="line"/>
      <point x="624" y="700"/>
      <point x="613" y="691"/>
      <point x="610" y="677" type="curve" smooth="yes"/>
      <point x="491" y="118" type="line"/>
      <point x="240" y="688" type="line"/>
      <point x="239" y="691"/>
      <point x="234" y="700"/>
      <point x="221" y="700" type="curve" smooth="yes"/>
      <point x="202" y="700" type="line" smooth="yes"/>
      <point x="189" y="700"/>
      <point x="178" y="691"/>
      <point x="175" y="677" type="curve" smooth="yes"/>
      <point x="36" y="22" type="line" smooth="yes"/>
      <point x="33" y="9"/>
      <point x="41" y="0"/>
      <point x="54" y="0" type="curve" smooth="yes"/>
      <point x="72" y="0" type="line" smooth="yes"/>
      <point x="86" y="0"/>
      <point x="96" y="9"/>
      <point x="99" y="22" type="curve"/>
      <point x="219" y="581" type="line"/>
      <point x="468" y="11" type="line"/>
    </contour>
  </outline>
</glyph>
<glyph name="eng" format="1">
  <advance width="590"/>
  <unicode hex="014B"/>
  <outline>
    <contour>
      <point x="264" y="-167" type="curve"/>
      <point x="260" y="-167" type="line"/>
      <point x="247" y="-167"/>
      <point x="236" y="-176"/>
      <point x="233" y="-189" type="curve"/>
      <point x="230" y="-203" type="line"/>
      <point x="227" y="-216"/>
      <point x="235" y="-225"/>
      <point x="248" y="-225" type="curve"/>
      <point x="252" y="-225" type="line"/>
      <point x="389" y="-225"/>
      <point x="418" y="-151"/>
      <point x="438" y="-57" type="curve"/>
      <point x="516" y="306" type="line"/>
      <point x="543" y="433"/>
      <point x="503" y="530"/>
      <point x="351" y="530" type="curve" smooth="yes"/>
      <point x="275" y="530"/>
      <point x="216" y="497"/>
      <point x="175" y="451" type="curve"/>
      <point x="185" y="498" type="line"/>
      <point x="188" y="511"/>
      <point x="181" y="520"/>
      <point x="168" y="520" type="curve" name="hr01"/>
      <point x="151" y="520" type="line"/>
      <point x="138" y="520"/>
      <point x="127" y="511"/>
      <point x="124" y="498" type="curve"/>
      <point x="23" y="22" type="line" smooth="yes"/>
      <point x="20" y="9"/>
      <point x="28" y="0"/>
      <point x="41" y="0" type="curve" smooth="yes"/>
      <point x="58" y="0" type="line"/>
      <point x="71" y="0"/>
      <point x="81" y="9"/>
      <point x="84" y="22" type="curve"/>
      <point x="143" y="301" type="line"/>
      <point x="166" y="408"/>
      <point x="246" y="472"/>
      <point x="351" y="472" type="curve" name="hr02" smooth="yes"/>
      <point x="460" y="472"/>
      <point x="477" y="414"/>
      <point x="453" y="301" type="curve"/>
      <point x="377" y="-57" type="line"/>
      <point x="364" y="-118"/>
      <point x="342" y="-167"/>
    </contour>
  </outline>
</glyph>
<glyph name="OE" format="1">
  <advance width="897"/>
  <unicode hex="0152"/>
  <outline>
    <contour>
      <point x="454" y="60" type="line" name="hr00"/>
      <point x="511" y="325" type="line"/>
      <point x="798" y="325" type="line"/>
      <point x="812" y="325"/>
      <point x="822" y="334"/>
      <point x="825" y="347" type="curve"/>
      <point x="828" y="362" type="line"/>
      <point x="831" y="376"/>
      <point x="824" y="385"/>
      <point x="810" y="385" type="curve"/>
      <point x="523" y="385" type="line"/>
      <point x="578" y="640" type="line"/>
      <point x="887" y="640" type="line"/>
      <point x="901" y="640"/>
      <point x="911" y="649"/>
      <point x="914" y="662" type="curve"/>
      <point x="917" y="677" type="line"/>
      <point x="920" y="691"/>
      <point x="913" y="700"/>
      <point x="899" y="700" type="curve"/>
      <point x="417" y="700" type="line"/>
      <point x="218" y="700"/>
      <point x="140" y="613"/>
      <point x="97" y="429" type="curve" smooth="yes"/>
      <point x="83" y="369"/>
      <point x="75" y="330"/>
      <point x="63" y="270" type="curve" smooth="yes"/>
      <point x="29" y="96"/>
      <point x="112" y="0"/>
      <point x="294" y="0" type="curve"/>
      <point x="759" y="0" type="line"/>
      <point x="773" y="0"/>
      <point x="783" y="9"/>
      <point x="786" y="22" type="curve"/>
      <point x="789" y="37" type="line"/>
      <point x="792" y="51"/>
      <point x="785" y="60"/>
      <point x="771" y="60" type="curve"/>
    </contour>
    <contour>
      <point x="127" y="275" type="curve" smooth="yes"/>
      <point x="139" y="335"/>
      <point x="145" y="364"/>
      <point x="159" y="424" type="curve" smooth="yes"/>
      <point x="195" y="580"/>
      <point x="261" y="640"/>
      <point x="420" y="640" type="curve"/>
      <point x="515" y="640" type="line"/>
      <point x="391" y="60" type="line"/>
      <point x="301" y="60" type="line"/>
      <point x="141" y="60"/>
      <point x="99" y="129"/>
    </contour>
  </outline>
</glyph>
<glyph name="Tbar" format="1">
  <advance width="564"/>
  <unicode hex="0166"/>
  <outline>
    <contour>
      <point x="156" y="410" type="line" name="hr00" smooth="yes"/>
      <point x="143" y="410"/>
      <point x="132" y="401"/>
      <point x="129" y="387" type="curve"/>
      <point x="126" y="372" type="line"/>
      <point x="123" y="359"/>
      <point x="130" y="350"/>
      <point x="143" y="350" type="curve"/>
      <point x="261" y="350" type="line"/>
      <point x="191" y="22" type="line" smooth="yes"/>
      <point x="188" y="9"/>
      <point x="196" y="0"/>
      <point x="209" y="0" type="curve" smooth="yes"/>
      <point x="227" y="0" type="line" smooth="yes"/>
      <point x="241" y="0"/>
      <point x="251" y="9"/>
      <point x="254" y="22" type="curve" smooth="yes"/>
      <point x="324" y="350" type="line"/>
      <point x="441" y="350" type="line"/>
      <point x="455" y="350"/>
      <point x="466" y="359"/>
      <point x="469" y="372" type="curve" smooth="yes"/>
      <point x="472" y="387" type="line" smooth="yes"/>
      <point x="475" y="401"/>
      <point x="468" y="410"/>
      <point x="454" y="410" type="curve" smooth="yes"/>
      <point x="337" y="410" type="line"/>
      <point x="386" y="640" type="line"/>
      <point x="583" y="640" type="line" smooth="yes"/>
      <point x="597" y="640"/>
      <point x="607" y="649"/>
      <point x="610" y="662" type="curve" smooth="yes"/>
      <point x="613" y="677" type="line" smooth="yes"/>
      <point x="616" y="691"/>
      <point x="609" y="700"/>
      <point x="595" y="700" type="curve" smooth="yes"/>
      <point x="137" y="700" type="line" smooth="yes"/>
      <point x="124" y="700"/>
      <point x="113" y="691"/>
      <point x="110" y="677" type="curve" smooth="yes"/>
      <point x="107" y="662" type="line" smooth="yes"/>
      <point x="104" y="649"/>
      <point x="112" y="640"/>
      <point x="125" y="640" type="curve" smooth="yes"/>
      <point x="323" y="640" type="line"/>
      <point x="274" y="410" type="line"/>
    </contour>
  </outline>
</glyph>
<glyph name="tbar" format="1">
  <advance width="359"/>
  <unicode hex="0167"/>
  <outline>
    <contour>
      <point x="307" y="304" type="line" name="hr00"/>
      <point x="320" y="304"/>
      <point x="331" y="313"/>
      <point x="334" y="326" type="curve"/>
      <point x="337" y="340" type="line"/>
      <point x="340" y="353"/>
      <point x="332" y="362"/>
      <point x="319" y="362" type="curve"/>
      <point x="195" y="362" type="line"/>
      <point x="217" y="462" type="line"/>
      <point x="341" y="462" type="line"/>
      <point x="354" y="462"/>
      <point x="365" y="471"/>
      <point x="367" y="484" type="curve"/>
      <point x="370" y="498" type="line"/>
      <point x="373" y="511"/>
      <point x="366" y="520"/>
      <point x="353" y="520" type="curve"/>
      <point x="229" y="520" type="line"/>
      <point x="265" y="688" type="line"/>
      <point x="268" y="701"/>
      <point x="260" y="710"/>
      <point x="247" y="710" type="curve"/>
      <point x="230" y="710" type="line"/>
      <point x="217" y="710"/>
      <point x="207" y="701"/>
      <point x="204" y="688" type="curve"/>
      <point x="168" y="520" type="line"/>
      <point x="90" y="520" type="line"/>
      <point x="77" y="520"/>
      <point x="66" y="511"/>
      <point x="63" y="498" type="curve"/>
      <point x="60" y="484" type="line"/>
      <point x="58" y="471"/>
      <point x="65" y="462"/>
      <point x="78" y="462" type="curve"/>
      <point x="156" y="462" type="line"/>
      <point x="134" y="362" type="line"/>
      <point x="56" y="362" type="line"/>
      <point x="43" y="362"/>
      <point x="33" y="353"/>
      <point x="30" y="340" type="curve" smooth="yes"/>
      <point x="27" y="326" type="line" smooth="yes"/>
      <point x="24" y="313"/>
      <point x="31" y="304"/>
      <point x="44" y="304" type="curve" smooth="yes"/>
      <point x="122" y="304" type="line"/>
      <point x="93" y="167" type="line"/>
      <point x="73" y="73"/>
      <point x="74" y="0"/>
      <point x="204" y="0" type="curve"/>
      <point x="253" y="0" type="line"/>
      <point x="266" y="0"/>
      <point x="276" y="9"/>
      <point x="279" y="22" type="curve"/>
      <point x="282" y="36" type="line"/>
      <point x="285" y="49"/>
      <point x="278" y="58"/>
      <point x="265" y="58" type="curve"/>
      <point x="205" y="58" type="line"/>
      <point x="130" y="58"/>
      <point x="140" y="100"/>
      <point x="155" y="171" type="curve"/>
      <point x="183" y="304" type="line"/>
    </contour>
  </outline>
</glyph>
<glyph name="Uogonek" format="1">
  <advance width="692"/>
  <unicode hex="0172"/>
  <outline>
    <contour>
      <point x="318" y="-220" type="line" name="hr00"/>
      <point x="332" y="-220"/>
      <point x="338" y="-216"/>
      <point x="342" y="-203" type="curve"/>
      <point x="347" y="-185" type="line"/>
      <point x="350" y="-172"/>
      <point x="343" y="-163"/>
      <point x="330" y="-163" type="curve"/>
      <point x="312" y="-163" type="line"/>
      <point x="278" y="-163"/>
      <point x="245" y="-133"/>
      <point x="256" y="-82" type="curve" smooth="yes"/>
      <point x="266" y="-36"/>
      <point x="301" y="-9"/>
      <point x="335" y="-7" type="curve"/>
      <point x="458" y="1"/>
      <point x="565" y="76"/>
      <point x="598" y="271" type="curve"/>
      <point x="684" y="677" type="line"/>
      <point x="687" y="691"/>
      <point x="680" y="700"/>
      <point x="667" y="700" type="curve"/>
      <point x="649" y="700" type="line"/>
      <point x="635" y="700"/>
      <point x="624" y="691"/>
      <point x="621" y="677" type="curve"/>
      <point x="534" y="268" type="line"/>
      <point x="502" y="118"/>
      <point x="415" y="50"/>
      <point x="286" y="50" type="curve" smooth="yes"/>
      <point x="151" y="50"/>
      <point x="113" y="118"/>
      <point x="145" y="268" type="curve"/>
      <point x="232" y="677" type="line"/>
      <point x="235" y="691"/>
      <point x="228" y="700"/>
      <point x="214" y="700" type="curve"/>
      <point x="196" y="700" type="line"/>
      <point x="183" y="700"/>
      <point x="172" y="691"/>
      <point x="169" y="677" type="curve"/>
      <point x="83" y="271" type="line"/>
      <point x="47" y="100"/>
      <point x="98" y="12"/>
      <point x="229" y="-6" type="curve"/>
      <point x="213" y="-26"/>
      <point x="201" y="-50"/>
      <point x="196" y="-82" type="curve" smooth="yes"/>
      <point x="181" y="-167"/>
      <point x="241" y="-220"/>
      <point x="312" y="-220" type="curve"/>
    </contour>
  </outline>
</glyph>
<glyph name="longs" format="1">
  <advance width="269"/>
  <unicode hex="017F"/>
  <outline>
    <contour>
      <point x="245" y="572" type="line" name="hr00" smooth="yes"/>
      <point x="260" y="643"/>
      <point x="295" y="682"/>
      <point x="365" y="682" type="curve" smooth="yes"/>
      <point x="410" y="682" type="line" smooth="yes"/>
      <point x="423" y="682"/>
      <point x="434" y="691"/>
      <point x="437" y="704" type="curve" smooth="yes"/>
      <point x="440" y="718" type="line" smooth="yes"/>
      <point x="443" y="731"/>
      <point x="436" y="740"/>
      <point x="423" y="740" type="curve" smooth="yes"/>
      <point x="365" y="740" type="line" smooth="yes"/>
      <point x="261" y="740"/>
      <point x="204" y="666"/>
      <point x="185" y="577" type="curve" smooth="yes"/>
      <point x="173" y="520" type="line"/>
      <point x="84" y="520" type="line"/>
      <point x="71" y="520"/>
      <point x="60" y="511"/>
      <point x="57" y="498" type="curve"/>
      <point x="54" y="484" type="line" smooth="yes"/>
      <point x="51" y="471"/>
      <point x="59" y="462"/>
      <point x="72" y="462" type="curve" smooth="yes"/>
      <point x="161" y="462" type="line"/>
      <point x="67" y="22" type="line" smooth="yes"/>
      <point x="64" y="9"/>
      <point x="72" y="0"/>
      <point x="85" y="0" type="curve" smooth="yes"/>
      <point x="102" y="0" type="line" smooth="yes"/>
      <point x="115" y="0"/>
      <point x="125" y="9"/>
      <point x="128" y="22" type="curve"/>
    </contour>
  </outline>
</glyph>
<glyph name="dotlessj" format="1">
  <advance width="265"/>
  <unicode hex="0237"/>
  <outline>
    <contour>
      <point x="54" y="-22" type="line" name="hr00" smooth="yes"/>
      <point x="41" y="-83"/>
      <point x="21" y="-132"/>
      <point x="-60" y="-132" type="curve" smooth="yes"/>
      <point x="-64" y="-132" type="line" smooth="yes"/>
      <point x="-77" y="-132"/>
      <point x="-86" y="-141"/>
      <point x="-89" y="-154" type="curve" smooth="yes"/>
      <point x="-92" y="-168" type="line" smooth="yes"/>
      <point x="-95" y="-181"/>
      <point x="-88" y="-190"/>
      <point x="-76" y="-190" type="curve" smooth="yes"/>
      <point x="-72" y="-190" type="line" smooth="yes"/>
      <point x="50" y="-190"/>
      <point x="95" y="-116"/>
      <point x="115" y="-22" type="curve" smooth="yes"/>
      <point x="225" y="498" type="line" smooth="yes"/>
      <point x="228" y="511"/>
      <point x="221" y="520"/>
      <point x="208" y="520" type="curve" smooth="yes"/>
      <point x="85" y="520" type="line" smooth="yes"/>
      <point x="72" y="520"/>
      <point x="61" y="511"/>
      <point x="58" y="498" type="curve" smooth="yes"/>
      <point x="55" y="484" type="line" smooth="yes"/>
      <point x="53" y="471"/>
      <point x="60" y="462"/>
      <point x="73" y="462" type="curve" smooth="yes"/>
      <point x="157" y="462" type="line"/>
    </contour>
  </outline>
</glyph>
<glyph name="circumflex" format="1">
  <advance width="304"/>
  <unicode hex="02C6"/>
  <outline>
    <contour>
      <point x="187" y="725" type="line" name="hr00" smooth="yes"/>
      <point x="177" y="725"/>
      <point x="169" y="725"/>
      <point x="152" y="711" type="curve" smooth="yes"/>
      <point x="40" y="620" type="line" smooth="yes"/>
      <point x="26" y="609"/>
      <point x="29" y="595"/>
      <point x="42" y="595" type="curve" smooth="yes"/>
      <point x="76" y="595" type="line" smooth="yes"/>
      <point x="84" y="595"/>
      <point x="88" y="598"/>
      <point x="95" y="602" type="curve" smooth="yes"/>
      <point x="186" y="662" type="line"/>
      <point x="251" y="602" type="line" smooth="yes"/>
      <point x="255" y="598"/>
      <point x="260" y="595"/>
      <point x="268" y="595" type="curve" smooth="yes"/>
      <point x="288" y="595" type="line" smooth="yes"/>
      <point x="300" y="595"/>
      <point x="310" y="607"/>
      <point x="299" y="621" type="curve" smooth="yes"/>
      <point x="226" y="711" type="line" smooth="yes"/>
      <point x="215" y="725"/>
      <point x="207" y="725"/>
      <point x="197" y="725" type="curve" smooth="yes"/>
    </contour>
  </outline>
</glyph>
